<svg class="crocodoc-nlgAE7 crocodoc-page-svg" version="1.1"
    xmlns="http://www.w3.org/2000/svg"
    xmlns:xlink="http://www.w3.org/1999/xlink"
    xmlns:xhtml="http://www.w3.org/1999/xhtml"
    xml:space="preserve" width="612.0pt" height="792.0pt" viewBox="0 0 612.0 792.0">
<xhtml:link href="stylesheet.css" type="text/css" rel="stylesheet" />
<style>
.crocodoc-nlgAE7 tspan { white-space:pre; direction:ltr; unicode-bidi:bidi-override; }
.crocodoc-nlgAE7 path { fill:transparent; }
.crocodoc-nlgAE7 [mbm="1"] { opacity:0; }
.crocodoc-nlgAE7 [mbm="2"] { opacity:0.3; }
.crocodoc-nlgAE7 [mbm="3"] { opacity:0.5; }
@supports (mix-blend-mode: multiply) {
.crocodoc-nlgAE7 [mbm] { opacity:1; }
}

</style>
<defs>

</defs>
<text class="f23" font-size="10.80" style="fill:#000000"><tspan x="72.30" y="82.38" textLength="93.48" dx="0,0.11,0.05,0.05,0.14,0.11,0.11,0.05,0.05,0.1,0.11,0.11,0.07,0.05,0.14,0.11,0.05,0.11,0.11">4. Publisher/Author</tspan></text><text class="f23" font-size="10.80" style="fill:#000000"><tspan x="165.85" y="82.38" textLength="3.0"> </tspan></text><text class="f23" font-size="10.80" style="fill:#000000"><tspan x="72.30" y="95.10" textLength="90.98" dx="0,0.11,0.05,0.05,0.15,0.11,0.17,0.17,0.11,0.11,0.05,0.13,0.11,0.11,0.1">5. Common Sense</tspan></text><text class="f23" font-size="10.80" style="fill:#000000"><tspan x="163.41" y="95.10" textLength="3.0"> </tspan></text><text class="f23" font-size="10.80" style="fill:#000000"><tspan x="72.30" y="107.58" textLength="3.0"> </tspan></text><text class="f31" font-size="10.80" style="fill:#000000"><tspan x="72.30" y="120.30" textLength="49.33" dx="0,0.17,0.12,0.15,0.05,0.12,0.12">MLB.com</tspan></text><text class="f31" font-size="10.80" style="fill:#000000"><tspan x="121.80" y="120.30" textLength="3.0"> </tspan></text><text class="f23" font-size="10.80" style="fill:#000000"><tspan x="72.30" y="133.02" textLength="3.0"> </tspan></text><text class="f31" font-size="10.80" style="fill:#000000"><tspan x="77.34" y="151.74" textLength="48.72" dx="0,0.15,0.08,0.05,0.07,0.11,0.08,0.05,0.12">Criterium</tspan></text><text class="f23" font-size="10.80" style="fill:#000000"><tspan x="126.24" y="151.74" textLength="3.0"> </tspan></text><text class="f31" font-size="10.80" style="fill:#000000"><tspan x="168.54" y="151.74" textLength="53.67" dx="0,0.15,0.11,0.11,0.11,0.08,0.05,0.07,0.05,0.12">Descrition</tspan></text><text class="f23" font-size="10.80" style="fill:#000000"><tspan x="222.33" y="151.74" textLength="3.0"> </tspan></text><text class="f31" font-size="10.80" style="fill:#000000"><tspan x="509.82" y="151.74" textLength="35.31" dx="0,0.15,0.12,0.12,0.12">Good?</tspan></text><text class="f23" font-size="10.80" style="fill:#000000"><tspan x="545.25" y="151.74" textLength="3.0"> </tspan></text><path d="M71.82 135.66 l0.96 0 l0 6 l-0.96 0 l0 -6 z "  style="fill:#000000;"/><path d="M71.82 135.66 l0.96 0 l0 0.96 l-0.96 0 l0 -0.96 z "  style="fill:#000000;"/><path d="M72.78 135.66 l90.48 0 l0 0.96 l-90.48 0 l0 -0.96 z "  style="fill:#000000;"/><path d="M163.26 136.62 l0.96 0 l0 5.04 l-0.96 0 l0 -5.04 z "  style="fill:#000000;"/><path d="M163.26 135.66 l0.96 0 l0 0.96 l-0.96 0 l0 -0.96 z "  style="fill:#000000;"/><path d="M164.22 135.66 l340.08 0 l0 0.96 l-340.08 0 l0 -0.96 z "  style="fill:#000000;"/><path d="M504.3 136.62 l0.96 0 l0 5.04 l-0.96 0 l0 -5.04 z "  style="fill:#000000;"/><path d="M504.3 135.66 l0.96 0 l0 0.96 l-0.96 0 l0 -0.96 z "  style="fill:#000000;"/><path d="M505.26 135.66 l44.64 0 l0 0.96 l-44.64 0 l0 -0.96 z "  style="fill:#000000;"/><path d="M549.9 135.66 l0.96 0 l0 6 l-0.96 0 l0 -6 z "  style="fill:#000000;"/><path d="M549.9 135.66 l0.96 0 l0 0.96 l-0.96 0 l0 -0.96 z "  style="fill:#000000;"/><path d="M71.82 141.66 l0.96 0 l0 17.52 l-0.96 0 l0 -17.52 z "  style="fill:#000000;"/><path d="M163.26 141.66 l0.96 0 l0 17.52 l-0.96 0 l0 -17.52 z "  style="fill:#000000;"/><path d="M504.3 141.66 l0.96 0 l0 17.52 l-0.96 0 l0 -17.52 z "  style="fill:#000000;"/><path d="M549.9 141.66 l0.96 0 l0 17.52 l-0.96 0 l0 -17.52 z "  style="fill:#000000;"/><text class="f23" font-size="10.80" style="fill:#000000"><tspan x="77.34" y="175.26" textLength="56.14" dx="0,0.13,0.05,0.06,0.11,0.06,0.14,0.11,0.1,0.05,0.11">Site Design</tspan></text><text class="f23" font-size="10.80" style="fill:#000000"><tspan x="133.59" y="175.26" textLength="3.0"> </tspan></text><text class="f23" font-size="10.80" style="fill:#000000"><tspan x="168.54" y="175.26" textLength="42.09" dx="0,0.19,0.12,0.05,0.05,0.05,0.11,0.12">Well con</tspan></text><text class="f23" font-size="10.80" style="fill:#000000"><tspan x="210.72" y="175.26" textLength="260.45" dx="0,0.1,0.06,0.07,0.11,0.1,0.06,0.11,0.11,0.06,0.06,0.11,0.11,0.11,0.06,0.14,0.05,0.06,0.11,0.06,0.11,0.06,0.06,0.05,0.1,0.05,0.11,0.05,0.06,0.05,0.11,0.11,0.11,0.1,0.06,0.06,0.11,0.11,0.11,0.06,0.11,0.07,0.11,0.06,0.11,0.1,0.1,0.05,0.11,0.11,0.11,0.05,0.06,0.06,0.11,0.11,0.05">structed, and with official logos, and professional feel.</tspan></text><text class="f23" font-size="10.80" style="fill:#000000"><tspan x="471.21" y="175.26" textLength="3.0"> </tspan></text><text class="f23" font-size="10.80" style="fill:#000000"><tspan x="509.82" y="175.26" textLength="21.88" dx="0,0.13,0.13">YES</tspan></text><text class="f23" font-size="10.80" style="fill:#000000"><tspan x="531.83" y="175.26" textLength="3.0"> </tspan></text><path d="M71.82 159.18 l0.96 0 l0 6 l-0.96 0 l0 -6 z "  style="fill:#000000;"/><path d="M72.78 159.18 l90.48 0 l0 0.96 l-90.48 0 l0 -0.96 z "  style="fill:#000000;"/><path d="M163.26 159.18 l0.96 0 l0 6 l-0.96 0 l0 -6 z "  style="fill:#000000;"/><path d="M164.22 159.18 l340.08 0 l0 0.96 l-340.08 0 l0 -0.96 z "  style="fill:#000000;"/><path d="M504.3 159.18 l0.96 0 l0 6 l-0.96 0 l0 -6 z "  style="fill:#000000;"/><path d="M505.26 159.18 l44.64 0 l0 0.96 l-44.64 0 l0 -0.96 z "  style="fill:#000000;"/><path d="M549.9 159.18 l0.96 0 l0 6 l-0.96 0 l0 -6 z "  style="fill:#000000;"/><path d="M71.82 165.18 l0.96 0 l0 17.76 l-0.96 0 l0 -17.76 z "  style="fill:#000000;"/><path d="M163.26 165.18 l0.96 0 l0 17.76 l-0.96 0 l0 -17.76 z "  style="fill:#000000;"/><path d="M504.3 165.18 l0.96 0 l0 17.76 l-0.96 0 l0 -17.76 z "  style="fill:#000000;"/><path d="M549.9 165.18 l0.96 0 l0 17.76 l-0.96 0 l0 -17.76 z "  style="fill:#000000;"/><text class="f23" font-size="10.80" style="fill:#000000"><tspan x="77.34" y="199.02" textLength="21.89" dx="0,0.15,0.15">URL</tspan></text><text class="f23" font-size="10.80" style="fill:#000000"><tspan x="99.34" y="199.02" textLength="3.0"> </tspan></text><text class="f23" font-size="10.80" style="fill:#1155cc"><tspan x="168.54" y="199.02" textLength="3.0">.</tspan></text><text class="f23" font-size="10.80" style="fill:#1155cc"><tspan x="171.60" y="199.02" textLength="20.61" dx="0,0.1,0.11">com</tspan></text><text class="f23" font-size="10.80" style="fill:#000000"><tspan x="192.38" y="199.02" textLength="3.0"> </tspan></text><text class="f23" font-size="10.80" style="fill:#000000"><tspan x="195.44" y="199.02" textLength="264.07" dx="0,0.11,0.11,0.11,0.07,0.11,0.1,0.1,0.05,0.05,0.11,0.11,0.05,0.05,0.05,0.11,0.11,0.05,0.15,0.15,0.11,0.05,0.05,0.1,0.05,0.11,0.15,0.11,0.11,0.11,0.05,0.11,0.1,0.05,0.05,0.11,0.11,0.05,0.1,0.11,0.17,0.11,0.11,0.11,0.1,0.05,0.11,0.11,0.05,0.11,0.11">address, but the URL is owned by the company being </tspan></text><path d="M168.54 200.7 l23.76 0 l0 0.24 l-23.76 0 l0 -0.24 z "  style="fill:#1155cc;"/><text class="f23" font-size="10.80" style="fill:#000000"><tspan x="168.54" y="211.50" textLength="58.58" dx="0,0.07,0.11,0.11,0.07,0.11,0.1,0.11,0.11,0.06,0.11">represented</tspan></text><text class="f23" font-size="10.80" style="fill:#000000"><tspan x="227.24" y="211.50" textLength="3.0"> </tspan></text><text class="f23" font-size="10.80" style="fill:#000000"><tspan x="509.82" y="199.02" textLength="21.88" dx="0,0.13,0.13">YES</tspan></text><text class="f23" font-size="10.80" style="fill:#000000"><tspan x="531.83" y="199.02" textLength="3.0"> </tspan></text><path d="M71.82 182.94 l0.96 0 l0 6 l-0.96 0 l0 -6 z "  style="fill:#000000;"/><path d="M72.78 182.94 l90.48 0 l0 0.96 l-90.48 0 l0 -0.96 z "  style="fill:#000000;"/><path d="M163.26 182.94 l0.96 0 l0 6 l-0.96 0 l0 -6 z "  style="fill:#000000;"/><path d="M164.22 182.94 l340.08 0 l0 0.96 l-340.08 0 l0 -0.96 z "  style="fill:#000000;"/><path d="M504.3 182.94 l0.96 0 l0 6 l-0.96 0 l0 -6 z "  style="fill:#000000;"/><path d="M505.26 182.94 l44.64 0 l0 0.96 l-44.64 0 l0 -0.96 z "  style="fill:#000000;"/><path d="M549.9 182.94 l0.96 0 l0 6 l-0.96 0 l0 -6 z "  style="fill:#000000;"/><path d="M71.82 188.94 l0.96 0 l0 30.24 l-0.96 0 l0 -30.24 z "  style="fill:#000000;"/><path d="M163.26 188.94 l0.96 0 l0 30.24 l-0.96 0 l0 -30.24 z "  style="fill:#000000;"/><path d="M504.3 188.94 l0.96 0 l0 30.24 l-0.96 0 l0 -30.24 z "  style="fill:#000000;"/><path d="M549.9 188.94 l0.96 0 l0 30.24 l-0.96 0 l0 -30.24 z "  style="fill:#000000;"/><text class="f23" font-size="10.80" style="fill:#000000"><tspan x="77.34" y="235.26" textLength="38.47" dx="0,0.15,0.11,0.11,0.05,0.11,0.11">Content</tspan></text><text class="f23" font-size="10.80" style="fill:#000000"><tspan x="115.87" y="235.26" textLength="3.0"> </tspan></text><text class="f23" font-size="10.80" style="fill:#000000"><tspan x="168.54" y="235.26" textLength="321.59" dx="0,0.13,0.1,0.1,0.11,0.07,0.11,0.06,0.11,0.06,0.06,0.11,0.11,0.11,0.06,0.11,0.11,0.11,0.05,0.11,0.1,0.11,0.11,0.06,0.06,0.14,0.05,0.06,0.11,0.06,0.05,0.11,0.06,0.11,0.07,0.18,0.11,0.06,0.05,0.11,0.11,0.06,0.11,0.11,0.07,0.06,0.11,0.05,0.11,0.05,0.11,0.11,0.06,0.1,0.11,0.11,0.1,0.05,0.06,0.05,0.1,0.11,0.05,0.05,0.1,0.06,0.06,0.11">Accurate, and unbiased, with information pertaining specifically to </tspan></text><text class="f23" font-size="10.80" style="fill:#000000"><tspan x="168.54" y="247.98" textLength="44.6" dx="0,0.05,0.12,0.12,0.05,0.05,0.12,0.12,0.04,0.1">the topic </tspan></text><text class="f23" font-size="10.80" style="fill:#000000"><tspan x="213.18" y="247.98" textLength="73.91" dx="0,0.11,0.05,0.05,0.05,0.11,0.11,0.05,0.15,0.11,0.11,0.05,0.1,0.05,0.05,0.11">of the web site.</tspan></text><text class="f23" font-size="10.80" style="fill:#000000"><tspan x="287.16" y="247.98" textLength="3.0"> </tspan></text><text class="f23" font-size="10.80" style="fill:#000000"><tspan x="509.82" y="235.26" textLength="21.88" dx="0,0.13,0.13">YES</tspan></text><text class="f23" font-size="10.80" style="fill:#000000"><tspan x="531.83" y="235.26" textLength="3.0"> </tspan></text><path d="M71.82 219.18 l0.96 0 l0 6 l-0.96 0 l0 -6 z "  style="fill:#000000;"/><path d="M72.78 219.18 l90.48 0 l0 0.96 l-90.48 0 l0 -0.96 z "  style="fill:#000000;"/><path d="M163.26 219.18 l0.96 0 l0 6 l-0.96 0 l0 -6 z "  style="fill:#000000;"/><path d="M164.22 219.18 l340.08 0 l0 0.96 l-340.08 0 l0 -0.96 z "  style="fill:#000000;"/><path d="M504.3 219.18 l0.96 0 l0 6 l-0.96 0 l0 -6 z "  style="fill:#000000;"/><path d="M505.26 219.18 l44.64 0 l0 0.96 l-44.64 0 l0 -0.96 z "  style="fill:#000000;"/><path d="M549.9 219.18 l0.96 0 l0 6 l-0.96 0 l0 -6 z "  style="fill:#000000;"/><path d="M71.82 225.18 l0.96 0 l0 30.24 l-0.96 0 l0 -30.24 z "  style="fill:#000000;"/><path d="M163.26 225.18 l0.96 0 l0 30.24 l-0.96 0 l0 -30.24 z "  style="fill:#000000;"/><path d="M504.3 225.18 l0.96 0 l0 30.24 l-0.96 0 l0 -30.24 z "  style="fill:#000000;"/><path d="M549.9 225.18 l0.96 0 l0 30.24 l-0.96 0 l0 -30.24 z "  style="fill:#000000;"/><text class="f23" font-size="10.80" style="fill:#000000"><tspan x="77.34" y="271.50" textLength="81.25" dx="0,0.13,0.11,0.11,0.05,0.05,0.1,0.11,0.11,0.07,0.06,0.13,0.11,0.06,0.11,0.11">Publisher/Author</tspan></text><text class="f23" font-size="10.80" style="fill:#000000"><tspan x="158.66" y="271.50" textLength="3.0"> </tspan></text><text class="f23" font-size="10.80" style="fill:#000000"><tspan x="168.54" y="271.50" textLength="321.02" dx="0,0.17,0.12,0.04,0.12,0.06,0.05,0.12,0.12,0.12,0.12,0.12,0.12,0.05,0.13,0.12,0.1,0.12,0.12,0.12,0.04,0.04,0.05,0.04,0.1,0.05,0.05,0.12,0.12,0.05,0.12,0.12,0.12,0.04,0.04,0.1,0.12,0.04,0.12,0.12,0.05,0.12,0.06,0.12,0.12,0.12,0.04,0.1,0.12,0.05,0.04,0.12,0.11,0.05,0.05,0.1,0.12,0.05,0.05,0.12,0.11,0.11,0.05,0.11,0.06,0.11">Major League Baseball is the publishing organization, so they are </tspan></text><text class="f23" font-size="10.80" style="fill:#000000"><tspan x="168.54" y="284.22" textLength="265.35" dx="0,0.11,0.12,0.06,0.11,0.05,0.04,0.04,0.1,0.12,0.04,0.11,0.05,0.05,0.12,0.05,0.12,0.06,0.12,0.12,0.12,0.1,0.12,0.05,0.12,0.1,0.1,0.12,0.06,0.12,0.05,0.12,0.05,0.1,0.12,0.12,0.05,0.12,0.12,0.05,0.05,0.12,0.12,0.12,0.12,0.05,0.05,0.12,0.12,0.1,0.12,0.12,0.12,0.04,0.04">very likely to produce accurate content about baseball.</tspan></text><text class="f23" font-size="10.80" style="fill:#000000"><tspan x="433.94" y="284.22" textLength="3.0"> </tspan></text><text class="f23" font-size="10.80" style="fill:#000000"><tspan x="509.82" y="271.50" textLength="21.88" dx="0,0.13,0.13">YES</tspan></text><text class="f23" font-size="10.80" style="fill:#000000"><tspan x="531.83" y="271.50" textLength="3.0"> </tspan></text><path d="M71.82 255.42 l0.96 0 l0 6 l-0.96 0 l0 -6 z "  style="fill:#000000;"/><path d="M72.78 255.42 l90.48 0 l0 0.96 l-90.48 0 l0 -0.96 z "  style="fill:#000000;"/><path d="M163.26 255.42 l0.96 0 l0 6 l-0.96 0 l0 -6 z "  style="fill:#000000;"/><path d="M164.22 255.42 l340.08 0 l0 0.96 l-340.08 0 l0 -0.96 z "  style="fill:#000000;"/><path d="M504.3 255.42 l0.96 0 l0 6 l-0.96 0 l0 -6 z "  style="fill:#000000;"/><path d="M505.26 255.42 l44.64 0 l0 0.96 l-44.64 0 l0 -0.96 z "  style="fill:#000000;"/><path d="M549.9 255.42 l0.96 0 l0 6 l-0.96 0 l0 -6 z "  style="fill:#000000;"/><path d="M71.82 261.42 l0.96 0 l0 30.24 l-0.96 0 l0 -30.24 z "  style="fill:#000000;"/><path d="M163.26 261.42 l0.96 0 l0 30.24 l-0.96 0 l0 -30.24 z "  style="fill:#000000;"/><path d="M504.3 261.42 l0.96 0 l0 30.24 l-0.96 0 l0 -30.24 z "  style="fill:#000000;"/><path d="M549.9 261.42 l0.96 0 l0 30.24 l-0.96 0 l0 -30.24 z "  style="fill:#000000;"/><text class="f23" font-size="10.80" style="fill:#000000"><tspan x="77.34" y="307.74" textLength="78.76" dx="0,0.15,0.11,0.17,0.17,0.11,0.11,0.05,0.13,0.11,0.11,0.1">Common Sense</tspan></text><text class="f23" font-size="10.80" style="fill:#000000"><tspan x="156.22" y="307.74" textLength="3.0"> </tspan></text><text class="f23" font-size="10.80" style="fill:#000000"><tspan x="168.54" y="307.74" textLength="291.55" dx="0,0.15,0.11,0.05,0.07,0.11,0.11,0.05,0.05,0.05,0.11,0.11,0.1,0.05,0.05,0.11,0.1,0.11,0.07,0.1,0.05,0.11,0.05,0.11,0.11,0.05,0.11,0.11,0.11,0.11,0.11,0.07,0.1,0.05,0.05,0.11,0.05,0.11,0.11,0.05,0.11,0.1,0.1,0.11,0.07,0.11,0.05,0.11,0.05,0.11,0.11,0.11,0.05,0.07,0.11,0.05,0.05,0.11,0.11,0.05">No red flags, everything appears to be accurate and reliable</tspan></text><text class="f23" font-size="10.80" style="fill:#000000"><tspan x="460.23" y="307.74" textLength="3.0"> </tspan></text><text class="f23" font-size="10.80" style="fill:#000000"><tspan x="509.82" y="307.74" textLength="21.88" dx="0,0.13,0.13">YES</tspan></text><text class="f23" font-size="10.80" style="fill:#000000"><tspan x="531.83" y="307.74" textLength="3.0"> </tspan></text><path d="M71.82 291.66 l0.96 0 l0 6 l-0.96 0 l0 -6 z "  style="fill:#000000;"/><path d="M72.78 291.66 l90.48 0 l0 0.96 l-90.48 0 l0 -0.96 z "  style="fill:#000000;"/><path d="M163.26 291.66 l0.96 0 l0 6 l-0.96 0 l0 -6 z "  style="fill:#000000;"/><path d="M164.22 291.66 l340.08 0 l0 0.96 l-340.08 0 l0 -0.96 z "  style="fill:#000000;"/><path d="M504.3 291.66 l0.96 0 l0 6 l-0.96 0 l0 -6 z "  style="fill:#000000;"/><path d="M505.26 291.66 l44.64 0 l0 0.96 l-44.64 0 l0 -0.96 z "  style="fill:#000000;"/><path d="M549.9 291.66 l0.96 0 l0 6 l-0.96 0 l0 -6 z "  style="fill:#000000;"/><path d="M71.82 297.66 l0.96 0 l0 17.76 l-0.96 0 l0 -17.76 z "  style="fill:#000000;"/><path d="M71.82 315.42 l0.96 0 l0 0.96 l-0.96 0 l0 -0.96 z "  style="fill:#000000;"/><path d="M71.82 315.42 l0.96 0 l0 0.96 l-0.96 0 l0 -0.96 z "  style="fill:#000000;"/><path d="M72.78 315.42 l90.48 0 l0 0.96 l-90.48 0 l0 -0.96 z "  style="fill:#000000;"/><path d="M163.26 297.66 l0.96 0 l0 17.76 l-0.96 0 l0 -17.76 z "  style="fill:#000000;"/><path d="M163.26 315.42 l0.96 0 l0 0.96 l-0.96 0 l0 -0.96 z "  style="fill:#000000;"/><path d="M164.22 315.42 l340.08 0 l0 0.96 l-340.08 0 l0 -0.96 z "  style="fill:#000000;"/><path d="M504.3 297.66 l0.96 0 l0 17.76 l-0.96 0 l0 -17.76 z "  style="fill:#000000;"/><path d="M504.3 315.42 l0.96 0 l0 0.96 l-0.96 0 l0 -0.96 z "  style="fill:#000000;"/><path d="M505.26 315.42 l44.64 0 l0 0.96 l-44.64 0 l0 -0.96 z "  style="fill:#000000;"/><path d="M549.9 297.66 l0.96 0 l0 17.76 l-0.96 0 l0 -17.76 z "  style="fill:#000000;"/><path d="M549.9 315.42 l0.96 0 l0 0.96 l-0.96 0 l0 -0.96 z "  style="fill:#000000;"/><path d="M549.9 315.42 l0.96 0 l0 0.96 l-0.96 0 l0 -0.96 z "  style="fill:#000000;"/><text class="f23" font-size="10.80" style="fill:#000000"><tspan x="72.30" y="326.46" textLength="3.0"> </tspan></text><text class="f23" font-size="10.80" style="fill:#000000"><tspan x="72.30" y="339.18" textLength="3.0"> </tspan></text><text class="f31" font-size="10.80" style="fill:#000000"><tspan x="72.30" y="351.66" textLength="56.14" dx="0,0.12,0.15,0.06,0.14,0.12,0.12,0.12,0.11">LA Dodger</tspan></text><text class="f31" font-size="10.80" style="fill:#000000"><tspan x="128.52" y="351.66" textLength="6.0">s</tspan></text><text class="f31" font-size="10.80" style="fill:#000000"><tspan x="134.64" y="351.66" textLength="3.0"> </tspan></text><text class="f31" font-size="10.80" style="fill:#000000"><tspan x="72.30" y="364.38" textLength="3.0"> </tspan></text><text class="f31" font-size="10.80" style="fill:#000000"><tspan x="77.34" y="383.10" textLength="48.72" dx="0,0.15,0.08,0.05,0.07,0.11,0.08,0.05,0.12">Criterium</tspan></text><text class="f23" font-size="10.80" style="fill:#000000"><tspan x="126.24" y="383.10" textLength="3.0"> </tspan></text><text class="f31" font-size="10.80" style="fill:#000000"><tspan x="168.54" y="383.10" textLength="53.67" dx="0,0.15,0.11,0.11,0.11,0.08,0.05,0.07,0.05,0.12">Descrition</tspan></text><text class="f23" font-size="10.80" style="fill:#000000"><tspan x="222.33" y="383.10" textLength="3.0"> </tspan></text><text class="f31" font-size="10.80" style="fill:#000000"><tspan x="509.82" y="383.10" textLength="35.31" dx="0,0.15,0.12,0.12,0.12">Good?</tspan></text><text class="f23" font-size="10.80" style="fill:#000000"><tspan x="545.25" y="383.10" textLength="3.0"> </tspan></text><path d="M71.82 367.02 l0.96 0 l0 6 l-0.96 0 l0 -6 z "  style="fill:#000000;"/><path d="M71.82 367.02 l0.96 0 l0 0.96 l-0.96 0 l0 -0.96 z "  style="fill:#000000;"/><path d="M72.78 367.02 l90.48 0 l0 0.96 l-90.48 0 l0 -0.96 z "  style="fill:#000000;"/><path d="M163.26 367.98 l0.96 0 l0 5.04 l-0.96 0 l0 -5.04 z "  style="fill:#000000;"/><path d="M163.26 367.02 l0.96 0 l0 0.96 l-0.96 0 l0 -0.96 z "  style="fill:#000000;"/><path d="M164.22 367.02 l340.08 0 l0 0.96 l-340.08 0 l0 -0.96 z "  style="fill:#000000;"/><path d="M504.3 367.98 l0.96 0 l0 5.04 l-0.96 0 l0 -5.04 z "  style="fill:#000000;"/><path d="M504.3 367.02 l0.96 0 l0 0.96 l-0.96 0 l0 -0.96 z "  style="fill:#000000;"/><path d="M505.26 367.02 l44.64 0 l0 0.96 l-44.64 0 l0 -0.96 z "  style="fill:#000000;"/><path d="M549.9 367.02 l0.96 0 l0 6 l-0.96 0 l0 -6 z "  style="fill:#000000;"/><path d="M549.9 367.02 l0.96 0 l0 0.96 l-0.96 0 l0 -0.96 z "  style="fill:#000000;"/><path d="M71.82 373.02 l0.96 0 l0 17.52 l-0.96 0 l0 -17.52 z "  style="fill:#000000;"/><path d="M163.26 373.02 l0.96 0 l0 17.52 l-0.96 0 l0 -17.52 z "  style="fill:#000000;"/><path d="M504.3 373.02 l0.96 0 l0 17.52 l-0.96 0 l0 -17.52 z "  style="fill:#000000;"/><path d="M549.9 373.02 l0.96 0 l0 17.52 l-0.96 0 l0 -17.52 z "  style="fill:#000000;"/><text class="f23" font-size="10.80" style="fill:#000000"><tspan x="77.34" y="406.62" textLength="56.14" dx="0,0.13,0.05,0.06,0.11,0.06,0.14,0.11,0.1,0.05,0.11">Site Design</tspan></text><text class="f23" font-size="10.80" style="fill:#000000"><tspan x="133.59" y="406.62" textLength="3.0"> </tspan></text><text class="f23" font-size="10.80" style="fill:#000000"><tspan x="168.54" y="406.62" textLength="252.98" dx="0,0.13,0.05,0.05,0.11,0.11,0.06,0.05,0.1,0.06,0.1,0.05,0.11,0.06,0.06,0.11,0.07,0.11,0.11,0.06,0.11,0.11,0.06,0.06,0.1,0.05,0.18,0.05,0.05,0.11,0.07,0.06,0.05,0.11,0.06,0.1,0.06,0.07,0.11,0.1,0.06,0.11,0.07,0.11,0.06,0.06,0.11,0.06,0.18,0.11,0.13,0.06,0.1,0.11">Slightly cluttered but similar in structure to MLB.com</tspan></text><text class="f23" font-size="10.80" style="fill:#000000"><tspan x="421.65" y="406.62" textLength="3.0"> </tspan></text><text class="f23" font-size="10.80" style="fill:#000000"><tspan x="509.82" y="406.62" textLength="21.88" dx="0,0.13,0.13">YES</tspan></text><text class="f23" font-size="10.80" style="fill:#000000"><tspan x="531.83" y="406.62" textLength="3.0"> </tspan></text><path d="M71.82 390.54 l0.96 0 l0 6 l-0.96 0 l0 -6 z "  style="fill:#000000;"/><path d="M72.78 390.54 l90.48 0 l0 0.96 l-90.48 0 l0 -0.96 z "  style="fill:#000000;"/><path d="M163.26 390.54 l0.96 0 l0 6 l-0.96 0 l0 -6 z "  style="fill:#000000;"/><path d="M164.22 390.54 l340.08 0 l0 0.96 l-340.08 0 l0 -0.96 z "  style="fill:#000000;"/><path d="M504.3 390.54 l0.96 0 l0 6 l-0.96 0 l0 -6 z "  style="fill:#000000;"/><path d="M505.26 390.54 l44.64 0 l0 0.96 l-44.64 0 l0 -0.96 z "  style="fill:#000000;"/><path d="M549.9 390.54 l0.96 0 l0 6 l-0.96 0 l0 -6 z "  style="fill:#000000;"/><path d="M71.82 396.54 l0.96 0 l0 17.76 l-0.96 0 l0 -17.76 z "  style="fill:#000000;"/><path d="M163.26 396.54 l0.96 0 l0 17.76 l-0.96 0 l0 -17.76 z "  style="fill:#000000;"/><path d="M504.3 396.54 l0.96 0 l0 17.76 l-0.96 0 l0 -17.76 z "  style="fill:#000000;"/><path d="M549.9 396.54 l0.96 0 l0 17.76 l-0.96 0 l0 -17.76 z "  style="fill:#000000;"/><text class="f23" font-size="10.80" style="fill:#000000"><tspan x="77.34" y="430.38" textLength="21.89" dx="0,0.15,0.15">URL</tspan></text><text class="f23" font-size="10.80" style="fill:#000000"><tspan x="99.34" y="430.38" textLength="3.0"> </tspan></text><text class="f23" font-size="10.80" style="fill:#000000"><tspan x="168.54" y="430.38" textLength="311.14" dx="0,0.12,0.11,0.11,0.06,0.14,0.14,0.11,0.06,0.05,0.1,0.06,0.11,0.11,0.07,0.06,0.06,0.11,0.06,0.06,0.06,0.11,0.11,0.06,0.17,0.11,0.13,0.06,0.1,0.11,0.17,0.06,0.11,0.11,0.17,0.11,0.05,0.11,0.06,0.06,0.11,0.11,0.11,0.06,0.05,0.11,0.11,0.05,0.1,0.11,0.06,0.11,0.1,0.06,0.06,0.11,0.11,0.06,0.06,0.05,0.06,0.06,0.05,0.1">The URL is part of the MLB.com domain, and indicates that it is </tspan></text><text class="f23" font-size="10.80" style="fill:#000000"><tspan x="168.54" y="443.10" textLength="114.9" dx="0,0.1,0.11,0.11,0.1,0.05,0.06,0.05,0.1,0.06,0.06,0.11,0.06,0.06,0.11,0.11,0.06,0.14,0.11,0.11,0.11,0.11,0.07,0.1">specific to the Dodgers.</tspan></text><text class="f23" font-size="10.80" style="fill:#000000"><tspan x="283.49" y="443.10" textLength="3.0"> </tspan></text><text class="f23" font-size="10.80" style="fill:#000000"><tspan x="509.82" y="430.38" textLength="21.88" dx="0,0.13,0.13">YES</tspan></text><text class="f23" font-size="10.80" style="fill:#000000"><tspan x="531.83" y="430.38" textLength="3.0"> </tspan></text><path d="M71.82 414.3 l0.96 0 l0 6 l-0.96 0 l0 -6 z "  style="fill:#000000;"/><path d="M72.78 414.3 l90.48 0 l0 0.96 l-90.48 0 l0 -0.96 z "  style="fill:#000000;"/><path d="M163.26 414.3 l0.96 0 l0 6 l-0.96 0 l0 -6 z "  style="fill:#000000;"/><path d="M164.22 414.3 l340.08 0 l0 0.96 l-340.08 0 l0 -0.96 z "  style="fill:#000000;"/><path d="M504.3 414.3 l0.96 0 l0 6 l-0.96 0 l0 -6 z "  style="fill:#000000;"/><path d="M505.26 414.3 l44.64 0 l0 0.96 l-44.64 0 l0 -0.96 z "  style="fill:#000000;"/><path d="M549.9 414.3 l0.96 0 l0 6 l-0.96 0 l0 -6 z "  style="fill:#000000;"/><path d="M71.82 420.3 l0.96 0 l0 30.24 l-0.96 0 l0 -30.24 z "  style="fill:#000000;"/><path d="M163.26 420.3 l0.96 0 l0 30.24 l-0.96 0 l0 -30.24 z "  style="fill:#000000;"/><path d="M504.3 420.3 l0.96 0 l0 30.24 l-0.96 0 l0 -30.24 z "  style="fill:#000000;"/><path d="M549.9 420.3 l0.96 0 l0 30.24 l-0.96 0 l0 -30.24 z "  style="fill:#000000;"/><text class="f23" font-size="10.80" style="fill:#000000"><tspan x="77.34" y="466.62" textLength="38.47" dx="0,0.15,0.11,0.11,0.05,0.11,0.11">Content</tspan></text><text class="f23" font-size="10.80" style="fill:#000000"><tspan x="115.87" y="466.62" textLength="3.0"> </tspan></text><text class="f23" font-size="10.80" style="fill:#000000"><tspan x="168.54" y="466.62" textLength="229.27" dx="0,0.13,0.1,0.1,0.11,0.07,0.11,0.06,0.11,0.06,0.06,0.11,0.11,0.11,0.06,0.11,0.11,0.11,0.05,0.11,0.1,0.11,0.11,0.06,0.06,0.14,0.05,0.06,0.11,0.06,0.05,0.11,0.06,0.11,0.07,0.18,0.11,0.06,0.05,0.11,0.11,0.06,0.11,0.11,0.07,0.06,0.11">Accurate, and unbiased, with information pertai</tspan></text><text class="f23" font-size="10.80" style="fill:#000000"><tspan x="397.84" y="466.62" textLength="92.28" dx="0,0.11,0.05,0.11,0.11,0.05,0.1,0.11,0.11,0.1,0.05,0.05,0.05,0.1,0.11,0.05,0.05,0.1,0.05,0.05,0.11">ning specifically to </tspan></text><text class="f23" font-size="10.80" style="fill:#000000"><tspan x="168.54" y="479.34" textLength="333.97" dx="0,0.05,0.12,0.12,0.05,0.05,0.12,0.12,0.04,0.1,0.05,0.12,0.05,0.05,0.05,0.12,0.12,0.05,0.15,0.12,0.12,0.05,0.1,0.04,0.05,0.12,0.05,0.05,0.12,0.12,0.12,0.05,0.04,0.04,0.12,0.1,0.04,0.12,0.12,0.05,0.05,0.12,0.05,0.12,0.05,0.12,0.12,0.06,0.05,0.04,0.12,0.05,0.12,0.06,0.17,0.12,0.05,0.04,0.12,0.11,0.05,0.12,0.11,0.12,0.12,0.05,0.05,0.12,0.05,0.12,0.12,0.06">the topic of the web site, and linking to other information about other </tspan></text><text class="f23" font-size="10.80" style="fill:#000000"><tspan x="168.54" y="492.06" textLength="32.97" dx="0,0.05,0.12,0.12,0.17,0.1">teams.</tspan></text><text class="f23" font-size="10.80" style="fill:#000000"><tspan x="201.56" y="492.06" textLength="3.0"> </tspan></text><text class="f23" font-size="10.80" style="fill:#000000"><tspan x="509.82" y="466.62" textLength="21.88" dx="0,0.13,0.13">YES</tspan></text><text class="f23" font-size="10.80" style="fill:#000000"><tspan x="531.83" y="466.62" textLength="3.0"> </tspan></text><path d="M71.82 450.54 l0.96 0 l0 6 l-0.96 0 l0 -6 z "  style="fill:#000000;"/><path d="M72.78 450.54 l90.48 0 l0 0.96 l-90.48 0 l0 -0.96 z "  style="fill:#000000;"/><path d="M163.26 450.54 l0.96 0 l0 6 l-0.96 0 l0 -6 z "  style="fill:#000000;"/><path d="M164.22 450.54 l340.08 0 l0 0.96 l-340.08 0 l0 -0.96 z "  style="fill:#000000;"/><path d="M504.3 450.54 l0.96 0 l0 6 l-0.96 0 l0 -6 z "  style="fill:#000000;"/><path d="M505.26 450.54 l44.64 0 l0 0.96 l-44.64 0 l0 -0.96 z "  style="fill:#000000;"/><path d="M549.9 450.54 l0.96 0 l0 6 l-0.96 0 l0 -6 z "  style="fill:#000000;"/><path d="M71.82 456.54 l0.96 0 l0 42.96 l-0.96 0 l0 -42.96 z "  style="fill:#000000;"/><path d="M163.26 456.54 l0.96 0 l0 42.96 l-0.96 0 l0 -42.96 z "  style="fill:#000000;"/><path d="M504.3 456.54 l0.96 0 l0 42.96 l-0.96 0 l0 -42.96 z "  style="fill:#000000;"/><path d="M549.9 456.54 l0.96 0 l0 42.96 l-0.96 0 l0 -42.96 z "  style="fill:#000000;"/><text class="f23" font-size="10.80" style="fill:#000000"><tspan x="77.34" y="515.58" textLength="81.25" dx="0,0.13,0.11,0.11,0.05,0.05,0.1,0.11,0.11,0.07,0.06,0.13,0.11,0.06,0.11,0.11">Publisher/Author</tspan></text><text class="f23" font-size="10.80" style="fill:#000000"><tspan x="158.66" y="515.58" textLength="3.0"> </tspan></text><text class="f23" font-size="10.80" style="fill:#000000"><tspan x="168.54" y="515.58" textLength="306.27" dx="0,0.12,0.11,0.11,0.06,0.1,0.11,0.11,0.06,0.11,0.11,0.06,0.06,0.05,0.1,0.06,0.17,0.11,0.11,0.11,0.11,0.11,0.11,0.06,0.11,0.11,0.11,0.06,0.11,0.07,0.11,0.11,0.11,0.1,0.11,0.11,0.06,0.11,0.11,0.06,0.06,0.11,0.11,0.06,0.14,0.11,0.11,0.11,0.11,0.07,0.1,0.06,0.06,0.1,0.11,0.06,0.05,0.06,0.06,0.05,0.1">The content is managed and produced by the Dodgers, so it is </tspan></text><text class="f23" font-size="10.80" style="fill:#000000"><tspan x="168.54" y="528.30" textLength="45.2" dx="0,0.11,0.1,0.1,0.11,0.07,0.11,0.05,0.11">accurate.</tspan></text><text class="f23" font-size="10.80" style="fill:#000000"><tspan x="213.78" y="528.30" textLength="3.0"> </tspan></text><text class="f23" font-size="10.80" style="fill:#000000"><tspan x="509.82" y="515.58" textLength="21.88" dx="0,0.13,0.13">YES</tspan></text><text class="f23" font-size="10.80" style="fill:#000000"><tspan x="531.83" y="515.58" textLength="3.0"> </tspan></text><path d="M71.82 499.5 l0.96 0 l0 6 l-0.96 0 l0 -6 z "  style="fill:#000000;"/><path d="M72.78 499.5 l90.48 0 l0 0.96 l-90.48 0 l0 -0.96 z "  style="fill:#000000;"/><path d="M163.26 499.5 l0.96 0 l0 6 l-0.96 0 l0 -6 z "  style="fill:#000000;"/><path d="M164.22 499.5 l340.08 0 l0 0.96 l-340.08 0 l0 -0.96 z "  style="fill:#000000;"/><path d="M504.3 499.5 l0.96 0 l0 6 l-0.96 0 l0 -6 z "  style="fill:#000000;"/><path d="M505.26 499.5 l44.64 0 l0 0.96 l-44.64 0 l0 -0.96 z "  style="fill:#000000;"/><path d="M549.9 499.5 l0.96 0 l0 6 l-0.96 0 l0 -6 z "  style="fill:#000000;"/><path d="M71.82 505.5 l0.96 0 l0 30.24 l-0.96 0 l0 -30.24 z "  style="fill:#000000;"/><path d="M163.26 505.5 l0.96 0 l0 30.24 l-0.96 0 l0 -30.24 z "  style="fill:#000000;"/><path d="M504.3 505.5 l0.96 0 l0 30.24 l-0.96 0 l0 -30.24 z "  style="fill:#000000;"/><path d="M549.9 505.5 l0.96 0 l0 30.24 l-0.96 0 l0 -30.24 z "  style="fill:#000000;"/><text class="f23" font-size="10.80" style="fill:#000000"><tspan x="77.34" y="551.82" textLength="78.76" dx="0,0.15,0.11,0.17,0.17,0.11,0.11,0.05,0.13,0.11,0.11,0.1">Common Sense</tspan></text><text class="f23" font-size="10.80" style="fill:#000000"><tspan x="156.22" y="551.82" textLength="3.0"> </tspan></text><text class="f23" font-size="10.80" style="fill:#000000"><tspan x="168.54" y="551.82" textLength="222.45" dx="0,0.15,0.11,0.05,0.07,0.11,0.11,0.05,0.05,0.05,0.11,0.11,0.1,0.05,0.05,0.11,0.1,0.11,0.07,0.1,0.05,0.11,0.05,0.11,0.11,0.05,0.11,0.11,0.11,0.11,0.11,0.07,0.1,0.05,0.05,0.11,0.05,0.11,0.11,0.05,0.11,0.1,0.1,0.11,0.07">No red flags, everything appears to be accura</tspan></text><text class="f23" font-size="10.80" style="fill:#000000"><tspan x="391.12" y="551.82" textLength="69.02" dx="0,0.05,0.12,0.05,0.12,0.12,0.12,0.05,0.06,0.12,0.04,0.04,0.12,0.12,0.04">te and reliable</tspan></text><text class="f23" font-size="10.80" style="fill:#000000"><tspan x="460.23" y="551.82" textLength="3.0"> </tspan></text><text class="f23" font-size="10.80" style="fill:#000000"><tspan x="509.82" y="551.82" textLength="21.88" dx="0,0.13,0.13">YES</tspan></text><text class="f23" font-size="10.80" style="fill:#000000"><tspan x="531.83" y="551.82" textLength="3.0"> </tspan></text><path d="M71.82 535.74 l0.96 0 l0 6 l-0.96 0 l0 -6 z "  style="fill:#000000;"/><path d="M72.78 535.74 l90.48 0 l0 0.96 l-90.48 0 l0 -0.96 z "  style="fill:#000000;"/><path d="M163.26 535.74 l0.96 0 l0 6 l-0.96 0 l0 -6 z "  style="fill:#000000;"/><path d="M164.22 535.74 l340.08 0 l0 0.96 l-340.08 0 l0 -0.96 z "  style="fill:#000000;"/><path d="M504.3 535.74 l0.96 0 l0 6 l-0.96 0 l0 -6 z "  style="fill:#000000;"/><path d="M505.26 535.74 l44.64 0 l0 0.96 l-44.64 0 l0 -0.96 z "  style="fill:#000000;"/><path d="M549.9 535.74 l0.96 0 l0 6 l-0.96 0 l0 -6 z "  style="fill:#000000;"/><path d="M71.82 541.74 l0.96 0 l0 17.76 l-0.96 0 l0 -17.76 z "  style="fill:#000000;"/><path d="M71.82 559.5 l0.96 0 l0 0.96 l-0.96 0 l0 -0.96 z "  style="fill:#000000;"/><path d="M71.82 559.5 l0.96 0 l0 0.96 l-0.96 0 l0 -0.96 z "  style="fill:#000000;"/><path d="M72.78 559.5 l90.48 0 l0 0.96 l-90.48 0 l0 -0.96 z "  style="fill:#000000;"/><path d="M163.26 541.74 l0.96 0 l0 17.76 l-0.96 0 l0 -17.76 z "  style="fill:#000000;"/><path d="M163.26 559.5 l0.96 0 l0 0.96 l-0.96 0 l0 -0.96 z "  style="fill:#000000;"/><path d="M164.22 559.5 l340.08 0 l0 0.96 l-340.08 0 l0 -0.96 z "  style="fill:#000000;"/><path d="M504.3 541.74 l0.96 0 l0 17.76 l-0.96 0 l0 -17.76 z "  style="fill:#000000;"/><path d="M504.3 559.5 l0.96 0 l0 0.96 l-0.96 0 l0 -0.96 z "  style="fill:#000000;"/><path d="M505.26 559.5 l44.64 0 l0 0.96 l-44.64 0 l0 -0.96 z "  style="fill:#000000;"/><path d="M549.9 541.74 l0.96 0 l0 17.76 l-0.96 0 l0 -17.76 z "  style="fill:#000000;"/><path d="M549.9 559.5 l0.96 0 l0 0.96 l-0.96 0 l0 -0.96 z "  style="fill:#000000;"/><path d="M549.9 559.5 l0.96 0 l0 0.96 l-0.96 0 l0 -0.96 z "  style="fill:#000000;"/><text class="f23" font-size="10.80" style="fill:#000000"><tspan x="72.30" y="570.54" textLength="3.0"> </tspan></text><text class="f31" font-size="18.00" style="fill:#000000"><tspan x="87.75" y="589.98" textLength="437.1" dx="0,0,0,0,0,0,0,0,0,0,0,0,0,0,0,0,0,0,0,0,0,0,0,-0.01,0,0.01,0,0,0,0,0,0,0,0,0,0,0,0.01,0,0,0,0,0,0,0,0,0,0,0,0,0,0">Statistics in Baseball: What are they talking about?</tspan></text><text class="f31" font-size="18.00" style="fill:#000000"><tspan x="524.85" y="589.98" textLength="5.0"> </tspan></text><path d="M87.66 592.38 l437.04 0 l0 0.24 l-437.04 0 l0 -0.24 z "  style="fill:#000000;"/><text class="f31" font-size="18.00" style="fill:#000000"><tspan x="306.30" y="610.62" textLength="5.0"> </tspan></text><text class="f31" font-size="18.00" style="fill:#000000"><tspan x="88.75" y="631.26" textLength="435.1">Practice Communicating Statistics in Plain English</tspan></text><text class="f31" font-size="18.00" style="fill:#000000"><tspan x="523.85" y="631.26" textLength="5.0"> </tspan></text><text class="f31" font-size="18.00" style="fill:#000000"><tspan x="306.30" y="651.90" textLength="5.0"> </tspan></text><text class="f23" font-size="12.00" style="fill:#000000"><tspan x="81.18" y="667.02" textLength="283.52" dx="0,0,0,0.01,0,0,0,0,0,0,0,0,0,0,0,0,0,0,0,0.01,0,0,0,0,0,0,0,0,0,0,0,0,0,0,0,0,0,0,0,0,0,0,0,0,0,0,0,0,0.01,0,0,0,0,0,0">Given the data provided, fill in the blank column. Use </tspan></text><text class="f23" font-size="12.00" style="fill:#1155cc"><tspan x="364.69" y="667.02" textLength="26.0">www</tspan></text><text class="f23" font-size="12.00" style="fill:#1155cc"><tspan x="390.69" y="667.02" textLength="3.34">.</tspan></text><text class="f23" font-size="12.00" style="fill:#1155cc"><tspan x="394.02" y="667.02" textLength="19.34" dx="0,0.01,0.01">mlb</tspan></text><text class="f23" font-size="12.00" style="fill:#1155cc"><tspan x="413.36" y="667.02" textLength="3.34">.</tspan></text><text class="f23" font-size="12.00" style="fill:#1155cc"><tspan x="416.70" y="667.02" textLength="22.67">com</tspan></text><text class="f23" font-size="12.00" style="fill:#000000"><tspan x="439.37" y="667.02" textLength="3.34"> </tspan></text><text class="f23" font-size="12.00" style="fill:#000000"><tspan x="442.71" y="667.02" textLength="92.05">to research what </tspan></text><path d="M364.62 668.7 l74.64 0 l0 0.24 l-74.64 0 l0 -0.24 z "  style="fill:#1155cc;"/><text class="f23" font-size="12.00" style="fill:#000000"><tspan x="92.17" y="680.70" textLength="431.61" dx="0,0.01,0,0,0,0,0,0,0,0,0,0,0,0,0,0,0,0,0,0,0.01,0,0,0,0,0,0,0,0,0,0,0,0,0,0,0,0,0.01,0,0,0,0,0,0,0,0,0,0,0,0,0,0,0,0,0,0,0,0,0,0,0,0,0,0,0.01,0,0,0,0,0,0,0,0,0,0,0,0,0,0,0,0,0">various statistics mean, and how they are caulculated. Also, pay attention to how </tspan></text><text class="f23" font-size="12.00" style="fill:#000000"><tspan x="91.87" y="694.62" textLength="275.47" dx="0,0,0,0,0,0,0,0,0,0,0,0,0,0,0,0,0,0,0,0,0,0,0,0,0,0,0,0,0,0,0.01,0,0.01,0,0,0,0,0,0,0,0,0,0,0,0,0,0,0,0,0,0,0,0">statistics are written. For example, percentages are </tspan></text><text class="f23" font-size="12.00" style="fill:#000000"><tspan x="367.33" y="694.62" textLength="153.41" dx="0,0,0,0,0,0,0,0,0,0,0,0,0,0,0,0,0,0,0,0,0,0,0.01,0,0,0,0,0,0,0.01">often written in decimal form.</tspan></text><text class="f23" font-size="12.00" style="fill:#000000"><tspan x="520.73" y="694.62" textLength="3.34"> </tspan></text><text class="f23" font-size="18.00" style="fill:#000000"><tspan x="306.30" y="714.06" textLength="5.0"> </tspan></text>
</svg>
