<svg class="crocodoc-nlgAE7 crocodoc-page-svg" version="1.1"
    xmlns="http://www.w3.org/2000/svg"
    xmlns:xlink="http://www.w3.org/1999/xlink"
    xmlns:xhtml="http://www.w3.org/1999/xhtml"
    xml:space="preserve" width="612.0pt" height="792.0pt" viewBox="0 0 612.0 792.0">
<xhtml:link href="stylesheet.css" type="text/css" rel="stylesheet" />
<style>
.crocodoc-nlgAE7 tspan { white-space:pre; direction:ltr; unicode-bidi:bidi-override; }
.crocodoc-nlgAE7 path { fill:transparent; }
.crocodoc-nlgAE7 [mbm="1"] { opacity:0; }
.crocodoc-nlgAE7 [mbm="2"] { opacity:0.3; }
.crocodoc-nlgAE7 [mbm="3"] { opacity:0.5; }
@supports (mix-blend-mode: multiply) {
.crocodoc-nlgAE7 [mbm] { opacity:1; }
}

</style>
<defs>

</defs>
<text class="f31" font-size="12.00" style="fill:#000000"><tspan x="77.34" y="89.34" textLength="46.68">Statistic</tspan></text><text class="f23" font-size="10.80" style="fill:#000000"><tspan x="124.02" y="89.34" textLength="3.0"> </tspan></text><path d="M77.34 91.02 l46.8 0 l0 0.24 l-46.8 0 l0 -0.24 z "  style="fill:#000000;"/><text class="f31" font-size="12.00" style="fill:#000000"><tspan x="206.70" y="89.34" textLength="66.01">Description</tspan></text><text class="f23" font-size="10.80" style="fill:#000000"><tspan x="272.71" y="89.34" textLength="3.0"> </tspan></text><path d="M206.7 91.02 l66 0 l0 0.24 l-66 0 l0 -0.24 z "  style="fill:#000000;"/><path d="M71.82 72.3 l0.96 0 l0 6 l-0.96 0 l0 -6 z "  style="fill:#000000;"/><path d="M71.82 72.3 l0.96 0 l0 0.96 l-0.96 0 l0 -0.96 z "  style="fill:#000000;"/><path d="M72.78 72.3 l128.4 0 l0 0.96 l-128.4 0 l0 -0.96 z "  style="fill:#000000;"/><path d="M201.18 73.26 l0.96 0 l0 5.04 l-0.96 0 l0 -5.04 z "  style="fill:#000000;"/><path d="M201.18 72.3 l0.96 0 l0 0.96 l-0.96 0 l0 -0.96 z "  style="fill:#000000;"/><path d="M202.14 72.3 l347.76 0 l0 0.96 l-347.76 0 l0 -0.96 z "  style="fill:#000000;"/><path d="M549.9 72.3 l0.96 0 l0 6 l-0.96 0 l0 -6 z "  style="fill:#000000;"/><path d="M549.9 72.3 l0.96 0 l0 0.96 l-0.96 0 l0 -0.96 z "  style="fill:#000000;"/><path d="M71.82 78.3 l0.96 0 l0 18.72 l-0.96 0 l0 -18.72 z "  style="fill:#000000;"/><path d="M201.18 78.3 l0.96 0 l0 18.72 l-0.96 0 l0 -18.72 z "  style="fill:#000000;"/><path d="M549.9 78.3 l0.96 0 l0 18.72 l-0.96 0 l0 -18.72 z "  style="fill:#000000;"/><text class="f31" font-size="12.00" style="fill:#000000"><tspan x="112.38" y="114.06" textLength="49.37">Baseball</tspan></text><text class="f23" font-size="10.80" style="fill:#000000"><tspan x="161.74" y="114.06" textLength="3.0"> </tspan></text><path d="M112.38 115.74 l49.44 0 l0 0.24 l-49.44 0 l0 -0.24 z "  style="fill:#000000;"/><text class="f23" font-size="10.80" style="fill:#000000"><tspan x="206.70" y="113.10" textLength="3.0"> </tspan></text><path d="M71.82 97.02 l0.96 0 l0 6 l-0.96 0 l0 -6 z "  style="fill:#000000;"/><path d="M72.78 97.02 l128.4 0 l0 0.96 l-128.4 0 l0 -0.96 z "  style="fill:#000000;"/><path d="M201.18 97.02 l0.96 0 l0 6 l-0.96 0 l0 -6 z "  style="fill:#000000;"/><path d="M202.14 97.02 l347.76 0 l0 0.96 l-347.76 0 l0 -0.96 z "  style="fill:#000000;"/><path d="M549.9 97.02 l0.96 0 l0 6 l-0.96 0 l0 -6 z "  style="fill:#000000;"/><path d="M71.82 103.02 l0.96 0 l0 18.96 l-0.96 0 l0 -18.96 z "  style="fill:#000000;"/><path d="M201.18 103.02 l0.96 0 l0 18.96 l-0.96 0 l0 -18.96 z "  style="fill:#000000;"/><path d="M549.9 103.02 l0.96 0 l0 18.96 l-0.96 0 l0 -18.96 z "  style="fill:#000000;"/><text class="f23" font-size="12.00" style="fill:#000000"><tspan x="77.34" y="139.02" textLength="109.43" dx="0,0,0,0,0,0,0,0,0,0,0,0,0,0,0,0.01,0,0,0,0">.214 batting average</tspan></text><text class="f23" font-size="10.80" style="fill:#000000"><tspan x="186.76" y="139.02" textLength="3.0"> </tspan></text><text class="f23" font-size="10.80" style="fill:#000000"><tspan x="206.70" y="138.06" textLength="3.0"> </tspan></text><path d="M71.82 121.98 l0.96 0 l0 6 l-0.96 0 l0 -6 z "  style="fill:#000000;"/><path d="M72.78 121.98 l128.4 0 l0 0.96 l-128.4 0 l0 -0.96 z "  style="fill:#000000;"/><path d="M201.18 121.98 l0.96 0 l0 6 l-0.96 0 l0 -6 z "  style="fill:#000000;"/><path d="M202.14 121.98 l347.76 0 l0 0.96 l-347.76 0 l0 -0.96 z "  style="fill:#000000;"/><path d="M549.9 121.98 l0.96 0 l0 6 l-0.96 0 l0 -6 z "  style="fill:#000000;"/><path d="M71.82 127.98 l0.96 0 l0 18.72 l-0.96 0 l0 -18.72 z "  style="fill:#000000;"/><path d="M201.18 127.98 l0.96 0 l0 18.72 l-0.96 0 l0 -18.72 z "  style="fill:#000000;"/><path d="M549.9 127.98 l0.96 0 l0 18.72 l-0.96 0 l0 -18.72 z "  style="fill:#000000;"/><text class="f23" font-size="12.00" style="fill:#000000"><tspan x="77.34" y="163.74" textLength="68.01">.995 fielding </tspan></text><text class="f23" font-size="12.00" style="fill:#000000"><tspan x="77.34" y="177.42" textLength="60.05">percentage</tspan></text><text class="f23" font-size="10.80" style="fill:#000000"><tspan x="137.39" y="177.42" textLength="3.0"> </tspan></text><text class="f23" font-size="10.80" style="fill:#000000"><tspan x="206.70" y="162.78" textLength="3.0"> </tspan></text><path d="M71.82 146.7 l0.96 0 l0 6 l-0.96 0 l0 -6 z "  style="fill:#000000;"/><path d="M72.78 146.7 l128.4 0 l0 0.96 l-128.4 0 l0 -0.96 z "  style="fill:#000000;"/><path d="M201.18 146.7 l0.96 0 l0 6 l-0.96 0 l0 -6 z "  style="fill:#000000;"/><path d="M202.14 146.7 l347.76 0 l0 0.96 l-347.76 0 l0 -0.96 z "  style="fill:#000000;"/><path d="M549.9 146.7 l0.96 0 l0 6 l-0.96 0 l0 -6 z "  style="fill:#000000;"/><path d="M71.82 152.7 l0.96 0 l0 32.64 l-0.96 0 l0 -32.64 z "  style="fill:#000000;"/><path d="M201.18 152.7 l0.96 0 l0 32.64 l-0.96 0 l0 -32.64 z "  style="fill:#000000;"/><path d="M549.9 152.7 l0.96 0 l0 32.64 l-0.96 0 l0 -32.64 z "  style="fill:#000000;"/><text class="f23" font-size="12.00" style="fill:#000000"><tspan x="77.34" y="202.38" textLength="74.73">.425 slugging </tspan></text><text class="f23" font-size="12.00" style="fill:#000000"><tspan x="77.34" y="216.06" textLength="60.05">percentage</tspan></text><text class="f23" font-size="10.80" style="fill:#000000"><tspan x="137.39" y="216.06" textLength="3.0"> </tspan></text><text class="f23" font-size="10.80" style="fill:#000000"><tspan x="206.70" y="201.42" textLength="3.0"> </tspan></text><path d="M71.82 185.34 l0.96 0 l0 6 l-0.96 0 l0 -6 z "  style="fill:#000000;"/><path d="M72.78 185.34 l128.4 0 l0 0.96 l-128.4 0 l0 -0.96 z "  style="fill:#000000;"/><path d="M201.18 185.34 l0.96 0 l0 6 l-0.96 0 l0 -6 z "  style="fill:#000000;"/><path d="M202.14 185.34 l347.76 0 l0 0.96 l-347.76 0 l0 -0.96 z "  style="fill:#000000;"/><path d="M549.9 185.34 l0.96 0 l0 6 l-0.96 0 l0 -6 z "  style="fill:#000000;"/><path d="M71.82 191.34 l0.96 0 l0 32.64 l-0.96 0 l0 -32.64 z "  style="fill:#000000;"/><path d="M201.18 191.34 l0.96 0 l0 32.64 l-0.96 0 l0 -32.64 z "  style="fill:#000000;"/><path d="M549.9 191.34 l0.96 0 l0 32.64 l-0.96 0 l0 -32.64 z "  style="fill:#000000;"/><text class="f23" font-size="12.00" style="fill:#000000"><tspan x="77.34" y="241.02" textLength="51.36">2.35 ERA</tspan></text><text class="f23" font-size="10.80" style="fill:#000000"><tspan x="128.70" y="241.02" textLength="3.0"> </tspan></text><text class="f23" font-size="10.80" style="fill:#000000"><tspan x="206.70" y="240.06" textLength="3.0"> </tspan></text><path d="M71.82 223.98 l0.96 0 l0 6 l-0.96 0 l0 -6 z "  style="fill:#000000;"/><path d="M72.78 223.98 l128.4 0 l0 0.96 l-128.4 0 l0 -0.96 z "  style="fill:#000000;"/><path d="M201.18 223.98 l0.96 0 l0 6 l-0.96 0 l0 -6 z "  style="fill:#000000;"/><path d="M202.14 223.98 l347.76 0 l0 0.96 l-347.76 0 l0 -0.96 z "  style="fill:#000000;"/><path d="M549.9 223.98 l0.96 0 l0 6 l-0.96 0 l0 -6 z "  style="fill:#000000;"/><path d="M71.82 229.98 l0.96 0 l0 18.72 l-0.96 0 l0 -18.72 z "  style="fill:#000000;"/><path d="M201.18 229.98 l0.96 0 l0 18.72 l-0.96 0 l0 -18.72 z "  style="fill:#000000;"/><path d="M549.9 229.98 l0.96 0 l0 18.72 l-0.96 0 l0 -18.72 z "  style="fill:#000000;"/><text class="f23" font-size="10.80" style="fill:#000000"><tspan x="77.34" y="264.78" textLength="3.0"> </tspan></text><text class="f23" font-size="12.00" style="fill:#000000"><tspan x="206.70" y="265.74" textLength="215.47" dx="0,0,0,0,0,0,0,0,0.01,0,0,0,0,0,0,0,0,0,0,0,0,0,0,0,0,0,0,0,0,0,0,0,0,0,0,0.01,0">The team has won 54.7% of their games</tspan></text><text class="f23" font-size="10.80" style="fill:#000000"><tspan x="422.16" y="265.74" textLength="3.0"> </tspan></text><path d="M71.82 248.7 l0.96 0 l0 6 l-0.96 0 l0 -6 z "  style="fill:#000000;"/><path d="M72.78 248.7 l128.4 0 l0 0.96 l-128.4 0 l0 -0.96 z "  style="fill:#000000;"/><path d="M201.18 248.7 l0.96 0 l0 6 l-0.96 0 l0 -6 z "  style="fill:#000000;"/><path d="M202.14 248.7 l347.76 0 l0 0.96 l-347.76 0 l0 -0.96 z "  style="fill:#000000;"/><path d="M549.9 248.7 l0.96 0 l0 6 l-0.96 0 l0 -6 z "  style="fill:#000000;"/><path d="M71.82 254.7 l0.96 0 l0 18.72 l-0.96 0 l0 -18.72 z "  style="fill:#000000;"/><path d="M201.18 254.7 l0.96 0 l0 18.72 l-0.96 0 l0 -18.72 z "  style="fill:#000000;"/><path d="M549.9 254.7 l0.96 0 l0 18.72 l-0.96 0 l0 -18.72 z "  style="fill:#000000;"/><text class="f23" font-size="10.80" style="fill:#000000"><tspan x="77.34" y="289.50" textLength="3.0"> </tspan></text><text class="f23" font-size="12.00" style="fill:#000000"><tspan x="206.70" y="290.46" textLength="268.19" dx="0,0,0,0,0,0,0,0,0.01,0,0,0,0,0,0,0,0,0,0,0,0,0,0,0,0,0,0,0,0,0,0,0,0,0,0,0,0,0,0,0,0,0,0,0,0,0,0,0,0,0,0">The player has hit 54 ground outs, and 36 air outs.</tspan></text><text class="f23" font-size="10.80" style="fill:#000000"><tspan x="474.88" y="290.46" textLength="3.0"> </tspan></text><path d="M71.82 273.42 l0.96 0 l0 6 l-0.96 0 l0 -6 z "  style="fill:#000000;"/><path d="M72.78 273.42 l128.4 0 l0 0.96 l-128.4 0 l0 -0.96 z "  style="fill:#000000;"/><path d="M201.18 273.42 l0.96 0 l0 6 l-0.96 0 l0 -6 z "  style="fill:#000000;"/><path d="M202.14 273.42 l347.76 0 l0 0.96 l-347.76 0 l0 -0.96 z "  style="fill:#000000;"/><path d="M549.9 273.42 l0.96 0 l0 6 l-0.96 0 l0 -6 z "  style="fill:#000000;"/><path d="M71.82 279.42 l0.96 0 l0 18.96 l-0.96 0 l0 -18.96 z "  style="fill:#000000;"/><path d="M201.18 279.42 l0.96 0 l0 18.96 l-0.96 0 l0 -18.96 z "  style="fill:#000000;"/><path d="M549.9 279.42 l0.96 0 l0 18.96 l-0.96 0 l0 -18.96 z "  style="fill:#000000;"/><text class="f23" font-size="10.80" style="fill:#000000"><tspan x="77.34" y="314.46" textLength="3.0"> </tspan></text><text class="f23" font-size="12.00" style="fill:#000000"><tspan x="206.70" y="315.42" textLength="40.01">The pla</tspan></text><text class="f23" font-size="12.00" style="fill:#000000"><tspan x="246.72" y="315.42" textLength="264.19" dx="0,0.01,0,0,0,0,0,0,0,0,0,0,0.01,0,0,0,0,0,0,0,0,0,0,0,0,0,0,0,0,0,0,0,0.01,0,0,0,0,0,0,0,0,0,0,0,0,0,0,0,0,0">yer has played in all but 10 games (there are 162 </tspan></text><text class="f23" font-size="12.00" style="fill:#000000"><tspan x="206.70" y="329.10" textLength="104.73" dx="0,0,0,0.01,0,0,0,0,0,0,0,0,0,0,0,0,0,0">games in a season)</tspan></text><text class="f23" font-size="10.80" style="fill:#000000"><tspan x="311.43" y="329.10" textLength="3.0"> </tspan></text><path d="M71.82 298.38 l0.96 0 l0 6 l-0.96 0 l0 -6 z "  style="fill:#000000;"/><path d="M72.78 298.38 l128.4 0 l0 0.96 l-128.4 0 l0 -0.96 z "  style="fill:#000000;"/><path d="M201.18 298.38 l0.96 0 l0 6 l-0.96 0 l0 -6 z "  style="fill:#000000;"/><path d="M202.14 298.38 l347.76 0 l0 0.96 l-347.76 0 l0 -0.96 z "  style="fill:#000000;"/><path d="M549.9 298.38 l0.96 0 l0 6 l-0.96 0 l0 -6 z "  style="fill:#000000;"/><path d="M71.82 304.38 l0.96 0 l0 32.64 l-0.96 0 l0 -32.64 z "  style="fill:#000000;"/><path d="M71.82 337.02 l0.96 0 l0 0.96 l-0.96 0 l0 -0.96 z "  style="fill:#000000;"/><path d="M71.82 337.02 l0.96 0 l0 0.96 l-0.96 0 l0 -0.96 z "  style="fill:#000000;"/><path d="M72.78 337.02 l128.4 0 l0 0.96 l-128.4 0 l0 -0.96 z "  style="fill:#000000;"/><path d="M201.18 304.38 l0.96 0 l0 32.64 l-0.96 0 l0 -32.64 z "  style="fill:#000000;"/><path d="M201.18 337.02 l0.96 0 l0 0.96 l-0.96 0 l0 -0.96 z "  style="fill:#000000;"/><path d="M202.14 337.02 l347.76 0 l0 0.96 l-347.76 0 l0 -0.96 z "  style="fill:#000000;"/><path d="M549.9 304.38 l0.96 0 l0 32.64 l-0.96 0 l0 -32.64 z "  style="fill:#000000;"/><path d="M549.9 337.02 l0.96 0 l0 0.96 l-0.96 0 l0 -0.96 z "  style="fill:#000000;"/><path d="M549.9 337.02 l0.96 0 l0 0.96 l-0.96 0 l0 -0.96 z "  style="fill:#000000;"/><text class="f23" font-size="10.80" style="fill:#000000"><tspan x="306.30" y="348.06" textLength="3.0"> </tspan></text>
</svg>
