<svg class="crocodoc-KQD13c crocodoc-page-svg" version="1.1"
    xmlns="http://www.w3.org/2000/svg"
    xmlns:xlink="http://www.w3.org/1999/xlink"
    xmlns:xhtml="http://www.w3.org/1999/xhtml"
    xml:space="preserve" width="612.0pt" height="792.0pt" viewBox="0 0 612.0 792.0">
<xhtml:link href="stylesheet.css" type="text/css" rel="stylesheet" />
<style>
.crocodoc-KQD13c tspan { white-space:pre; direction:ltr; unicode-bidi:bidi-override; }
.crocodoc-KQD13c path { fill:transparent; }
.crocodoc-KQD13c [mbm="1"] { opacity:0; }
.crocodoc-KQD13c [mbm="2"] { opacity:0.3; }
.crocodoc-KQD13c [mbm="3"] { opacity:0.5; }
@supports (mix-blend-mode: multiply) {
.crocodoc-KQD13c [mbm] { opacity:1; }
}

</style>
<defs>
<clipPath id="Clip_1_2_KQD13c_2"><path d="M0 792 l612 0 l0 -792 l-612 0 l0 792 " /></clipPath>
</defs>
<g clip-path="url(#Clip_1_2_KQD13c_2)" ><path d="M0 0 l612 0 l0 792 l-612 0 l0 -792 z "  style="fill:#ffffff;"/><path d="M0 -792 l612 0 l0 2376 l-612 0 l0 -2376 z "  style="fill:#ffffff;"/><path d="M0 0 l612 0 l0 792 l-612 0 l0 -792 z "  style="fill:#ffffff;"/><path d="M0 72 l612 0 l0 720 l-612 0 l0 -720 z "  style="fill:#ffffff;"/><text class="f17" font-size="11.25" style="fill:#000000"><tspan x="72.00" y="83.25" textLength="176.3" class="f19">Hypothesis/Research&#57368;Questions:</tspan>&#8203;<tspan x="72.00" y="98.25" textLength="448.63" dx="0,0,0,0,0,0,0,0,0,0,0,0,0,0,0,0,0,0,0,0,0,0,0,0,0,0,0,0,0,0,0,0,0,0,0,0,0,0,0,0,0,0,0,0,0,0,0,0,0,0,0,0,0,0,0,0,0,0,0,0,0,0,0,0,0,0,0,0,0,0,0,0,0,0,0,0,0,0,0,0,0,0,0,0,0,0,0,0,-0.37">Hypothesis:&#57445;Video&#57445;lectures&#57445;achieve&#57445;greater&#57445;student&#57445;learning&#57445;(comprehension)&#57445;than&#57445;written&#57445;</tspan>&#8203;<tspan x="72.00" y="113.25" textLength="42.52">lectures.</tspan>&#8203;<tspan x="72.00" y="143.25" textLength="464.38" dx="0,0,0,0,0,0,0,0,0,0,0,0,0,0,0,0,0,0,0,0,0,0,0,0,0,0,0,0,0,0,0,0,0,0,0,0,0,0,0,0,0,0,0,0,0,0,0,0,0,0,0,0,0,0,0,0,0,0,0,0,0,0,0,0,0,0,0,0,0,0,0,0,0,0,0,0,0,0,0,0,0,0,0,0,0,0,0,0,0,0,0,0,0,0,0.37">Null&#57445;Hypothesis:&#57445;Video&#57445;lectures&#57445;do&#57445;not&#57445;achieve&#57445;greater&#57445;student&#57445;learning&#57445;than&#57445;written&#57445;lectures.&#57445;</tspan>&#8203;<tspan x="72.00" y="173.25" textLength="479.38" dx="0,0,0,0,0,0,0,0,0,0,0,0,0,0,0,0,0,0,0,0,0,0,0,0,0,0,0,0,0,0,0,0,0,0,0,0,0,0,0,0,0,0,0,0,0,0,0,0,0,0,0,0,0,0,0,0,0,0,0,0,0,0,0,0,0,0,0,0,0,0,0,0,0,0,0,0,0,0,0,0,0,0,0,0,0,0,0,0,0,0,0,0,0,0,0,0.11">Research&#57445;Question&#57445;1:&#57445;Is&#57445;a&#57445;video&#57445;lecture&#57445;more&#57445;effective&#57445;in&#57445;terms&#57445;of&#57445;a&#57445;student&#39;s&#57445;comprehension&#57445;of&#57445;</tspan>&#8203;<tspan x="72.00" y="188.25" textLength="169.48">the&#57445;content&#57445;than&#57445;a&#57445;written&#57445;lecture?</tspan>&#8203;<tspan x="72.00" y="218.25" textLength="126.88" class="f19">Methodology&#57368;&#57369;&#57368;Subjects</tspan>&#8203;<tspan x="72.00" y="233.25" textLength="461.38" dx="0,0,0,0,0,0,0,0,0,0,0,0,0,0,0,0,0,0,0,0,0,0,0,0,0,0,0,0,0,0,0,0,0,0,0,0,0,0,0,0,0,0,0,0,0,0,0,0,0,0,0,0,0,0,0,0,0,0,0,0,0,0,0,0,0,0,0,0,0,0,0,0,0,0,0,0,0,0,0,0,0,0,0,0,0,0,0,0,0,0,0,-0.09">The&#57445;subjects&#57445;of&#57445;this&#57445;study&#57445;are&#57445;students&#57445;who&#57445;are&#57445;able&#57445;to&#57445;take&#57445;MOOCs.&#57445;Therefore,&#57445;the&#57445;study&#57445;is&#57445;</tspan>&#8203;<tspan x="72.00" y="248.25" textLength="453.13" dx="0,0,0,0,0,0,0,0,0,0,0,0,0,0,0,0,0,0,0,0,0,0,0,0,0,0,0,0,0,0,0,0,0,0,0,0,0,0,0,0,0,0,0,0,0,0,0,0,0,0,0,0,0,0,0,0,0,0,0,0,0,0,0,0,0,0,0,0,0,0,0,0,0,0,0,0,0,0,0,0,0,0,0,0,0,0,0,0,0,0,-0.29">open&#57445;to&#57445;anyone&#57445;over&#57445;the&#57445;age&#57445;of&#57445;18&#57445;who&#57445;has&#57445;Internet&#57445;access.&#57445;The&#57445;target&#57445;is&#57445;100&#57445;participants.&#57445;</tspan>&#8203;<tspan x="72.00" y="263.25" textLength="449.6">Participants&#57445;will&#57445;be&#57445;solicited&#57445;via&#57445;social&#57445;media,&#57445;and&#57445;other&#57445;means&#57445;in&#57445;order&#57445;to&#57445;reach&#57445;the&#57445;target.</tspan>&#8203;<tspan x="72.00" y="293.25" textLength="164.99" class="f19">Methodology&#57368;&#57369;&#57368;Instrumentation</tspan>&#8203;<tspan x="72.00" y="308.25" textLength="467.38" dx="0,0,0,0,0,0,0,0,0,0,0,0,0,0,0,0,0,0,0,0,0,0,0,0,0,0,0,0,0,0,0,0,0,0,0,0,0,0,0,0,0,0,0,0,0,0,0,0,0,0,0,0,0,0,0,0,0,0,0,0,0,0,0,0,0,0,0,0,0,0,0,0,0,0,0,0,0,0,0,0,0,0,0,0,0,0,0,0,0,0,0,0,0,0,0,0,0,-0.35">Data&#57445;for&#57445;this&#57445;study&#57445;will&#57445;be&#57445;collected&#57445;using&#57445;four&#57445;different&#57445;Google&#57445;Forms.&#57445;Each&#57445;participant&#57445;will&#57445;be&#57445;</tspan>&#8203;<tspan x="72.00" y="323.25" textLength="474.88" dx="0,0,0,0,0,0,0,0,0,0,0,0,0,0,0,0,0,0,0,0,0,0,0,0,0,0,0,0,0,0,0,0,0,0,0,0,0,0,0,0,0,0,0,0,0,0,0,0,0,0,0,0,0,0,0,0,0,0,0,0,0,0,0,0,0,0,0,0,0,0,0,0,0,0,0,0,0,0,0,0,0,0,0,0,0,0,0,0,0,0,0,0,0,0.23">assigned&#57445;a&#57445;form&#57445;randomly&#57445;using&#57445;a&#57445;web&#57445;application.&#57445;The&#57445;participants&#57445;are&#57445;unaware&#57445;that&#57445;there&#57445;are&#57445;</tspan>&#8203;<tspan x="72.00" y="338.25" textLength="458.38" dx="0,0,0,0,0,0,0,0,0,0,0,0,0,0,0,0,0,0,0,0,0,0,0,0,0,0,0,0,0,0,0,0,0,0,0,0,0,0,0,0,0,0,0,0,0,0,0,0,0,0,0,0,0,0,0,0,0,0,0,0,0,0,0,0,0,0,0,0,0,0,0,0,0,0,0,0,0,0,0,0,0,0,0,0,0,0,0,0,0,0.03">multiple&#57445;forms&#57445;available&#57445;to&#57445;them.&#57445;Each&#57445;Google&#57445;Form&#57445;presents&#57445;the&#57445;same&#57445;exact&#57445;content&#57445;but&#57445;in&#57445;</tspan>&#8203;<tspan x="72.00" y="353.25" textLength="460.63" dx="0,0,0,0,0,0,0,0,0,0,0,0,0,0,0,0,0,0,0,0,0,0,0,0,0,0,0,0,0,0,0,0,0,0,0,0,0,0,0,0,0,0,0,0,0,0,0,0,0,0,0,0,0,0,0,0,0,0,0,0,0,0,0,0,0,0,0,0,0,0,0,0,0,0,0,0,0,0,0,0,0,0,0,0,0,0,0,0,0,0,0,0,-0.25">different&#57445;orders,&#57445;and&#57445;using&#57445;different&#57445;media.&#57445;The&#57445;following&#57445;describes&#57445;the&#57445;order&#57445;and&#57445;medium&#57445;of&#57445;</tspan>&#8203;<tspan x="72.00" y="368.25" textLength="100.69">content&#57445;in&#57445;each&#57445;test:</tspan>&#8203;<tspan x="72.00" y="398.25" textLength="225.75">Test&#57445;1a:&#57445;Text&#57445;of&#57445;Lecture&#57445;1,&#57445;Video&#57445;of&#57445;Lecture&#57445;2</tspan>&#8203;<tspan x="72.00" y="413.25" textLength="225.75">Test&#57445;1b:&#57445;Text&#57445;of&#57445;Lecture&#57445;2,&#57445;Video&#57445;of&#57445;Lecture&#57445;1</tspan>&#8203;<tspan x="72.00" y="428.25" textLength="225.75">Test&#57445;2a:&#57445;Video&#57445;of&#57445;Lecture&#57445;1,&#57445;Text&#57445;of&#57445;Lecture&#57445;2</tspan>&#8203;<tspan x="72.00" y="443.25" textLength="225.75">Test&#57445;2b:&#57445;Video&#57445;of&#57445;Lecture&#57445;2,&#57445;Text&#57445;of&#57445;Lecture&#57445;1</tspan>&#8203;<tspan x="72.00" y="473.25" textLength="474.88" dx="0,0,0,0,0,0,0,0,0,0,0,0,0,0,0,0,0,0,0,0,0,0,0,0,0,0,0,0,0,0,0,0,0,0,0,0,0,0,0,0,0,0,0,0,0,0,0,0,0,0,0,0,0,0,0,0,0,0,0,0,0,0,0,0,0,0,0,0,0,0,0,0,0,0,0,0,0,0,0,0,0,0,0,0,0,0,0,0,0,0,0,0,0,0,0,-0.36">This&#57445;format&#57445;will&#57445;allow&#57445;the&#57445;study&#57445;to&#57445;eliminate&#57445;any&#57445;discrepancy&#57445;between&#57445;the&#57445;ability&#57445;to&#57445;comprehend&#57445;</tspan>&#8203;<tspan x="72.00" y="488.25" textLength="351.44">different&#57445;content&#57445;by&#57445;presenting&#57445;the&#57445;same&#57445;content&#57445;in&#57445;two&#57445;different&#57445;forms.</tspan>&#8203;<tspan x="72.00" y="518.25" textLength="141.89" class="f19">Methodology&#57368;&#57369;&#57368;Procedures</tspan>&#8203;<tspan x="72.00" y="533.25" textLength="438.13" dx="0,0,0,0,0,0,0,0,0,0,0,0,0,0,0,0,0,0,0,0,0,0,0,0,0,0,0,0,0,0,0,0,0,0,0,0,0,0,0,0,0,0,0,0,0,0,0,0,0,0,0,0,0,0,0,0,0,0,0,0,0,0,0,0,0,0,0,0,0,0,0,0,0,0,0,0,0,0,0,0,0,0,0,0,0,0,0,0,0,0,0,0,0,-0.23">The&#57445;period&#57445;of&#57445;research&#57445;will&#57445;open&#57445;with&#57445;an&#57445;invitation&#57445;to&#57445;eligible&#57445;participants&#57445;to&#57445;visit&#57445;the&#57445;web&#57445;</tspan>&#8203;<tspan x="72.00" y="548.25" textLength="438.88" dx="0,0,0,0,0,0,0,0,0,0,0,0,0,0,0,0,0,0,0,0,0,0,0,0,0,0,0,0,0,0,0,0,0,0,0,0,0,0,0,0,0,0,0,0,0,0,0,0,0,0,0,0,0,0,0,0,0,0,0,0,0,0,0,0,0,0,0,0,0,0,0,0,0,0,0,0,0,0,0,0,0,0,0,0,0,0,0,0,0,0,0,0,0,-0.09">application&#57445;and&#57445;click&#57445;the&#57445;link.&#57445;Once&#57445;the&#57445;participant&#57445;clicks&#57445;the&#57445;link,&#57445;he/she&#57445;is&#57445;automatically&#57445;</tspan>&#8203;<tspan x="72.00" y="563.25" textLength="472.63" dx="0,0,0,0,0,0,0,0,0,0,0,0,0,0,0,0,0,0,0,0,0,0,0,0,0,0,0,0,0,0,0,0,0,0,0,0,0,0,0,0,0,0,0,0,0,0,0,0,0,0,0,0,0,0,0,0,0,0,0,0,0,0,0,0,0,0,0,0,0,0,0,0,0,0,0,0,0,0,0,0,0,0,0,0,0,0,0,0,0,0,0,0,0,0,0,-0.13">assigned&#57445;to&#57445;a&#57445;form,&#57445;and&#57445;thus&#57445;a&#57445;cohort.&#57445;Once&#57445;assigned&#57445;a&#57445;cohort,&#57445;the&#57445;participant&#57445;follows&#57445;the&#57445;form&#57445;</tspan>&#8203;<tspan x="72.00" y="578.25" textLength="435.13" dx="0,0,0,0,0,0,0,0,0,0,0,0,0,0,0,0,0,0,0,0,0,0,0,0,0,0,0,0,0,0,0,0,0,0,0,0,0,0,0,0,0,0,0,0,0,0,0,0,0,0,0,0,0,0,0,0,0,0,0,0,0,0,0,0,0,0,0,0,0,0,0,0,0,0,0,0,0,0,0,0,0,0,0,0,0,0,0,0,-0.1">until&#57445;completion.&#57445;Below&#57445;is&#57445;a&#57445;chart&#57445;that&#57445;describes&#57445;the&#57445;sequence&#57445;in&#57445;which&#57445;each&#57445;cohort&#57445;will&#57445;</tspan>&#8203;<tspan x="72.00" y="593.25" textLength="102.55">experience&#57445;the&#57445;form:</tspan></text><path d="M447.75 675 l93 0 l0 0.75 l-93 0 l0 -0.75 z "  style="fill:#000000;"/><path d="M447.75 713.25 l93 0 l0 0.75 l-93 0 l0 -0.75 z "  style="fill:#000000;"/><path d="M447.75 675 l0.75 0 l0 39 l-0.75 0 l0 -39 z "  style="fill:#000000;"/><path d="M540 675 l0.75 0 l0 39 l-0.75 0 l0 -39 z "  style="fill:#000000;"/><path d="M366 675 l82.5 0 l0 0.75 l-82.5 0 l0 -0.75 z "  style="fill:#000000;"/><path d="M366 713.25 l82.5 0 l0 0.75 l-82.5 0 l0 -0.75 z "  style="fill:#000000;"/><path d="M366 675 l0.75 0 l0 39 l-0.75 0 l0 -39 z "  style="fill:#000000;"/><path d="M447.75 675 l0.75 0 l0 39 l-0.75 0 l0 -39 z "  style="fill:#000000;"/><path d="M271.5 675 l95.25 0 l0 0.75 l-95.25 0 l0 -0.75 z "  style="fill:#000000;"/><path d="M271.5 713.25 l95.25 0 l0 0.75 l-95.25 0 l0 -0.75 z "  style="fill:#000000;"/><path d="M271.5 675 l0.75 0 l0 39 l-0.75 0 l0 -39 z "  style="fill:#000000;"/><path d="M366 675 l0.75 0 l0 39 l-0.75 0 l0 -39 z "  style="fill:#000000;"/><path d="M188.25 675 l84 0 l0 0.75 l-84 0 l0 -0.75 z "  style="fill:#000000;"/><path d="M188.25 713.25 l84 0 l0 0.75 l-84 0 l0 -0.75 z "  style="fill:#000000;"/><path d="M188.25 675 l0.75 0 l0 39 l-0.75 0 l0 -39 z "  style="fill:#000000;"/><path d="M271.5 675 l0.75 0 l0 39 l-0.75 0 l0 -39 z "  style="fill:#000000;"/><path d="M129.75 675 l59.25 0 l0 0.75 l-59.25 0 l0 -0.75 z "  style="fill:#000000;"/><path d="M129.75 713.25 l59.25 0 l0 0.75 l-59.25 0 l0 -0.75 z "  style="fill:#000000;"/><path d="M129.75 675 l0.75 0 l0 39 l-0.75 0 l0 -39 z "  style="fill:#000000;"/><path d="M188.25 675 l0.75 0 l0 39 l-0.75 0 l0 -39 z "  style="fill:#000000;"/><path d="M72 675 l58.5 0 l0 0.75 l-58.5 0 l0 -0.75 z "  style="fill:#000000;"/><path d="M72 713.25 l58.5 0 l0 0.75 l-58.5 0 l0 -0.75 z "  style="fill:#000000;"/><path d="M72 675 l0.75 0 l0 39 l-0.75 0 l0 -39 z "  style="fill:#000000;"/><path d="M129.75 675 l0.75 0 l0 39 l-0.75 0 l0 -39 z "  style="fill:#000000;"/><path d="M447.75 636.75 l93 0 l0 0.75 l-93 0 l0 -0.75 z "  style="fill:#000000;"/><path d="M447.75 675 l93 0 l0 0.75 l-93 0 l0 -0.75 z "  style="fill:#000000;"/><path d="M447.75 636.75 l0.75 0 l0 39 l-0.75 0 l0 -39 z "  style="fill:#000000;"/><path d="M540 636.75 l0.75 0 l0 39 l-0.75 0 l0 -39 z "  style="fill:#000000;"/><path d="M366 636.75 l82.5 0 l0 0.75 l-82.5 0 l0 -0.75 z "  style="fill:#000000;"/><path d="M366 675 l82.5 0 l0 0.75 l-82.5 0 l0 -0.75 z "  style="fill:#000000;"/><path d="M366 636.75 l0.75 0 l0 39 l-0.75 0 l0 -39 z "  style="fill:#000000;"/><path d="M447.75 636.75 l0.75 0 l0 39 l-0.75 0 l0 -39 z "  style="fill:#000000;"/><path d="M271.5 636.75 l95.25 0 l0 0.75 l-95.25 0 l0 -0.75 z "  style="fill:#000000;"/><path d="M271.5 675 l95.25 0 l0 0.75 l-95.25 0 l0 -0.75 z "  style="fill:#000000;"/><path d="M271.5 636.75 l0.75 0 l0 39 l-0.75 0 l0 -39 z "  style="fill:#000000;"/><path d="M366 636.75 l0.75 0 l0 39 l-0.75 0 l0 -39 z "  style="fill:#000000;"/><path d="M188.25 636.75 l84 0 l0 0.75 l-84 0 l0 -0.75 z "  style="fill:#000000;"/><path d="M188.25 675 l84 0 l0 0.75 l-84 0 l0 -0.75 z "  style="fill:#000000;"/><path d="M188.25 636.75 l0.75 0 l0 39 l-0.75 0 l0 -39 z "  style="fill:#000000;"/><path d="M271.5 636.75 l0.75 0 l0 39 l-0.75 0 l0 -39 z "  style="fill:#000000;"/><path d="M129.75 636.75 l59.25 0 l0 0.75 l-59.25 0 l0 -0.75 z "  style="fill:#000000;"/><path d="M129.75 675 l59.25 0 l0 0.75 l-59.25 0 l0 -0.75 z "  style="fill:#000000;"/><path d="M129.75 636.75 l0.75 0 l0 39 l-0.75 0 l0 -39 z "  style="fill:#000000;"/><path d="M188.25 636.75 l0.75 0 l0 39 l-0.75 0 l0 -39 z "  style="fill:#000000;"/><path d="M72 636.75 l58.5 0 l0 0.75 l-58.5 0 l0 -0.75 z "  style="fill:#000000;"/><path d="M72 675 l58.5 0 l0 0.75 l-58.5 0 l0 -0.75 z "  style="fill:#000000;"/><path d="M72 636.75 l0.75 0 l0 39 l-0.75 0 l0 -39 z "  style="fill:#000000;"/><path d="M129.75 636.75 l0.75 0 l0 39 l-0.75 0 l0 -39 z "  style="fill:#000000;"/><path d="M447.75 612 l93 0 l0 0.75 l-93 0 l0 -0.75 z "  style="fill:#000000;"/><path d="M447.75 636.75 l93 0 l0 0.75 l-93 0 l0 -0.75 z "  style="fill:#000000;"/><path d="M447.75 612 l0.75 0 l0 25.5 l-0.75 0 l0 -25.5 z "  style="fill:#000000;"/><path d="M540 612 l0.75 0 l0 25.5 l-0.75 0 l0 -25.5 z "  style="fill:#000000;"/><path d="M366 612 l82.5 0 l0 0.75 l-82.5 0 l0 -0.75 z "  style="fill:#000000;"/><path d="M366 636.75 l82.5 0 l0 0.75 l-82.5 0 l0 -0.75 z "  style="fill:#000000;"/><path d="M366 612 l0.75 0 l0 25.5 l-0.75 0 l0 -25.5 z "  style="fill:#000000;"/><path d="M447.75 612 l0.75 0 l0 25.5 l-0.75 0 l0 -25.5 z "  style="fill:#000000;"/><path d="M271.5 612 l95.25 0 l0 0.75 l-95.25 0 l0 -0.75 z "  style="fill:#000000;"/><path d="M271.5 636.75 l95.25 0 l0 0.75 l-95.25 0 l0 -0.75 z "  style="fill:#000000;"/><path d="M271.5 612 l0.75 0 l0 25.5 l-0.75 0 l0 -25.5 z "  style="fill:#000000;"/><path d="M366 612 l0.75 0 l0 25.5 l-0.75 0 l0 -25.5 z "  style="fill:#000000;"/><path d="M188.25 612 l84 0 l0 0.75 l-84 0 l0 -0.75 z "  style="fill:#000000;"/><path d="M188.25 636.75 l84 0 l0 0.75 l-84 0 l0 -0.75 z "  style="fill:#000000;"/><path d="M188.25 612 l0.75 0 l0 25.5 l-0.75 0 l0 -25.5 z "  style="fill:#000000;"/><path d="M271.5 612 l0.75 0 l0 25.5 l-0.75 0 l0 -25.5 z "  style="fill:#000000;"/><path d="M129.75 612 l59.25 0 l0 0.75 l-59.25 0 l0 -0.75 z "  style="fill:#000000;"/><path d="M129.75 636.75 l59.25 0 l0 0.75 l-59.25 0 l0 -0.75 z "  style="fill:#000000;"/><path d="M129.75 612 l0.75 0 l0 25.5 l-0.75 0 l0 -25.5 z "  style="fill:#000000;"/><path d="M188.25 612 l0.75 0 l0 25.5 l-0.75 0 l0 -25.5 z "  style="fill:#000000;"/><path d="M72 612 l58.5 0 l0 0.75 l-58.5 0 l0 -0.75 z "  style="fill:#000000;"/><path d="M72 636.75 l58.5 0 l0 0.75 l-58.5 0 l0 -0.75 z "  style="fill:#000000;"/><path d="M72 612 l0.75 0 l0 25.5 l-0.75 0 l0 -25.5 z "  style="fill:#000000;"/><path d="M129.75 612 l0.75 0 l0 25.5 l-0.75 0 l0 -25.5 z "  style="fill:#000000;"/></g><text class="f19" font-size="11.25" style="fill:#000000"><tspan x="78.00" y="629.25" textLength="36.86">Cohort</tspan></text><text class="f19" font-size="11.25" style="fill:#000000"><tspan x="135.75" y="629.25" textLength="23.13">Test</tspan></text><text class="f19" font-size="11.25" style="fill:#000000"><tspan x="194.25" y="629.25" textLength="33.76">Step&#57368;1</tspan></text><text class="f19" font-size="11.25" style="fill:#000000"><tspan x="277.50" y="629.25" textLength="33.76">Step&#57368;2</tspan></text><text class="f19" font-size="11.25" style="fill:#000000"><tspan x="372.00" y="629.25" textLength="33.76">Step&#57368;3</tspan></text><text class="f19" font-size="11.25" style="fill:#000000"><tspan x="453.75" y="629.25" textLength="33.76">Step&#57368;4</tspan></text><text class="f17" font-size="11.25" style="fill:#000000"><tspan x="78.00" y="654.00" textLength="12.51">1a</tspan></text><text class="f17" font-size="11.25" style="fill:#000000"><tspan x="135.75" y="654.00" textLength="37.52">Test&#57445;1a</tspan></text><text class="f17" font-size="11.25" style="fill:#000000"><tspan x="194.25" y="654.00" textLength="37.63" dx="0,0,0,0,0,0,0,0.11">Text&#57445;of&#57445;</tspan>&#8203;<tspan x="194.25" y="667.50" textLength="46.91">Lecture&#57445;1</tspan></text><text class="f17" font-size="11.25" style="fill:#000000"><tspan x="277.50" y="654.00" textLength="82.63" dx="0,0,0,0,0,0,0,0,0,0,0,0,0,0.08">Comprehension&#57445;</tspan>&#8203;<tspan x="277.50" y="667.50" textLength="50.65">Questions</tspan></text><text class="f17" font-size="11.25" style="fill:#000000"><tspan x="372.00" y="654.00" textLength="44.38" dx="0,0,0,0,0,0,0,0,-0.03">Video&#57445;of&#57445;</tspan>&#8203;<tspan x="372.00" y="667.50" textLength="46.91">Lecture&#57445;2</tspan></text><text class="f17" font-size="11.25" style="fill:#000000"><tspan x="453.75" y="654.00" textLength="82.63" dx="0,0,0,0,0,0,0,0,0,0,0,0,0,0.08">Comprehension&#57445;</tspan>&#8203;<tspan x="453.75" y="667.50" textLength="50.65">Questions</tspan></text><text class="f17" font-size="11.25" style="fill:#000000"><tspan x="78.00" y="692.25" textLength="12.51">1b</tspan></text><text class="f17" font-size="11.25" style="fill:#000000"><tspan x="135.75" y="692.25" textLength="37.52">Test&#57445;1b</tspan></text><text class="f17" font-size="11.25" style="fill:#000000"><tspan x="194.25" y="692.25" textLength="37.63" dx="0,0,0,0,0,0,0,0.11">Text&#57445;of&#57445;</tspan>&#8203;<tspan x="194.25" y="705.75" textLength="46.91">Lecture&#57445;2</tspan></text><text class="f17" font-size="11.25" style="fill:#000000"><tspan x="277.50" y="692.25" textLength="82.63" dx="0,0,0,0,0,0,0,0,0,0,0,0,0,0.08">Comprehension&#57445;</tspan>&#8203;<tspan x="277.50" y="705.75" textLength="50.65">Questions</tspan></text><text class="f17" font-size="11.25" style="fill:#000000"><tspan x="372.00" y="692.25" textLength="37.63" dx="0,0,0,0,0,0,0,0.11">Text&#57445;of&#57445;</tspan>&#8203;<tspan x="372.00" y="705.75" textLength="46.91">Lecture&#57445;1</tspan></text><text class="f17" font-size="11.25" style="fill:#000000"><tspan x="453.75" y="692.25" textLength="82.63" dx="0,0,0,0,0,0,0,0,0,0,0,0,0,0.08">Comprehension&#57445;</tspan>&#8203;<tspan x="453.75" y="705.75" textLength="50.65">Questions</tspan></text>
</svg>
