<svg class="crocodoc-KQD13c crocodoc-page-svg" version="1.1"
    xmlns="http://www.w3.org/2000/svg"
    xmlns:xlink="http://www.w3.org/1999/xlink"
    xmlns:xhtml="http://www.w3.org/1999/xhtml"
    xml:space="preserve" width="612.0pt" height="792.0pt" viewBox="0 0 612.0 792.0">
<xhtml:link href="stylesheet.css" type="text/css" rel="stylesheet" />
<style>
.crocodoc-KQD13c tspan { white-space:pre; direction:ltr; unicode-bidi:bidi-override; }
.crocodoc-KQD13c path { fill:transparent; }
.crocodoc-KQD13c [mbm="1"] { opacity:0; }
.crocodoc-KQD13c [mbm="2"] { opacity:0.3; }
.crocodoc-KQD13c [mbm="3"] { opacity:0.5; }
@supports (mix-blend-mode: multiply) {
.crocodoc-KQD13c [mbm] { opacity:1; }
}

</style>
<defs>
<clipPath id="Clip_1_3_KQD13c_2"><path d="M0 792 l612 0 l0 -792 l-612 0 l0 792 " /></clipPath>
</defs>
<g clip-path="url(#Clip_1_3_KQD13c_2)" ><path d="M0 0 l612 0 l0 792 l-612 0 l0 -792 z "  style="fill:#ffffff;"/><path d="M0 -1584 l612 0 l0 2376 l-612 0 l0 -2376 z "  style="fill:#ffffff;"/><path d="M0 0 l612 0 l0 792 l-612 0 l0 -792 z "  style="fill:#ffffff;"/><path d="M0 72 l612 0 l0 720 l-612 0 l0 -720 z "  style="fill:#ffffff;"/><path d="M447.75 110.25 l93 0 l0 0.75 l-93 0 l0 -0.75 z "  style="fill:#000000;"/><path d="M447.75 148.5 l93 0 l0 0.75 l-93 0 l0 -0.75 z "  style="fill:#000000;"/><path d="M447.75 110.25 l0.75 0 l0 39 l-0.75 0 l0 -39 z "  style="fill:#000000;"/><path d="M540 110.25 l0.75 0 l0 39 l-0.75 0 l0 -39 z "  style="fill:#000000;"/><path d="M366 110.25 l82.5 0 l0 0.75 l-82.5 0 l0 -0.75 z "  style="fill:#000000;"/><path d="M366 148.5 l82.5 0 l0 0.75 l-82.5 0 l0 -0.75 z "  style="fill:#000000;"/><path d="M366 110.25 l0.75 0 l0 39 l-0.75 0 l0 -39 z "  style="fill:#000000;"/><path d="M447.75 110.25 l0.75 0 l0 39 l-0.75 0 l0 -39 z "  style="fill:#000000;"/><path d="M271.5 110.25 l95.25 0 l0 0.75 l-95.25 0 l0 -0.75 z "  style="fill:#000000;"/><path d="M271.5 148.5 l95.25 0 l0 0.75 l-95.25 0 l0 -0.75 z "  style="fill:#000000;"/><path d="M271.5 110.25 l0.75 0 l0 39 l-0.75 0 l0 -39 z "  style="fill:#000000;"/><path d="M366 110.25 l0.75 0 l0 39 l-0.75 0 l0 -39 z "  style="fill:#000000;"/><path d="M188.25 110.25 l84 0 l0 0.75 l-84 0 l0 -0.75 z "  style="fill:#000000;"/><path d="M188.25 148.5 l84 0 l0 0.75 l-84 0 l0 -0.75 z "  style="fill:#000000;"/><path d="M188.25 110.25 l0.75 0 l0 39 l-0.75 0 l0 -39 z "  style="fill:#000000;"/><path d="M271.5 110.25 l0.75 0 l0 39 l-0.75 0 l0 -39 z "  style="fill:#000000;"/><path d="M129.75 110.25 l59.25 0 l0 0.75 l-59.25 0 l0 -0.75 z "  style="fill:#000000;"/><path d="M129.75 148.5 l59.25 0 l0 0.75 l-59.25 0 l0 -0.75 z "  style="fill:#000000;"/><path d="M129.75 110.25 l0.75 0 l0 39 l-0.75 0 l0 -39 z "  style="fill:#000000;"/><path d="M188.25 110.25 l0.75 0 l0 39 l-0.75 0 l0 -39 z "  style="fill:#000000;"/><path d="M72 110.25 l58.5 0 l0 0.75 l-58.5 0 l0 -0.75 z "  style="fill:#000000;"/><path d="M72 148.5 l58.5 0 l0 0.75 l-58.5 0 l0 -0.75 z "  style="fill:#000000;"/><path d="M72 110.25 l0.75 0 l0 39 l-0.75 0 l0 -39 z "  style="fill:#000000;"/><path d="M129.75 110.25 l0.75 0 l0 39 l-0.75 0 l0 -39 z "  style="fill:#000000;"/><path d="M447.75 72 l93 0 l0 0.75 l-93 0 l0 -0.75 z "  style="fill:#000000;"/><path d="M447.75 110.25 l93 0 l0 0.75 l-93 0 l0 -0.75 z "  style="fill:#000000;"/><path d="M447.75 72 l0.75 0 l0 39 l-0.75 0 l0 -39 z "  style="fill:#000000;"/><path d="M540 72 l0.75 0 l0 39 l-0.75 0 l0 -39 z "  style="fill:#000000;"/><path d="M366 72 l82.5 0 l0 0.75 l-82.5 0 l0 -0.75 z "  style="fill:#000000;"/><path d="M366 110.25 l82.5 0 l0 0.75 l-82.5 0 l0 -0.75 z "  style="fill:#000000;"/><path d="M366 72 l0.75 0 l0 39 l-0.75 0 l0 -39 z "  style="fill:#000000;"/><path d="M447.75 72 l0.75 0 l0 39 l-0.75 0 l0 -39 z "  style="fill:#000000;"/><path d="M271.5 72 l95.25 0 l0 0.75 l-95.25 0 l0 -0.75 z "  style="fill:#000000;"/><path d="M271.5 110.25 l95.25 0 l0 0.75 l-95.25 0 l0 -0.75 z "  style="fill:#000000;"/><path d="M271.5 72 l0.75 0 l0 39 l-0.75 0 l0 -39 z "  style="fill:#000000;"/><path d="M366 72 l0.75 0 l0 39 l-0.75 0 l0 -39 z "  style="fill:#000000;"/><path d="M188.25 72 l84 0 l0 0.75 l-84 0 l0 -0.75 z "  style="fill:#000000;"/><path d="M188.25 110.25 l84 0 l0 0.75 l-84 0 l0 -0.75 z "  style="fill:#000000;"/><path d="M188.25 72 l0.75 0 l0 39 l-0.75 0 l0 -39 z "  style="fill:#000000;"/><path d="M271.5 72 l0.75 0 l0 39 l-0.75 0 l0 -39 z "  style="fill:#000000;"/><path d="M129.75 72 l59.25 0 l0 0.75 l-59.25 0 l0 -0.75 z "  style="fill:#000000;"/><path d="M129.75 110.25 l59.25 0 l0 0.75 l-59.25 0 l0 -0.75 z "  style="fill:#000000;"/><path d="M129.75 72 l0.75 0 l0 39 l-0.75 0 l0 -39 z "  style="fill:#000000;"/><path d="M188.25 72 l0.75 0 l0 39 l-0.75 0 l0 -39 z "  style="fill:#000000;"/><path d="M72 72 l58.5 0 l0 0.75 l-58.5 0 l0 -0.75 z "  style="fill:#000000;"/><path d="M72 110.25 l58.5 0 l0 0.75 l-58.5 0 l0 -0.75 z "  style="fill:#000000;"/><path d="M72 72 l0.75 0 l0 39 l-0.75 0 l0 -39 z "  style="fill:#000000;"/><path d="M129.75 72 l0.75 0 l0 39 l-0.75 0 l0 -39 z "  style="fill:#000000;"/></g><text class="f17" font-size="11.25" style="fill:#000000"><tspan x="78.00" y="89.25" textLength="12.51">2a</tspan></text><text class="f17" font-size="11.25" style="fill:#000000"><tspan x="135.75" y="89.25" textLength="37.52">Test&#57445;2a</tspan></text><text class="f17" font-size="11.25" style="fill:#000000"><tspan x="194.25" y="89.25" textLength="44.38" dx="0,0,0,0,0,0,0,0,-0.03">Video&#57445;of&#57445;</tspan>&#8203;<tspan x="194.25" y="102.75" textLength="46.91">Lecture&#57445;1</tspan></text><text class="f17" font-size="11.25" style="fill:#000000"><tspan x="277.50" y="89.25" textLength="82.63" dx="0,0,0,0,0,0,0,0,0,0,0,0,0,0.08">Comprehension&#57445;</tspan>&#8203;<tspan x="277.50" y="102.75" textLength="50.65">Questions</tspan></text><text class="f17" font-size="11.25" style="fill:#000000"><tspan x="372.00" y="89.25" textLength="44.38" dx="0,0,0,0,0,0,0,0,-0.03">Video&#57445;of&#57445;</tspan>&#8203;<tspan x="372.00" y="102.75" textLength="46.91">Lecture&#57445;2</tspan></text><text class="f17" font-size="11.25" style="fill:#000000"><tspan x="453.75" y="89.25" textLength="82.63" dx="0,0,0,0,0,0,0,0,0,0,0,0,0,0.08">Comprehension&#57445;</tspan>&#8203;<tspan x="453.75" y="102.75" textLength="50.65">Questions</tspan></text><text class="f17" font-size="11.25" style="fill:#000000"><tspan x="78.00" y="127.50" textLength="12.51">2b</tspan></text><text class="f17" font-size="11.25" style="fill:#000000"><tspan x="135.75" y="127.50" textLength="37.52">Test&#57445;2b</tspan></text><text class="f17" font-size="11.25" style="fill:#000000"><tspan x="194.25" y="127.50" textLength="44.38" dx="0,0,0,0,0,0,0,0,-0.03">Video&#57445;of&#57445;</tspan>&#8203;<tspan x="194.25" y="141.00" textLength="46.91">Lecture&#57445;2</tspan></text><text class="f17" font-size="11.25" style="fill:#000000"><tspan x="277.50" y="127.50" textLength="82.63" dx="0,0,0,0,0,0,0,0,0,0,0,0,0,0.08">Comprehension&#57445;</tspan>&#8203;<tspan x="277.50" y="141.00" textLength="50.65">Questions</tspan></text><text class="f17" font-size="11.25" style="fill:#000000"><tspan x="372.00" y="127.50" textLength="37.63" dx="0,0,0,0,0,0,0,0.11">Text&#57445;of&#57445;</tspan>&#8203;<tspan x="372.00" y="141.00" textLength="46.91">Lecture&#57445;1</tspan></text><text class="f17" font-size="11.25" style="fill:#000000"><tspan x="453.75" y="127.50" textLength="82.63" dx="0,0,0,0,0,0,0,0,0,0,0,0,0,0.08">Comprehension&#57445;</tspan>&#8203;<tspan x="453.75" y="141.00" textLength="50.65">Questions</tspan></text><text class="f17" font-size="11.25" style="fill:#000000"><tspan x="72.00" y="175.50" textLength="453.88" dx="0,0,0,0,0,0,0,0,0,0,0,0,0,0,0,0,0,0,0,0,0,0,0,0,0,0,0,0,0,0,0,0,0,0,0,0,0,0,0,0,0,0,0,0,0,0,0,0,0,0,0,0,0,0,0,0,0,0,0,0,0,0,0,0,0,0,0,0,0,0,0,0,0,0,0,0,0,0,0,0,0,0,0,0,0,0,0,0,0,0,0,0,0,0,0,0,-0.12">Lecture&#57445;1&#57445;and&#57445;2&#57445;are&#57445;different&#57445;lectures,&#57445;but&#57445;the&#57445;text&#57445;of&#57445;each&#57445;is&#57445;a&#57445;direct&#57445;transcript&#57445;of&#57445;the&#57445;words&#57445;</tspan>&#8203;<tspan x="72.00" y="190.50" textLength="449.38" dx="0,0,0,0,0,0,0,0,0,0,0,0,0,0,0,0,0,0,0,0,0,0,0,0,0,0,0,0,0,0,0,0,0,0,0,0,0,0,0,0,0,0,0,0,0,0,0,0,0,0,0,0,0,0,0,0,0,0,0,0,0,0,0,0,0,0,0,0,0,0,0,0,0,0,0,0,0,0,0,0,0,0,0,0,0,0,0,0,0,0,0,-0.26">spoken&#57445;in&#57445;the&#57445;video.&#57445;There&#57445;is&#57445;no&#57445;change&#57445;to&#57445;the&#57445;content&#57445;from&#57445;video&#57445;to&#57445;text.&#57445;There&#57445;is&#57445;also&#57445;no&#57445;</tspan>&#8203;<tspan x="72.00" y="205.50" textLength="481.63" dx="0,0,0,0,0,0,0,0,0,0,0,0,0,0,0,0,0,0,0,0,0,0,0,0,0,0,0,0,0,0,0,0,0,0,0,0,0,0,0,0,0,0,0,0,0,0,0,0,0,0,0,0,0,0,0,0,0,0,0,0,0,0,0,0,0,0,0,0,0,0,0,0,0,0,0,0,0,0,0,0,0,0,0,0,0,0,0,0,0,0,0,0,0,0,0,0,0,0.08">difference&#57445;in&#57445;the&#57445;comprehension&#57445;questions&#57445;for&#57445;the&#57445;video&#57445;and&#57445;text&#57445;versions&#57445;of&#57445;each&#57445;set&#57445;of&#57445;content.&#57445;</tspan>&#8203;<tspan x="72.00" y="220.50" textLength="477.15">(For&#57445;example,&#57445;Lecture&#57445;1&#57445;has&#57445;the&#57445;same&#57445;comprehension&#57445;questions&#57445;for&#57445;both&#57445;the&#57445;video&#57445;and&#57445;the&#57445;text)</tspan>&#8203;<tspan x="72.00" y="250.50" textLength="479.38" dx="0,0,0,0,0,0,0,0,0,0,0,0,0,0,0,0,0,0,0,0,0,0,0,0,0,0,0,0,0,0,0,0,0,0,0,0,0,0,0,0,0,0,0,0,0,0,0,0,0,0,0,0,0,0,0,0,0,0,0,0,0,0,0,0,0,0,0,0,0,0,0,0,0,0,0,0,0,0,0,0,0,0,0,0,0,0,0,0,0,0,0,0,0,0,-0.25">The&#57445;order&#57445;in&#57445;which&#57445;a&#57445;participant&#57445;experiences&#57445;each&#57445;piece&#57445;of&#57445;content/medium&#57445;is&#57445;scrambled&#57445;via&#57445;the&#57445;</tspan>&#8203;<tspan x="72.00" y="265.50" textLength="441.88" dx="0,0,0,0,0,0,0,0,0,0,0,0,0,0,0,0,0,0,0,0,0,0,0,0,0,0,0,0,0,0,0,0,0,0,0,0,0,0,0,0,0,0,0,0,0,0,0,0,0,0,0,0,0,0,0,0,0,0,0,0,0,0,0,0,0,0,0,0,0,0,0,0,0,0,0,0,0,0,0,0,0,0,0,0,0,0,-0.24">random&#57445;form&#57445;assignment&#57445;to&#57445;eliminate&#57445;any&#57445;confusion&#57445;that&#57445;the&#57445;order&#57445;of&#57445;the&#57445;content&#57445;may&#57445;be&#57445;</tspan>&#8203;<tspan x="72.00" y="280.50" textLength="168.84">causing&#57445;any&#57445;discrepancy&#57445;in&#57445;score.</tspan>&#8203;<tspan x="72.00" y="310.50" textLength="444.88" dx="0,0,0,0,0,0,0,0,0,0,0,0,0,0,0,0,0,0,0,0,0,0,0,0,0,0,0,0,0,0,0,0,0,0,0,0,0,0,0,0,0,0,0,0,0,0,0,0,0,0,0,0,0,0,0,0,0,0,0,0,0,0,0,0,0,0,0,0,0,0,0,0,0,0,0,0,0,0,0,0,0,0,0,0,0,0,0,0,0,0.26">At&#57445;the&#57445;completion&#57445;of&#57445;the&#57445;period&#57445;of&#57445;research,&#57445;access&#57445;to&#57445;the&#57445;form&#57445;will&#57445;be&#57445;removed,&#57445;and&#57445;data&#57445;</tspan>&#8203;<tspan x="72.00" y="325.50" textLength="93.17">analysis&#57445;will&#57445;begin.</tspan>&#8203;<tspan x="72.00" y="355.50" textLength="153.77" class="f19">Methodology&#57368;&#57369;&#57368;Data&#57368;Analysis</tspan>&#8203;<tspan x="72.00" y="370.50" textLength="449.38" dx="0,0,0,0,0,0,0,0,0,0,0,0,0,0,0,0,0,0,0,0,0,0,0,0,0,0,0,0,0,0,0,0,0,0,0,0,0,0,0,0,0,0,0,0,0,0,0,0,0,0,0,0,0,0,0,0,0,0,0,0,0,0,0,0,0,0,0,0,0,0,0,0,0,0,0,0,0,0,0,0,0,0,0,0,0,0,0,0,0,0,0,0.37">The&#57445;first&#57445;method&#57445;of&#57445;analyzing&#57445;the&#57445;data&#57445;is&#57445;to&#57445;examine&#57445;whether&#57445;participants&#57445;did&#57445;better&#57445;on&#57445;the&#57445;</tspan>&#8203;<tspan x="72.00" y="385.50" textLength="477.88" dx="0,0,0,0,0,0,0,0,0,0,0,0,0,0,0,0,0,0,0,0,0,0,0,0,0,0,0,0,0,0,0,0,0,0,0,0,0,0,0,0,0,0,0,0,0,0,0,0,0,0,0,0,0,0,0,0,0,0,0,0,0,0,0,0,0,0,0,0,0,0,0,0,0,0,0,0,0,0,0,0,0,0,0,0,0,0,0,0,0,0,0,0,0,0,0,0,0.12">comprehension&#57445;questions&#57445;for&#57445;the&#57445;video&#57445;they&#57445;watched,&#57445;or&#57445;the&#57445;text&#57445;they&#57445;read.&#57445;This&#57445;analysis&#57445;will&#57445;be&#57445;</tspan>&#8203;<tspan x="72.00" y="400.50" textLength="472.63" dx="0,0,0,0,0,0,0,0,0,0,0,0,0,0,0,0,0,0,0,0,0,0,0,0,0,0,0,0,0,0,0,0,0,0,0,0,0,0,0,0,0,0,0,0,0,0,0,0,0,0,0,0,0,0,0,0,0,0,0,0,0,0,0,0,0,0,0,0,0,0,0,0,0,0,0,0,0,0,0,0,0,0,0,0,0,0,0,0,0,0,0,0,0,0,0,0,0,0,-0.12">conducted&#57445;for&#57445;each&#57445;participant.&#57445;Following&#57445;the&#57445;individual&#57445;analysis,&#57445;its&#57445;results&#57445;will&#57445;be&#57445;combined&#57445;to&#57445;</tspan>&#8203;<tspan x="72.00" y="415.50" textLength="404.38" dx="0,0,0,0,0,0,0,0,0,0,0,0,0,0,0,0,0,0,0,0,0,0,0,0,0,0,0,0,0,0,0,0,0,0,0,0,0,0,0,0,0,0,0,0,0,0,0,0,0,0,0,0,0,0,0,0,0,0,0,0,0,0,0,0,0,0,0,0,0,0,0,0,0,0,0,0,0,0,0,0,0,0,-0.23">indicate&#57445;whether&#57445;there&#57445;was&#57445;a&#57445;significant&#57445;difference&#57445;in&#57445;scores&#57445;on&#57445;the&#57445;video&#57445;content&#57445;</tspan>&#8203;<tspan x="72.00" y="430.50" textLength="426.13" dx="0,0,0,0,0,0,0,0,0,0,0,0,0,0,0,0,0,0,0,0,0,0,0,0,0,0,0,0,0,0,0,0,0,0,0,0,0,0,0,0,0,0,0,0,0,0,0,0,0,0,0,0,0,0,0,0,0,0,0,0,0,0,0,0,0,0,0,0,0,0,0,0,0,0,0,0,0,0,0,0,-0.37">comprehension&#57445;questions&#57445;compared&#57445;to&#57445;the&#57445;written&#57445;content&#57445;comprehension&#57445;questions.&#57445;</tspan>&#8203;<tspan x="72.00" y="460.50" textLength="455.38" dx="0,0,0,0,0,0,0,0,0,0,0,0,0,0,0,0,0,0,0,0,0,0,0,0,0,0,0,0,0,0,0,0,0,0,0,0,0,0,0,0,0,0,0,0,0,0,0,0,0,0,0,0,0,0,0,0,0,0,0,0,0,0,0,0,0,0,0,0,0,0,0,0,0,0,0,0,0,0,0,0,0,0,0,0,0,0,0,0,0,0,0,0,0.14">After&#57445;determining&#57445;whether&#57445;there&#57445;was&#57445;a&#57445;difference&#57445;in&#57445;performance&#57445;for&#57445;individuals&#57445;on&#57445;different&#57445;</tspan>&#8203;<tspan x="72.00" y="475.50" textLength="466.63" dx="0,0,0,0,0,0,0,0,0,0,0,0,0,0,0,0,0,0,0,0,0,0,0,0,0,0,0,0,0,0,0,0,0,0,0,0,0,0,0,0,0,0,0,0,0,0,0,0,0,0,0,0,0,0,0,0,0,0,0,0,0,0,0,0,0,0,0,0,0,0,0,0,0,0,0,0,0,0,0,0,0,0,0,0,0,0,0,0,0,0,0,0,0.11">content,&#57445;analysis&#57445;will&#57445;be&#57445;conducted&#57445;for&#57445;participants&#57445;who&#57445;experienced&#57445;the&#57445;same&#57445;content.&#57445;Given&#57445;</tspan>&#8203;<tspan x="72.00" y="490.50" textLength="475.63" dx="0,0,0,0,0,0,0,0,0,0,0,0,0,0,0,0,0,0,0,0,0,0,0,0,0,0,0,0,0,0,0,0,0,0,0,0,0,0,0,0,0,0,0,0,0,0,0,0,0,0,0,0,0,0,0,0,0,0,0,0,0,0,0,0,0,0,0,0,0,0,0,0,0,0,0,0,0,0,0,0,0,0,0,0,0,0,0,0,0,0,0,0,0,0,0,0,0,0,0,0.35">the&#57445;set&#57445;up&#57445;of&#57445;the&#57445;tests,&#57445;all&#57445;participants&#57445;experienced&#57445;Lecture&#57445;1,&#57445;but&#57445;half&#57445;of&#57445;them&#57445;experienced&#57445;it&#57445;as&#57445;</tspan>&#8203;<tspan x="72.00" y="505.50" textLength="475.63" dx="0,0,0,0,0,0,0,0,0,0,0,0,0,0,0,0,0,0,0,0,0,0,0,0,0,0,0,0,0,0,0,0,0,0,0,0,0,0,0,0,0,0,0,0,0,0,0,0,0,0,0,0,0,0,0,0,0,0,0,0,0,0,0,0,0,0,0,0,0,0,0,0,0,0,0,0,0,0,0,0,0,0,0,0,0,0,0,0,0,0,0,0,0,0,0,0,-0.27">text,&#57445;and&#57445;the&#57445;other&#57445;have&#57445;experienced&#57445;it&#57445;as&#57445;video.&#57445;Regardless&#57445;of&#57445;what&#57445;cohort&#57445;they&#57445;were&#57445;a&#57445;part&#57445;of,&#57445;</tspan>&#8203;<tspan x="72.00" y="520.50" textLength="469.63" dx="0,0,0,0,0,0,0,0,0,0,0,0,0,0,0,0,0,0,0,0,0,0,0,0,0,0,0,0,0,0,0,0,0,0,0,0,0,0,0,0,0,0,0,0,0,0,0,0,0,0,0,0,0,0,0,0,0,0,0,0,0,0,0,0,0,0,0,0,0,0,0,0,0,0,0,0,0,0,0,0,0,0,0,0,0,0,0,0,0,0,0,0,0,-0.01">the&#57445;scores&#57445;for&#57445;participants&#57445;who&#57445;experienced&#57445;Lecture&#57445;1&#57445;as&#57445;video&#57445;will&#57445;then&#57445;be&#57445;compared&#57445;with&#57445;the&#57445;</tspan>&#8203;<tspan x="72.00" y="535.50" textLength="482.38" dx="0,0,0,0,0,0,0,0,0,0,0,0,0,0,0,0,0,0,0,0,0,0,0,0,0,0,0,0,0,0,0,0,0,0,0,0,0,0,0,0,0,0,0,0,0,0,0,0,0,0,0,0,0,0,0,0,0,0,0,0,0,0,0,0,0,0,0,0,0,0,0,0,0,0,0,0,0,0,0,0,0,0,0,0,0,0,0,0,0,0,0,0,0,0,0,0,0,0.22">participants&#57445;who&#57445;experienced&#57445;Lecture&#57445;1&#57445;as&#57445;text.&#57445;This&#57445;will&#57445;be&#57445;done&#57445;by&#57445;finding&#57445;the&#57445;average&#57445;score&#57445;of&#57445;</tspan>&#8203;<tspan x="72.00" y="550.50" textLength="457.63" dx="0,0,0,0,0,0,0,0,0,0,0,0,0,0,0,0,0,0,0,0,0,0,0,0,0,0,0,0,0,0,0,0,0,0,0,0,0,0,0,0,0,0,0,0,0,0,0,0,0,0,0,0,0,0,0,0,0,0,0,0,0,0,0,0,0,0,0,0,0,0,0,0,0,0,0,0,0,0,0,0,0,0,0,0,0,0,0,0,0,0,0,0,0,0,-0.12">participants&#57445;on&#57445;Lecture&#57445;1&#57445;as&#57445;video,&#57445;and&#57445;Lecture&#57445;1&#57445;as&#57445;text.&#57445;This&#57445;analysis&#57445;will&#57445;indicate&#57445;whether&#57445;</tspan>&#8203;<tspan x="72.00" y="565.50" textLength="473.38" dx="0,0,0,0,0,0,0,0,0,0,0,0,0,0,0,0,0,0,0,0,0,0,0,0,0,0,0,0,0,0,0,0,0,0,0,0,0,0,0,0,0,0,0,0,0,0,0,0,0,0,0,0,0,0,0,0,0,0,0,0,0,0,0,0,0,0,0,0,0,0,0,0,0,0,0,0,0,0,0,0,0,0,0,0,0,0,0,0,0,0,0,0,0,0,0,-0.03">there&#57445;is&#57445;a&#57445;significant&#57445;difference&#57445;in&#57445;comprehension&#57445;of&#57445;the&#57445;content&#57445;when&#57445;experienced&#57445;via&#57445;video&#57445;or&#57445;</tspan>&#8203;<tspan x="72.00" y="580.50" textLength="301.41">text.&#57445;The&#57445;same&#57445;procedure&#57445;will&#57445;then&#57445;be&#57445;followed&#57445;for&#57445;Lecture&#57445;2.</tspan></text>
</svg>
