<svg class="crocodoc-yPVkGq crocodoc-page-svg" version="1.1"
    xmlns="http://www.w3.org/2000/svg"
    xmlns:xlink="http://www.w3.org/1999/xlink"
    xmlns:xhtml="http://www.w3.org/1999/xhtml"
    xml:space="preserve" width="612.0pt" height="792.0pt" viewBox="0 0 612.0 792.0">
<xhtml:link href="stylesheet.css" type="text/css" rel="stylesheet" />
<style>
.crocodoc-yPVkGq tspan { white-space:pre; direction:ltr; unicode-bidi:bidi-override; }
.crocodoc-yPVkGq path { fill:transparent; }
.crocodoc-yPVkGq [mbm="1"] { opacity:0; }
.crocodoc-yPVkGq [mbm="2"] { opacity:0.3; }
.crocodoc-yPVkGq [mbm="3"] { opacity:0.5; }
@supports (mix-blend-mode: multiply) {
.crocodoc-yPVkGq [mbm] { opacity:1; }
}

</style>
<defs>
<clipPath id="Clip_1_2_yPVkGq_2"><path d="M0 792 l612 0 l0 -792 l-612 0 l0 792 " /></clipPath>
</defs>
<g clip-path="url(#Clip_1_2_yPVkGq_2)" ><path d="M0 0 l612 0 l0 792 l-612 0 l0 -792 z "  style="fill:#ffffff;"/><path d="M0 -792 l612 0 l0 3168 l-612 0 l0 -3168 z "  style="fill:#ffffff;"/><path d="M0 0 l612 0 l0 792 l-612 0 l0 -792 z "  style="fill:#ffffff;"/><path d="M0 72 l612 0 l0 720 l-612 0 l0 -720 z "  style="fill:#ffffff;"/><text class="f34" font-size="11.25" style="fill:#000000"><tspan x="151.50" y="83.25" textLength="91.17" dx="0,0,0,18,0,0,0,0,0,0,0,0,0,0">ix.Leap&#57439;Motion</tspan>&#8203;<tspan x="153.75" y="98.25" textLength="62.0" dx="0,0,18.25,0,0,0,0,0">x.Massiv</tspan>&#8203;<tspan x="90.00" y="113.25" textLength="130.37" dx="0,0,9.37,0,0,0,0,0,0,0,0,0,0,0,0,0,0,0,0,0,0">3.Google+&#57439;Communities</tspan>&#8203;<tspan x="126.00" y="128.25" textLength="408.88" dx="0,0,9.37,0,0,0,0,0,0,0,0,0,0,0,0,0,0,0,0,0,0,0,0,0,0,0,0,0,0,0,0,0,0,0,0,0,0,0,0,0,0,0,0,0,0,0,0,0,0,0,0,0,0,0,0,0,0,0,0,0,0,0,0,0,0,0,0,0,0,0,0,0,0,0,0,0,0,0,0,-0.37">a.Participation&#57439;was&#57439;solicited&#57439;in&#57439;the&#57439;following&#57439;Google+&#57439;Communities&#57439;via&#57439;a&#57439;custom&#57439;</tspan>&#8203;<tspan x="144.00" y="143.25" textLength="24.39">post:</tspan>&#8203;<tspan x="156.75" y="158.25" textLength="84.64" dx="0,0,18.38,0,0,0,0,0,0,0,0,0">i.Chromecast</tspan>&#8203;<tspan x="154.50" y="173.25" textLength="66.87" dx="0,0,0,18.13,0,0,0,0">ii.MOOCs</tspan>&#8203;<tspan x="152.25" y="188.25" textLength="191.8" dx="0,0,0,0,18.63,0,0,0,0,0,0,0,0,0,0,0,0,0,0,0,0,0,0,0,0,0,0,0,0,0,0,0,0">iii.Massively&#57440;Open&#57440;Online&#57440;Courses</tspan>&#8203;<tspan x="151.50" y="203.25" textLength="149.33" dx="0,0,0,18,0,0,0,0,0,0,0,0,0,0,0,0,0,0,0,0,0,0,0,0,0">iv.Educational&#57439;Technology</tspan>&#8203;<tspan x="153.75" y="218.25" textLength="171.44" dx="0,0,18.25,0,0,0,0,0,0,0,0,0,0,0,0,0,0,0,0,0,0,0,0,0,0,0,0,0">v.Google&#57439;Drive&#57439;&amp;&#57439;Google&#57439;Docs</tspan>&#8203;<tspan x="126.00" y="233.25" textLength="374.54" dx="0,0,9.37,0,0,0,0,0,0,0,0,0,0,0,0,0,0,0,0,0,0,0,0,0,0,0,0,0,0,0,0,0,0,0,0,0,0,0,0,0,0,0,0,0,0,0,0,0,0,0,0,0,0,0,0,0,0,0,0,0,0,0,0,0,0,0,0,0,0,0,0,0,0,0,0">b.In&#57439;addition,&#57439;generic&#57439;pleas&#57439;were&#57439;made&#57439;to&#57439;family&#57439;and&#57439;friends&#57439;in&#57439;my&#57439;circles.</tspan>&#8203;<tspan x="90.00" y="248.25" textLength="112.54" dx="0,0,9.37,0,0,0,0,0,0,0,0,0,0,0,0,0,0,0,0,0">4.Other&#57439;social&#57439;media</tspan>&#8203;<tspan x="126.00" y="263.25" textLength="371.44" dx="0,0,9.37,0,0,0,0,0,0,0,0,0,0,0,0,0,0,0,0,0,0,0,0,0,0,0,0,0,0,0,0,0,0,0,0,0,0,0,0,0,0,0,0,0,0,0,0,0,0,0,0,0,0,0,0,0,0,0,0,0,0,0,0,0,0,0,0,0,0,0">a.I&#57439;advertised&#57439;for&#57439;the&#57439;survey&#57439;on&#57439;Meetup.com&#57439;in&#57439;the&#57439;Boston&#57439;EdTech&#57439;group</tspan>&#8203;<tspan x="126.00" y="278.25" textLength="406.63" dx="0,0,9.37,0,0,0,0,0,0,0,0,0,0,0,0,0,0,0,0,0,0,0,0,0,0,0,0,0,0,0,0,0,0,0,0,0,0,0,0,0,0,0,0,0,0,0,0,0,0,0,0,0,0,0,0,0,0,0,0,0,0,0,0,0,0,0,0,0,0,0,0,0,0,0,0,0.18">b.I&#57439;made&#57439;several&#57439;pleas&#57439;on&#57439;Twitter&#57439;from&#57439;both&#57439;my&#57439;username&#57439;which&#57439;has&#57439;about&#57439;103&#57439;</tspan>&#8203;<tspan x="144.00" y="293.25" textLength="395.17">followers&#57439;and&#57439;using&#57439;my&#57439;company&#8217;s&#57439;Twitter&#57439;account&#57439;which&#57439;has&#57439;over&#57439;80&#57439;followers.</tspan>&#8203;<tspan x="72.00" y="308.25" textLength="474.88" dx="0,0,0,0,0,0,0,0,0,0,0,0,0,0,0,0,0,0,0,0,0,0,0,0,0,0,0,0,0,0,0,0,0,0,0,0,0,0,0,0,0,0,0,0,0,0,0,0,0,0,0,0,0,0,0,0,0,0,0,0,0,0,0,0,0,0,0,0,0,0,0,0,0,0,0,0,0,0,0,0,0,0,0,0,0,0,0,0,0,0,0,0,0,0,0,0,0,0.24">Additionally,&#57439;when&#57439;advertising&#57439;for&#57439;participants&#57439;to&#57439;take&#57439;the&#57439;survey,&#57439;they&#57439;were&#57439;offered&#57439;a&#57439;chance&#57439;to&#57439;</tspan>&#8203;<tspan x="72.00" y="323.25" textLength="449.38" dx="0,0,0,0,0,0,0,0,0,0,0,0,0,0,0,0,0,0,0,0,0,0,0,0,0,0,0,0,0,0,0,0,0,0,0,0,0,0,0,0,0,0,0,0,0,0,0,0,0,0,0,0,0,0,0,0,0,0,0,0,0,0,0,0,0,0,0,0,0,0,0,0,0,0,0,0,0,0,0,0,0,0,0,0,0,0,0,0,-0.22">win&#57439;either&#57439;a&#57439;Google&#57439;Chromecast&#57439;($35&#57439;value)&#57439;or&#57439;a&#57439;Leap&#57439;Motion&#57439;Controller&#57439;($80&#57439;value).&#57439;This&#57439;</tspan>&#8203;<tspan x="72.00" y="338.25" textLength="479.38" dx="0,0,0,0,0,0,0,0,0,0,0,0,0,0,0,0,0,0,0,0,0,0,0,0,0,0,0,0,0,0,0,0,0,0,0,0,0,0,0,0,0,0,0,0,0,0,0,0,0,0,0,0,0,0,0,0,0,0,0,0,0,0,0,0,0,0,0,0,0,0,0,0,0,0,0,0,0,0,0,0,0,0,0,0,0,0,0,0,0,0,0,0,0,0,0,0,0,0.36">incentive&#57439;was&#57439;determined&#57439;to&#57439;be&#57439;appropriate&#57439;since&#57439;it&#57439;was&#57439;unlikely&#57439;to&#57439;cause&#57439;any&#57439;of&#57439;the&#57439;participants&#57439;</tspan>&#8203;<tspan x="72.00" y="353.25" textLength="395.23">to&#57439;take&#57439;any&#57439;greater&#57439;risks&#57439;in&#57439;the&#57439;study&#57439;than&#57439;they&#57439;would&#57439;have&#57439;without&#57439;an&#57439;incentive.</tspan>&#8203;<tspan x="72.00" y="383.25" textLength="88.75" class="f36">Instrumentation:</tspan>&#8203;<tspan x="72.00" y="398.25" textLength="479.38" dx="0,0,0,0,0,0,0,0,0,0,0,0,0,0,0,0,0,0,0,0,0,0,0,0,0,0,0,0,0,0,0,0,0,0,0,0,0,0,0,0,0,0,0,0,0,0,0,0,0,0,0,0,0,0,0,0,0,0,0,0,0,0,0,0,0,0,0,0,0,0,0,0,0,0,0,0,0,0,0,0,0,0,0,0,0,0,0,0,0,0,0,0,0,0,0,0,0,0,0,-0.25">A&#57439;web&#57439;application&#57439;was&#57439;created&#57439;in&#57439;order&#57439;to&#57439;collect&#57439;certification&#57439;that&#57439;participants&#57439;were&#57439;over&#57439;the&#57439;age&#57439;</tspan>&#8203;<tspan x="72.00" y="413.25" textLength="461.38" dx="0,0,0,0,0,0,0,0,0,0,0,0,0,0,0,0,0,0,0,0,0,0,0,0,0,0,0,0,0,0,0,0,0,0,0,0,0,0,0,0,0,0,0,0,0,0,0,0,0,0,0,0,0,0,0,0,0,0,0,0,0,0,0,0,0,0,0,0,0,0,0,0,0,0,0,0,0,0,0,0,0,0,0,0,0,0,0,0,0,0,0,0,0,0,-0.13">of&#57439;18&#57439;and&#57439;in&#57439;order&#57439;to&#57439;randomize&#57439;the&#57439;particular&#57439;test&#57439;that&#57439;each&#57439;participant&#57439;would&#57439;take.&#57439;This&#57439;web&#57439;</tspan>&#8203;<tspan x="72.00" y="428.25" textLength="457.63" dx="0,0,0,0,0,0,0,0,0,0,0,0,0,0,0,0,0,0,0,0,0,0,0,0,0,0,0,0,0,0,0,0,0,0,0,0,0,0,0,0,0,0,0,0,0,0,0,0,0,0,0,0,0,0,0,0,0,0,0,0,0,0,0,0,0,0,0,0,0,0,0,0,0,0,0,0,0,0,0,0,0,0,0,0,0,0,0,0,0,0,0,0,0,0,-0.13">application&#57439;was&#57439;in&#57439;the&#57439;form&#57439;of&#57439;a&#57439;webpage&#57439;that&#57439;the&#57439;researcher&#57439;directed&#57439;willing&#57439;participants&#57439;to.&#57439;</tspan>&#8203;<tspan x="72.00" y="443.25" textLength="475.63" dx="0,0,0,0,0,0,0,0,0,0,0,0,0,0,0,0,0,0,0,0,0,0,0,0,0,0,0,0,0,0,0,0,0,0,0,0,0,0,0,0,0,0,0,0,0,0,0,0,0,0,0,0,0,0,0,0,0,0,0,0,0,0,0,0,0,0,0,0,0,0,0,0,0,0,0,0,0,0,0,0,0,0,0,0,0,0,0,0,0,0,0,0,0,0.34">Upon&#57439;arriving&#57439;at&#57439;the&#57439;web&#57439;page,&#57439;without&#57439;the&#57439;participants&#57439;knowledge,&#57439;a&#57439;JavaScript&#57439;code&#57439;assigned&#57439;</tspan>&#8203;<tspan x="72.00" y="458.25" textLength="476.38" dx="0,0,0,0,0,0,0,0,0,0,0,0,0,0,0,0,0,0,0,0,0,0,0,0,0,0,0,0,0,0,0,0,0,0,0,0,0,0,0,0,0,0,0,0,0,0,0,0,0,0,0,0,0,0,0,0,0,0,0,0,0,0,0,0,0,0,0,0,0,0,0,0,0,0,0,0,0,0,0,0,0,0,0,0,0,0,0,0,0,0,0,0,0,0,0,-0.15">one&#57439;of&#57439;four&#57439;Google&#57439;Forms&#57439;to&#57439;the&#57439;participant.&#57439;The&#57439;participants&#57439;provided&#57439;consent&#57439;to&#57439;being&#57439;over&#57439;18&#57439;</tspan>&#8203;<tspan x="72.00" y="473.25" textLength="109.43">by&#57439;clicking&#57439;on&#57439;the&#57439;link.</tspan>&#8203;<tspan x="72.00" y="488.25" textLength="335.13">The&#57439;four&#57439;Google&#57439;Forms&#57439;(tests)&#57439;were&#57439;structured&#57439;in&#57439;the&#57439;following&#57439;way:</tspan>&#8203;<tspan x="72.00" y="503.25" textLength="55.64" class="f36">(Table&#57371;1.1)</tspan></text><path d="M390 646.5 l93 0 l0 0.75 l-93 0 l0 -0.75 z "  style="fill:#000000;"/><path d="M390 684.75 l93 0 l0 0.75 l-93 0 l0 -0.75 z "  style="fill:#000000;"/><path d="M390 646.5 l0.75 0 l0 39 l-0.75 0 l0 -39 z "  style="fill:#000000;"/><path d="M482.25 646.5 l0.75 0 l0 39 l-0.75 0 l0 -39 z "  style="fill:#000000;"/><path d="M308.25 646.5 l82.5 0 l0 0.75 l-82.5 0 l0 -0.75 z "  style="fill:#000000;"/><path d="M308.25 684.75 l82.5 0 l0 0.75 l-82.5 0 l0 -0.75 z "  style="fill:#000000;"/><path d="M308.25 646.5 l0.75 0 l0 39 l-0.75 0 l0 -39 z "  style="fill:#000000;"/><path d="M390 646.5 l0.75 0 l0 39 l-0.75 0 l0 -39 z "  style="fill:#000000;"/><path d="M213.75 646.5 l95.25 0 l0 0.75 l-95.25 0 l0 -0.75 z "  style="fill:#000000;"/><path d="M213.75 684.75 l95.25 0 l0 0.75 l-95.25 0 l0 -0.75 z "  style="fill:#000000;"/><path d="M213.75 646.5 l0.75 0 l0 39 l-0.75 0 l0 -39 z "  style="fill:#000000;"/><path d="M308.25 646.5 l0.75 0 l0 39 l-0.75 0 l0 -39 z "  style="fill:#000000;"/><path d="M130.5 646.5 l84 0 l0 0.75 l-84 0 l0 -0.75 z "  style="fill:#000000;"/><path d="M130.5 684.75 l84 0 l0 0.75 l-84 0 l0 -0.75 z "  style="fill:#000000;"/><path d="M130.5 646.5 l0.75 0 l0 39 l-0.75 0 l0 -39 z "  style="fill:#000000;"/><path d="M213.75 646.5 l0.75 0 l0 39 l-0.75 0 l0 -39 z "  style="fill:#000000;"/><path d="M72 646.5 l59.25 0 l0 0.75 l-59.25 0 l0 -0.75 z "  style="fill:#000000;"/><path d="M72 684.75 l59.25 0 l0 0.75 l-59.25 0 l0 -0.75 z "  style="fill:#000000;"/><path d="M72 646.5 l0.75 0 l0 39 l-0.75 0 l0 -39 z "  style="fill:#000000;"/><path d="M130.5 646.5 l0.75 0 l0 39 l-0.75 0 l0 -39 z "  style="fill:#000000;"/><path d="M390 608.25 l93 0 l0 0.75 l-93 0 l0 -0.75 z "  style="fill:#000000;"/><path d="M390 646.5 l93 0 l0 0.75 l-93 0 l0 -0.75 z "  style="fill:#000000;"/><path d="M390 608.25 l0.75 0 l0 39 l-0.75 0 l0 -39 z "  style="fill:#000000;"/><path d="M482.25 608.25 l0.75 0 l0 39 l-0.75 0 l0 -39 z "  style="fill:#000000;"/><path d="M308.25 608.25 l82.5 0 l0 0.75 l-82.5 0 l0 -0.75 z "  style="fill:#000000;"/><path d="M308.25 646.5 l82.5 0 l0 0.75 l-82.5 0 l0 -0.75 z "  style="fill:#000000;"/><path d="M308.25 608.25 l0.75 0 l0 39 l-0.75 0 l0 -39 z "  style="fill:#000000;"/><path d="M390 608.25 l0.75 0 l0 39 l-0.75 0 l0 -39 z "  style="fill:#000000;"/><path d="M213.75 608.25 l95.25 0 l0 0.75 l-95.25 0 l0 -0.75 z "  style="fill:#000000;"/><path d="M213.75 646.5 l95.25 0 l0 0.75 l-95.25 0 l0 -0.75 z "  style="fill:#000000;"/><path d="M213.75 608.25 l0.75 0 l0 39 l-0.75 0 l0 -39 z "  style="fill:#000000;"/><path d="M308.25 608.25 l0.75 0 l0 39 l-0.75 0 l0 -39 z "  style="fill:#000000;"/><path d="M130.5 608.25 l84 0 l0 0.75 l-84 0 l0 -0.75 z "  style="fill:#000000;"/><path d="M130.5 646.5 l84 0 l0 0.75 l-84 0 l0 -0.75 z "  style="fill:#000000;"/><path d="M130.5 608.25 l0.75 0 l0 39 l-0.75 0 l0 -39 z "  style="fill:#000000;"/><path d="M213.75 608.25 l0.75 0 l0 39 l-0.75 0 l0 -39 z "  style="fill:#000000;"/><path d="M72 608.25 l59.25 0 l0 0.75 l-59.25 0 l0 -0.75 z "  style="fill:#000000;"/><path d="M72 646.5 l59.25 0 l0 0.75 l-59.25 0 l0 -0.75 z "  style="fill:#000000;"/><path d="M72 608.25 l0.75 0 l0 39 l-0.75 0 l0 -39 z "  style="fill:#000000;"/><path d="M130.5 608.25 l0.75 0 l0 39 l-0.75 0 l0 -39 z "  style="fill:#000000;"/><path d="M390 570 l93 0 l0 0.75 l-93 0 l0 -0.75 z "  style="fill:#000000;"/><path d="M390 608.25 l93 0 l0 0.75 l-93 0 l0 -0.75 z "  style="fill:#000000;"/><path d="M390 570 l0.75 0 l0 39 l-0.75 0 l0 -39 z "  style="fill:#000000;"/><path d="M482.25 570 l0.75 0 l0 39 l-0.75 0 l0 -39 z "  style="fill:#000000;"/><path d="M308.25 570 l82.5 0 l0 0.75 l-82.5 0 l0 -0.75 z "  style="fill:#000000;"/><path d="M308.25 608.25 l82.5 0 l0 0.75 l-82.5 0 l0 -0.75 z "  style="fill:#000000;"/><path d="M308.25 570 l0.75 0 l0 39 l-0.75 0 l0 -39 z "  style="fill:#000000;"/><path d="M390 570 l0.75 0 l0 39 l-0.75 0 l0 -39 z "  style="fill:#000000;"/><path d="M213.75 570 l95.25 0 l0 0.75 l-95.25 0 l0 -0.75 z "  style="fill:#000000;"/><path d="M213.75 608.25 l95.25 0 l0 0.75 l-95.25 0 l0 -0.75 z "  style="fill:#000000;"/><path d="M213.75 570 l0.75 0 l0 39 l-0.75 0 l0 -39 z "  style="fill:#000000;"/><path d="M308.25 570 l0.75 0 l0 39 l-0.75 0 l0 -39 z "  style="fill:#000000;"/><path d="M130.5 570 l84 0 l0 0.75 l-84 0 l0 -0.75 z "  style="fill:#000000;"/><path d="M130.5 608.25 l84 0 l0 0.75 l-84 0 l0 -0.75 z "  style="fill:#000000;"/><path d="M130.5 570 l0.75 0 l0 39 l-0.75 0 l0 -39 z "  style="fill:#000000;"/><path d="M213.75 570 l0.75 0 l0 39 l-0.75 0 l0 -39 z "  style="fill:#000000;"/><path d="M72 570 l59.25 0 l0 0.75 l-59.25 0 l0 -0.75 z "  style="fill:#000000;"/><path d="M72 608.25 l59.25 0 l0 0.75 l-59.25 0 l0 -0.75 z "  style="fill:#000000;"/><path d="M72 570 l0.75 0 l0 39 l-0.75 0 l0 -39 z "  style="fill:#000000;"/><path d="M130.5 570 l0.75 0 l0 39 l-0.75 0 l0 -39 z "  style="fill:#000000;"/><path d="M390 531.75 l93 0 l0 0.75 l-93 0 l0 -0.75 z "  style="fill:#000000;"/><path d="M390 570 l93 0 l0 0.75 l-93 0 l0 -0.75 z "  style="fill:#000000;"/><path d="M390 531.75 l0.75 0 l0 39 l-0.75 0 l0 -39 z "  style="fill:#000000;"/><path d="M482.25 531.75 l0.75 0 l0 39 l-0.75 0 l0 -39 z "  style="fill:#000000;"/><path d="M308.25 531.75 l82.5 0 l0 0.75 l-82.5 0 l0 -0.75 z "  style="fill:#000000;"/><path d="M308.25 570 l82.5 0 l0 0.75 l-82.5 0 l0 -0.75 z "  style="fill:#000000;"/><path d="M308.25 531.75 l0.75 0 l0 39 l-0.75 0 l0 -39 z "  style="fill:#000000;"/><path d="M390 531.75 l0.75 0 l0 39 l-0.75 0 l0 -39 z "  style="fill:#000000;"/><path d="M213.75 531.75 l95.25 0 l0 0.75 l-95.25 0 l0 -0.75 z "  style="fill:#000000;"/><path d="M213.75 570 l95.25 0 l0 0.75 l-95.25 0 l0 -0.75 z "  style="fill:#000000;"/><path d="M213.75 531.75 l0.75 0 l0 39 l-0.75 0 l0 -39 z "  style="fill:#000000;"/><path d="M308.25 531.75 l0.75 0 l0 39 l-0.75 0 l0 -39 z "  style="fill:#000000;"/><path d="M130.5 531.75 l84 0 l0 0.75 l-84 0 l0 -0.75 z "  style="fill:#000000;"/><path d="M130.5 570 l84 0 l0 0.75 l-84 0 l0 -0.75 z "  style="fill:#000000;"/><path d="M130.5 531.75 l0.75 0 l0 39 l-0.75 0 l0 -39 z "  style="fill:#000000;"/><path d="M213.75 531.75 l0.75 0 l0 39 l-0.75 0 l0 -39 z "  style="fill:#000000;"/><path d="M72 531.75 l59.25 0 l0 0.75 l-59.25 0 l0 -0.75 z "  style="fill:#000000;"/><path d="M72 570 l59.25 0 l0 0.75 l-59.25 0 l0 -0.75 z "  style="fill:#000000;"/><path d="M72 531.75 l0.75 0 l0 39 l-0.75 0 l0 -39 z "  style="fill:#000000;"/><path d="M130.5 531.75 l0.75 0 l0 39 l-0.75 0 l0 -39 z "  style="fill:#000000;"/><path d="M390 507 l93 0 l0 0.75 l-93 0 l0 -0.75 z "  style="fill:#000000;"/><path d="M390 531.75 l93 0 l0 0.75 l-93 0 l0 -0.75 z "  style="fill:#000000;"/><path d="M390 507 l0.75 0 l0 25.5 l-0.75 0 l0 -25.5 z "  style="fill:#000000;"/><path d="M482.25 507 l0.75 0 l0 25.5 l-0.75 0 l0 -25.5 z "  style="fill:#000000;"/><path d="M308.25 507 l82.5 0 l0 0.75 l-82.5 0 l0 -0.75 z "  style="fill:#000000;"/><path d="M308.25 531.75 l82.5 0 l0 0.75 l-82.5 0 l0 -0.75 z "  style="fill:#000000;"/><path d="M308.25 507 l0.75 0 l0 25.5 l-0.75 0 l0 -25.5 z "  style="fill:#000000;"/><path d="M390 507 l0.75 0 l0 25.5 l-0.75 0 l0 -25.5 z "  style="fill:#000000;"/><path d="M213.75 507 l95.25 0 l0 0.75 l-95.25 0 l0 -0.75 z "  style="fill:#000000;"/><path d="M213.75 531.75 l95.25 0 l0 0.75 l-95.25 0 l0 -0.75 z "  style="fill:#000000;"/><path d="M213.75 507 l0.75 0 l0 25.5 l-0.75 0 l0 -25.5 z "  style="fill:#000000;"/><path d="M308.25 507 l0.75 0 l0 25.5 l-0.75 0 l0 -25.5 z "  style="fill:#000000;"/><path d="M130.5 507 l84 0 l0 0.75 l-84 0 l0 -0.75 z "  style="fill:#000000;"/><path d="M130.5 531.75 l84 0 l0 0.75 l-84 0 l0 -0.75 z "  style="fill:#000000;"/><path d="M130.5 507 l0.75 0 l0 25.5 l-0.75 0 l0 -25.5 z "  style="fill:#000000;"/><path d="M213.75 507 l0.75 0 l0 25.5 l-0.75 0 l0 -25.5 z "  style="fill:#000000;"/><path d="M72 507 l59.25 0 l0 0.75 l-59.25 0 l0 -0.75 z "  style="fill:#000000;"/><path d="M72 531.75 l59.25 0 l0 0.75 l-59.25 0 l0 -0.75 z "  style="fill:#000000;"/><path d="M72 507 l0.75 0 l0 25.5 l-0.75 0 l0 -25.5 z "  style="fill:#000000;"/><path d="M130.5 507 l0.75 0 l0 25.5 l-0.75 0 l0 -25.5 z "  style="fill:#000000;"/></g><text class="f36" font-size="11.25" style="fill:#000000"><tspan x="78.00" y="524.25" textLength="23.13">Test</tspan></text><text class="f36" font-size="11.25" style="fill:#000000"><tspan x="136.50" y="524.25" textLength="33.76">Step&#57371;1</tspan></text><text class="f36" font-size="11.25" style="fill:#000000"><tspan x="219.75" y="524.25" textLength="33.76">Step&#57371;2</tspan></text><text class="f36" font-size="11.25" style="fill:#000000"><tspan x="314.25" y="524.25" textLength="33.76">Step&#57371;3</tspan></text><text class="f36" font-size="11.25" style="fill:#000000"><tspan x="396.00" y="524.25" textLength="33.76">Step&#57371;4</tspan></text><text class="f34" font-size="11.25" style="fill:#000000"><tspan x="78.00" y="549.00" textLength="37.52">Test&#57439;1a</tspan></text><text class="f34" font-size="11.25" style="fill:#000000"><tspan x="136.50" y="549.00" textLength="37.63" dx="0,0,0,0,0,0,0,0.11">Text&#57439;of&#57439;</tspan>&#8203;<tspan x="136.50" y="562.50" textLength="46.91">Lecture&#57439;1</tspan></text><text class="f34" font-size="11.25" style="fill:#000000"><tspan x="219.75" y="549.00" textLength="82.63" dx="0,0,0,0,0,0,0,0,0,0,0,0,0,0.08">Comprehension&#57439;</tspan>&#8203;<tspan x="219.75" y="562.50" textLength="50.65">Questions</tspan></text><text class="f34" font-size="11.25" style="fill:#000000"><tspan x="314.25" y="549.00" textLength="44.38" dx="0,0,0,0,0,0,0,0,-0.03">Video&#57439;of&#57439;</tspan>&#8203;<tspan x="314.25" y="562.50" textLength="46.91">Lecture&#57439;2</tspan></text><text class="f34" font-size="11.25" style="fill:#000000"><tspan x="396.00" y="549.00" textLength="82.63" dx="0,0,0,0,0,0,0,0,0,0,0,0,0,0.08">Comprehension&#57439;</tspan>&#8203;<tspan x="396.00" y="562.50" textLength="50.65">Questions</tspan></text><text class="f34" font-size="11.25" style="fill:#000000"><tspan x="78.00" y="587.25" textLength="37.52">Test&#57439;1b</tspan></text><text class="f34" font-size="11.25" style="fill:#000000"><tspan x="136.50" y="587.25" textLength="37.63" dx="0,0,0,0,0,0,0,0.11">Text&#57439;of&#57439;</tspan>&#8203;<tspan x="136.50" y="600.75" textLength="46.91">Lecture&#57439;2</tspan></text><text class="f34" font-size="11.25" style="fill:#000000"><tspan x="219.75" y="587.25" textLength="82.63" dx="0,0,0,0,0,0,0,0,0,0,0,0,0,0.08">Comprehension&#57439;</tspan>&#8203;<tspan x="219.75" y="600.75" textLength="50.65">Questions</tspan></text><text class="f34" font-size="11.25" style="fill:#000000"><tspan x="314.25" y="587.25" textLength="37.63" dx="0,0,0,0,0,0,0,0.11">Text&#57439;of&#57439;</tspan>&#8203;<tspan x="314.25" y="600.75" textLength="46.91">Lecture&#57439;1</tspan></text><text class="f34" font-size="11.25" style="fill:#000000"><tspan x="396.00" y="587.25" textLength="82.63" dx="0,0,0,0,0,0,0,0,0,0,0,0,0,0.08">Comprehension&#57439;</tspan>&#8203;<tspan x="396.00" y="600.75" textLength="50.65">Questions</tspan></text><text class="f34" font-size="11.25" style="fill:#000000"><tspan x="78.00" y="625.50" textLength="37.52">Test&#57439;2a</tspan></text><text class="f34" font-size="11.25" style="fill:#000000"><tspan x="136.50" y="625.50" textLength="44.38" dx="0,0,0,0,0,0,0,0,-0.03">Video&#57439;of&#57439;</tspan>&#8203;<tspan x="136.50" y="639.00" textLength="46.91">Lecture&#57439;1</tspan></text><text class="f34" font-size="11.25" style="fill:#000000"><tspan x="219.75" y="625.50" textLength="82.63" dx="0,0,0,0,0,0,0,0,0,0,0,0,0,0.08">Comprehension&#57439;</tspan>&#8203;<tspan x="219.75" y="639.00" textLength="50.65">Questions</tspan></text><text class="f34" font-size="11.25" style="fill:#000000"><tspan x="314.25" y="625.50" textLength="44.38" dx="0,0,0,0,0,0,0,0,-0.03">Video&#57439;of&#57439;</tspan>&#8203;<tspan x="314.25" y="639.00" textLength="46.91">Lecture&#57439;2</tspan></text><text class="f34" font-size="11.25" style="fill:#000000"><tspan x="396.00" y="625.50" textLength="82.63" dx="0,0,0,0,0,0,0,0,0,0,0,0,0,0.08">Comprehension&#57439;</tspan>&#8203;<tspan x="396.00" y="639.00" textLength="50.65">Questions</tspan></text><text class="f34" font-size="11.25" style="fill:#000000"><tspan x="78.00" y="663.75" textLength="37.52">Test&#57439;2b</tspan></text><text class="f34" font-size="11.25" style="fill:#000000"><tspan x="136.50" y="663.75" textLength="44.38" dx="0,0,0,0,0,0,0,0,-0.03">Video&#57439;of&#57439;</tspan>&#8203;<tspan x="136.50" y="677.25" textLength="46.91">Lecture&#57439;2</tspan></text><text class="f34" font-size="11.25" style="fill:#000000"><tspan x="219.75" y="663.75" textLength="82.63" dx="0,0,0,0,0,0,0,0,0,0,0,0,0,0.08">Comprehension&#57439;</tspan>&#8203;<tspan x="219.75" y="677.25" textLength="50.65">Questions</tspan></text><text class="f34" font-size="11.25" style="fill:#000000"><tspan x="314.25" y="663.75" textLength="37.63" dx="0,0,0,0,0,0,0,0.11">Text&#57439;of&#57439;</tspan>&#8203;<tspan x="314.25" y="677.25" textLength="46.91">Lecture&#57439;1</tspan></text><text class="f34" font-size="11.25" style="fill:#000000"><tspan x="396.00" y="663.75" textLength="82.63" dx="0,0,0,0,0,0,0,0,0,0,0,0,0,0.08">Comprehension&#57439;</tspan>&#8203;<tspan x="396.00" y="677.25" textLength="50.65">Questions</tspan></text><text class="f34" font-size="11.25" style="fill:#000000"><tspan x="72.00" y="711.75" textLength="395.23">Due&#57439;to&#57439;the&#57439;random&#57439;assignment,&#57439;at&#57439;least&#57439;25&#57439;participants&#57439;took&#57439;each&#57439;of&#57439;the&#57439;4&#57439;tests.</tspan></text>
</svg>
