<svg class="crocodoc-kA5os8 crocodoc-page-svg" version="1.1"
    xmlns="http://www.w3.org/2000/svg"
    xmlns:xlink="http://www.w3.org/1999/xlink"
    xmlns:xhtml="http://www.w3.org/1999/xhtml"
    xml:space="preserve" width="612.0pt" height="792.0pt" viewBox="0 0 612.0 792.0">
<xhtml:link href="stylesheet.css" type="text/css" rel="stylesheet" />
<style>
.crocodoc-kA5os8 tspan { white-space:pre; direction:ltr; unicode-bidi:bidi-override; }
.crocodoc-kA5os8 path { fill:transparent; }
.crocodoc-kA5os8 [mbm="1"] { opacity:0; }
.crocodoc-kA5os8 [mbm="2"] { opacity:0.3; }
.crocodoc-kA5os8 [mbm="3"] { opacity:0.5; }
@supports (mix-blend-mode: multiply) {
.crocodoc-kA5os8 [mbm] { opacity:1; }
}

</style>
<defs>

</defs>
<text class="fti915" font-size="12.00" style="fill:#000000"><tspan x="72.02" y="46.80" textLength="295.37" dx="0,0,-0.04,0,0.1,-0.16,0,0.05,0,0.03,0,0,-0.04,-0.07,0.11,-0.13,0,0.13,0,-0.04,0.02,0,0,0.02,0.02,0,0.02,0,-0.04,0.09,0,0.07,-0.28,0.08,0,0,0,0,0.06,-0.16,0,0.16">THE IMPACT OF LECTURE PRESENTATION MEDIUM </tspan>&#8203;<tspan x="528.12" y="46.80" textLength="12.0">21</tspan>&#8203;<tspan x="540.12" y="46.80" textLength="3.0" class="fti820"> </tspan></text><path d="M72.5 86.3 l5.16 0 l0 -13.82 l-5.16 0 l0 13.82 z "  style="fill:#a5a5a5;fill-rule:evenodd;"/><path d="M120.62 86.3 l5.4 0 l0 -13.82 l-5.4 0 l0 13.82 z "  style="fill:#a5a5a5;fill-rule:evenodd;"/><path d="M77.66 86.3 l42.96 0 l0 -13.82 l-42.96 0 l0 13.82 z "  style="fill:#a5a5a5;fill-rule:evenodd;"/><text class="fti820" font-size="12.00" style="fill:#000000"><tspan x="77.66" y="83.52" textLength="21.97" dx="0,0.02,-0.05,0">Test</tspan></text><text class="fti820" font-size="12.00" style="fill:#ffffff"><tspan x="99.62" y="83.52" textLength="3.0"> </tspan></text><path d="M126.02 86.3 l5.4 0 l0 -13.82 l-5.4 0 l0 13.82 z "  style="fill:#a5a5a5;fill-rule:evenodd;"/><path d="M228.65 86.3 l5.4 0 l0 -13.82 l-5.4 0 l0 13.82 z "  style="fill:#a5a5a5;fill-rule:evenodd;"/><path d="M131.42 86.3 l97.22 0 l0 -13.82 l-97.22 0 l0 13.82 z "  style="fill:#a5a5a5;fill-rule:evenodd;"/><text class="fti820" font-size="12.00" style="fill:#000000"><tspan x="131.42" y="83.52" textLength="31.66" dx="0,0.04,0,-0.08,0.04,0">Step 1</tspan></text><text class="fti820" font-size="12.00" style="fill:#ffffff"><tspan x="163.10" y="83.52" textLength="3.0"> </tspan></text><path d="M234.05 86.3 l5.4 0 l0 -13.82 l-5.4 0 l0 13.82 z "  style="fill:#a5a5a5;fill-rule:evenodd;"/><path d="M323.11 86.3 l5.52 0 l0 -13.82 l-5.52 0 l0 13.82 z "  style="fill:#a5a5a5;fill-rule:evenodd;"/><path d="M239.45 86.3 l83.66 0 l0 -13.82 l-83.66 0 l0 13.82 z "  style="fill:#a5a5a5;fill-rule:evenodd;"/><text class="fti820" font-size="12.00" style="fill:#000000"><tspan x="239.45" y="83.52" textLength="31.66" dx="0,0.04,0,-0.08,0.04,0">Step 2</tspan></text><text class="fti820" font-size="12.00" style="fill:#ffffff"><tspan x="271.13" y="83.52" textLength="3.0"> </tspan></text><path d="M328.63 86.3 l5.28 0 l0 -13.82 l-5.28 0 l0 13.82 z "  style="fill:#a5a5a5;fill-rule:evenodd;"/><path d="M431.14 86.3 l5.52 0 l0 -13.82 l-5.52 0 l0 13.82 z "  style="fill:#a5a5a5;fill-rule:evenodd;"/><path d="M333.91 86.3 l97.22 0 l0 -13.82 l-97.22 0 l0 13.82 z "  style="fill:#a5a5a5;fill-rule:evenodd;"/><text class="fti820" font-size="12.00" style="fill:#000000"><tspan x="333.91" y="83.52" textLength="31.66" dx="0,0.04,0,-0.08,0.04,0">Step 3</tspan></text><text class="fti820" font-size="12.00" style="fill:#ffffff"><tspan x="365.59" y="83.52" textLength="3.0"> </tspan></text><path d="M436.66 86.3 l5.28 0 l0 -13.82 l-5.28 0 l0 13.82 z "  style="fill:#a5a5a5;fill-rule:evenodd;"/><path d="M534.48 86.3 l5.16 0 l0 -13.82 l-5.16 0 l0 13.82 z "  style="fill:#a5a5a5;fill-rule:evenodd;"/><path d="M441.94 86.3 l92.54 0 l0 -13.82 l-92.54 0 l0 13.82 z "  style="fill:#a5a5a5;fill-rule:evenodd;"/><text class="fti820" font-size="12.00" style="fill:#000000"><tspan x="441.94" y="83.52" textLength="31.66" dx="0,0.04,0,-0.08,0.04,0">Step 4</tspan></text><text class="fti820" font-size="12.00" style="fill:#ffffff"><tspan x="473.62" y="83.52" textLength="3.0"> </tspan></text><path d="M72.02 72.48 l0.48 0 l0 -0.48 l-0.48 0 l0 0.48 z "  style="fill:#ffffff;fill-rule:evenodd;"/><path d="M72.02 72.48 l0.48 0 l0 -0.48 l-0.48 0 l0 0.48 z "  style="fill:#ffffff;fill-rule:evenodd;"/><path d="M72.5 72.48 l53.52 0 l0 -0.48 l-53.52 0 l0 0.48 z "  style="fill:#ffffff;fill-rule:evenodd;"/><path d="M126.02 72.48 l0.48 0 l0 -0.48 l-0.48 0 l0 0.48 z "  style="fill:#ffffff;fill-rule:evenodd;"/><path d="M126.5 72.48 l107.54 0 l0 -0.48 l-107.54 0 l0 0.48 z "  style="fill:#ffffff;fill-rule:evenodd;"/><path d="M234.05 72.48 l0.48 0 l0 -0.48 l-0.48 0 l0 0.48 z "  style="fill:#ffffff;fill-rule:evenodd;"/><path d="M234.53 72.48 l94.1 0 l0 -0.48 l-94.1 0 l0 0.48 z "  style="fill:#ffffff;fill-rule:evenodd;"/><path d="M328.63 72.48 l0.48 0 l0 -0.48 l-0.48 0 l0 0.48 z "  style="fill:#ffffff;fill-rule:evenodd;"/><path d="M329.11 72.48 l107.54 0 l0 -0.48 l-107.54 0 l0 0.48 z "  style="fill:#ffffff;fill-rule:evenodd;"/><path d="M436.66 72.48 l0.48 0 l0 -0.48 l-0.48 0 l0 0.48 z "  style="fill:#ffffff;fill-rule:evenodd;"/><path d="M437.14 72.48 l102.5 0 l0 -0.48 l-102.5 0 l0 0.48 z "  style="fill:#ffffff;fill-rule:evenodd;"/><path d="M539.64 72.48 l0.48 0 l0 -0.48 l-0.48 0 l0 0.48 z "  style="fill:#ffffff;fill-rule:evenodd;"/><path d="M539.64 72.48 l0.48 0 l0 -0.48 l-0.48 0 l0 0.48 z "  style="fill:#ffffff;fill-rule:evenodd;"/><path d="M72.02 86.3 l0.48 0 l0 -13.82 l-0.48 0 l0 13.82 z "  style="fill:#ffffff;fill-rule:evenodd;"/><path d="M539.64 86.3 l0.48 0 l0 -13.82 l-0.48 0 l0 13.82 z "  style="fill:#ffffff;fill-rule:evenodd;"/><path d="M72.5 100.58 l5.16 0 l0 -13.8 l-5.16 0 l0 13.8 z "  style="fill:#a5a5a5;fill-rule:evenodd;"/><path d="M120.62 100.58 l5.16 0 l0 -13.8 l-5.16 0 l0 13.8 z "  style="fill:#a5a5a5;fill-rule:evenodd;"/><path d="M72.5 114.38 l53.28 0 l0 -13.8 l-53.28 0 l0 13.8 z "  style="fill:#a5a5a5;fill-rule:evenodd;"/><path d="M77.66 100.58 l42.96 0 l0 -13.8 l-42.96 0 l0 13.8 z "  style="fill:#a5a5a5;fill-rule:evenodd;"/><text class="fti820" font-size="12.00" style="fill:#000000"><tspan x="77.66" y="97.82" textLength="36.97" dx="0,0.02,-0.05,0,0,0,0">Test 1a</tspan></text><text class="fti820" font-size="12.00" style="fill:#ffffff"><tspan x="114.62" y="97.82" textLength="3.0"> </tspan></text><path d="M126.26 100.58 l5.16 0 l0 -13.8 l-5.16 0 l0 13.8 z "  style="fill:#dbdbdb;fill-rule:evenodd;"/><path d="M228.65 100.58 l5.16 0 l0 -13.8 l-5.16 0 l0 13.8 z "  style="fill:#dbdbdb;fill-rule:evenodd;"/><path d="M126.26 114.38 l107.54 0 l0 -13.8 l-107.54 0 l0 13.8 z "  style="fill:#dbdbdb;fill-rule:evenodd;"/><path d="M131.42 100.58 l97.22 0 l0 -13.8 l-97.22 0 l0 13.8 z "  style="fill:#dbdbdb;fill-rule:evenodd;"/><text class="fti915" font-size="12.00" style="fill:#000000"><tspan x="131.42" y="97.58" textLength="83.48" dx="0,0,-0.06,0.11,0,0,0,0,0.1,-0.25,-0.05,-0.05,0,0.13,0,-0.08,0">Text of Lecture 1</tspan></text><text class="fti915" font-size="12.00" style="fill:#000000"><tspan x="215.09" y="97.58" textLength="3.0"> </tspan></text><path d="M234.29 114.38 l5.16 0 l0 -27.6 l-5.16 0 l0 27.6 z "  style="fill:#dbdbdb;fill-rule:evenodd;"/><path d="M323.11 114.38 l5.16 0 l0 -27.6 l-5.16 0 l0 27.6 z "  style="fill:#dbdbdb;fill-rule:evenodd;"/><path d="M239.45 100.58 l83.66 0 l0 -13.8 l-83.66 0 l0 13.8 z "  style="fill:#dbdbdb;fill-rule:evenodd;"/><text class="fti915" font-size="12.00" style="fill:#000000"><tspan x="239.45" y="97.58" textLength="78.94" dx="0,0.02,0,0,0,0,-0.06,0,-0.05,0,0,0,0,0.02">Comprehension </tspan></text><path d="M239.45 114.38 l83.66 0 l0 -13.8 l-83.66 0 l0 13.8 z "  style="fill:#dbdbdb;fill-rule:evenodd;"/><text class="fti915" font-size="12.00" style="fill:#000000"><tspan x="239.45" y="111.38" textLength="47.98" dx="0,0,0,-0.07,0,0,0.05,0,0">Questions</tspan></text><text class="fti915" font-size="12.00" style="fill:#000000"><tspan x="287.45" y="111.38" textLength="3.0"> </tspan></text><path d="M328.87 100.58 l5.04 0 l0 -13.8 l-5.04 0 l0 13.8 z "  style="fill:#dbdbdb;fill-rule:evenodd;"/><path d="M431.14 100.58 l5.16 0 l0 -13.8 l-5.16 0 l0 13.8 z "  style="fill:#dbdbdb;fill-rule:evenodd;"/><path d="M328.87 114.38 l107.42 0 l0 -13.8 l-107.42 0 l0 13.8 z "  style="fill:#dbdbdb;fill-rule:evenodd;"/><path d="M333.91 100.58 l97.22 0 l0 -13.8 l-97.22 0 l0 13.8 z "  style="fill:#dbdbdb;fill-rule:evenodd;"/><text class="fti915" font-size="12.00" style="fill:#000000"><tspan x="333.91" y="97.58" textLength="90.82" dx="0,0,0,0,-0.05,0,0,0,0,0.07,-0.13,0.06,-0.05,0,0,0,-0.06,0">Video of Lecture 2</tspan></text><text class="fti915" font-size="12.00" style="fill:#000000"><tspan x="424.90" y="97.58" textLength="3.0"> </tspan></text><path d="M436.9 114.38 l5.04 0 l0 -27.6 l-5.04 0 l0 27.6 z "  style="fill:#dbdbdb;fill-rule:evenodd;"/><path d="M534.48 114.38 l5.16 0 l0 -27.6 l-5.16 0 l0 27.6 z "  style="fill:#dbdbdb;fill-rule:evenodd;"/><path d="M441.94 100.58 l92.54 0 l0 -13.8 l-92.54 0 l0 13.8 z "  style="fill:#dbdbdb;fill-rule:evenodd;"/><text class="fti915" font-size="12.00" style="fill:#000000"><tspan x="441.94" y="97.58" textLength="78.94" dx="0,0.02,0,0,0,0,-0.06,0,-0.05,0,0,0,0,0.02">Comprehension </tspan></text><path d="M441.94 114.38 l92.54 0 l0 -13.8 l-92.54 0 l0 13.8 z "  style="fill:#dbdbdb;fill-rule:evenodd;"/><text class="fti915" font-size="12.00" style="fill:#000000"><tspan x="441.94" y="111.38" textLength="47.98" dx="0,0,0,-0.07,0,0,0.05,0,0">Questions</tspan></text><text class="fti915" font-size="12.00" style="fill:#000000"><tspan x="489.94" y="111.38" textLength="3.0"> </tspan></text><path d="M72.02 86.78 l0.48 0 l0 -0.48 l-0.48 0 l0 0.48 z "  style="fill:#ffffff;fill-rule:evenodd;"/><path d="M72.5 86.78 l53.28 0 l0 -0.48 l-53.28 0 l0 0.48 z "  style="fill:#ffffff;fill-rule:evenodd;"/><path d="M125.78 86.78 l0.48 0 l0 -0.48 l-0.48 0 l0 0.48 z "  style="fill:#ffffff;fill-rule:evenodd;"/><path d="M126.26 86.78 l0.48 0 l0 -0.48 l-0.48 0 l0 0.48 z "  style="fill:#ffffff;fill-rule:evenodd;"/><path d="M126.74 86.78 l107.06 0 l0 -0.48 l-107.06 0 l0 0.48 z "  style="fill:#ffffff;fill-rule:evenodd;"/><path d="M233.81 86.78 l0.48 0 l0 -0.48 l-0.48 0 l0 0.48 z "  style="fill:#ffffff;fill-rule:evenodd;"/><path d="M234.29 86.78 l0.48 0 l0 -0.48 l-0.48 0 l0 0.48 z "  style="fill:#ffffff;fill-rule:evenodd;"/><path d="M234.77 86.78 l93.62 0 l0 -0.48 l-93.62 0 l0 0.48 z "  style="fill:#ffffff;fill-rule:evenodd;"/><path d="M328.39 86.78 l0.48 0 l0 -0.48 l-0.48 0 l0 0.48 z "  style="fill:#ffffff;fill-rule:evenodd;"/><path d="M328.87 86.78 l0.48 0 l0 -0.48 l-0.48 0 l0 0.48 z "  style="fill:#ffffff;fill-rule:evenodd;"/><path d="M329.35 86.78 l107.06 0 l0 -0.48 l-107.06 0 l0 0.48 z "  style="fill:#ffffff;fill-rule:evenodd;"/><path d="M436.42 86.78 l0.48 0 l0 -0.48 l-0.48 0 l0 0.48 z "  style="fill:#ffffff;fill-rule:evenodd;"/><path d="M436.9 86.78 l0.48 0 l0 -0.48 l-0.48 0 l0 0.48 z "  style="fill:#ffffff;fill-rule:evenodd;"/><path d="M437.38 86.78 l102.26 0 l0 -0.48 l-102.26 0 l0 0.48 z "  style="fill:#ffffff;fill-rule:evenodd;"/><path d="M539.64 86.78 l0.48 0 l0 -0.48 l-0.48 0 l0 0.48 z "  style="fill:#ffffff;fill-rule:evenodd;"/><path d="M72.02 114.38 l0.48 0 l0 -27.6 l-0.48 0 l0 27.6 z "  style="fill:#ffffff;fill-rule:evenodd;"/><path d="M125.78 114.38 l0.48 0 l0 -27.6 l-0.48 0 l0 27.6 z "  style="fill:#ffffff;fill-rule:evenodd;"/><path d="M233.81 114.38 l0.48 0 l0 -27.6 l-0.48 0 l0 27.6 z "  style="fill:#ffffff;fill-rule:evenodd;"/><path d="M328.39 114.38 l0.48 0 l0 -27.6 l-0.48 0 l0 27.6 z "  style="fill:#ffffff;fill-rule:evenodd;"/><path d="M436.42 114.38 l0.48 0 l0 -27.6 l-0.48 0 l0 27.6 z "  style="fill:#ffffff;fill-rule:evenodd;"/><path d="M539.64 114.38 l0.48 0 l0 -27.6 l-0.48 0 l0 27.6 z "  style="fill:#ffffff;fill-rule:evenodd;"/><path d="M72.5 128.66 l5.16 0 l0 -13.8 l-5.16 0 l0 13.8 z "  style="fill:#a5a5a5;fill-rule:evenodd;"/><path d="M120.62 128.66 l5.16 0 l0 -13.8 l-5.16 0 l0 13.8 z "  style="fill:#a5a5a5;fill-rule:evenodd;"/><path d="M72.5 142.46 l53.28 0 l0 -13.8 l-53.28 0 l0 13.8 z "  style="fill:#a5a5a5;fill-rule:evenodd;"/><path d="M77.66 128.66 l42.96 0 l0 -13.8 l-42.96 0 l0 13.8 z "  style="fill:#a5a5a5;fill-rule:evenodd;"/><text class="fti820" font-size="12.00" style="fill:#000000"><tspan x="77.66" y="125.90" textLength="37.64" dx="0,0.02,-0.05,0,0,0,0">Test 1b</tspan></text><text class="fti820" font-size="12.00" style="fill:#ffffff"><tspan x="115.34" y="125.90" textLength="3.0"> </tspan></text><path d="M126.26 128.66 l5.16 0 l0 -13.8 l-5.16 0 l0 13.8 z "  style="fill:#ededed;fill-rule:evenodd;"/><path d="M228.65 128.66 l5.16 0 l0 -13.8 l-5.16 0 l0 13.8 z "  style="fill:#ededed;fill-rule:evenodd;"/><path d="M126.26 142.46 l107.54 0 l0 -13.8 l-107.54 0 l0 13.8 z "  style="fill:#ededed;fill-rule:evenodd;"/><path d="M131.42 128.66 l97.22 0 l0 -13.8 l-97.22 0 l0 13.8 z "  style="fill:#ededed;fill-rule:evenodd;"/><text class="fti915" font-size="12.00" style="fill:#000000"><tspan x="131.42" y="125.66" textLength="83.48" dx="0,0,-0.06,0.11,0,0,0,0,0.1,-0.25,-0.05,-0.05,0,0.13,0,-0.08,0">Text of Lecture 2</tspan></text><text class="fti915" font-size="12.00" style="fill:#000000"><tspan x="215.09" y="125.66" textLength="3.0"> </tspan></text><path d="M234.29 142.46 l5.16 0 l0 -27.6 l-5.16 0 l0 27.6 z "  style="fill:#ededed;fill-rule:evenodd;"/><path d="M323.11 142.46 l5.16 0 l0 -27.6 l-5.16 0 l0 27.6 z "  style="fill:#ededed;fill-rule:evenodd;"/><path d="M239.45 128.66 l83.66 0 l0 -13.8 l-83.66 0 l0 13.8 z "  style="fill:#ededed;fill-rule:evenodd;"/><text class="fti915" font-size="12.00" style="fill:#000000"><tspan x="239.45" y="125.66" textLength="78.94" dx="0,0.02,0,0,0,0,-0.06,0,-0.05,0,0,0,0,0.02">Comprehension </tspan></text><path d="M239.45 142.46 l83.66 0 l0 -13.8 l-83.66 0 l0 13.8 z "  style="fill:#ededed;fill-rule:evenodd;"/><text class="fti915" font-size="12.00" style="fill:#000000"><tspan x="239.45" y="139.46" textLength="47.98" dx="0,0,0,-0.07,0,0,0.05,0,0">Questions</tspan></text><text class="fti915" font-size="12.00" style="fill:#000000"><tspan x="287.45" y="139.46" textLength="3.0"> </tspan></text><path d="M328.87 128.66 l5.04 0 l0 -13.8 l-5.04 0 l0 13.8 z "  style="fill:#ededed;fill-rule:evenodd;"/><path d="M431.14 128.66 l5.16 0 l0 -13.8 l-5.16 0 l0 13.8 z "  style="fill:#ededed;fill-rule:evenodd;"/><path d="M328.87 142.46 l107.42 0 l0 -13.8 l-107.42 0 l0 13.8 z "  style="fill:#ededed;fill-rule:evenodd;"/><path d="M333.91 128.66 l97.22 0 l0 -13.8 l-97.22 0 l0 13.8 z "  style="fill:#ededed;fill-rule:evenodd;"/><text class="fti915" font-size="12.00" style="fill:#000000"><tspan x="333.91" y="125.66" textLength="83.48" dx="0,0,-0.06,0.11,0,0,0,0,0.1,-0.25,-0.05,-0.05,0,0.13,0,-0.08,0">Text of Lecture 1</tspan></text><text class="fti915" font-size="12.00" style="fill:#000000"><tspan x="417.58" y="125.66" textLength="3.0"> </tspan></text><path d="M436.9 142.46 l5.04 0 l0 -27.6 l-5.04 0 l0 27.6 z "  style="fill:#ededed;fill-rule:evenodd;"/><path d="M534.48 142.46 l5.16 0 l0 -27.6 l-5.16 0 l0 27.6 z "  style="fill:#ededed;fill-rule:evenodd;"/><path d="M441.94 128.66 l92.54 0 l0 -13.8 l-92.54 0 l0 13.8 z "  style="fill:#ededed;fill-rule:evenodd;"/><text class="fti915" font-size="12.00" style="fill:#000000"><tspan x="441.94" y="125.66" textLength="78.94" dx="0,0.02,0,0,0,0,-0.06,0,-0.05,0,0,0,0,0.02">Comprehension </tspan></text><path d="M441.94 142.46 l92.54 0 l0 -13.8 l-92.54 0 l0 13.8 z "  style="fill:#ededed;fill-rule:evenodd;"/><text class="fti915" font-size="12.00" style="fill:#000000"><tspan x="441.94" y="139.46" textLength="47.98" dx="0,0,0,-0.07,0,0,0.05,0,0">Questions</tspan></text><text class="fti915" font-size="12.00" style="fill:#000000"><tspan x="489.94" y="139.46" textLength="3.0"> </tspan></text><path d="M72.02 114.86 l0.48 0 l0 -0.48 l-0.48 0 l0 0.48 z "  style="fill:#ffffff;fill-rule:evenodd;"/><path d="M72.5 114.86 l53.28 0 l0 -0.48 l-53.28 0 l0 0.48 z "  style="fill:#ffffff;fill-rule:evenodd;"/><path d="M125.78 114.86 l0.48 0 l0 -0.48 l-0.48 0 l0 0.48 z "  style="fill:#ffffff;fill-rule:evenodd;"/><path d="M126.26 114.86 l107.54 0 l0 -0.48 l-107.54 0 l0 0.48 z "  style="fill:#ffffff;fill-rule:evenodd;"/><path d="M233.81 114.86 l0.48 0 l0 -0.48 l-0.48 0 l0 0.48 z "  style="fill:#ffffff;fill-rule:evenodd;"/><path d="M234.29 114.86 l94.1 0 l0 -0.48 l-94.1 0 l0 0.48 z "  style="fill:#ffffff;fill-rule:evenodd;"/><path d="M328.39 114.86 l0.48 0 l0 -0.48 l-0.48 0 l0 0.48 z "  style="fill:#ffffff;fill-rule:evenodd;"/><path d="M328.87 114.86 l107.54 0 l0 -0.48 l-107.54 0 l0 0.48 z "  style="fill:#ffffff;fill-rule:evenodd;"/><path d="M436.42 114.86 l0.48 0 l0 -0.48 l-0.48 0 l0 0.48 z "  style="fill:#ffffff;fill-rule:evenodd;"/><path d="M436.9 114.86 l102.74 0 l0 -0.48 l-102.74 0 l0 0.48 z "  style="fill:#ffffff;fill-rule:evenodd;"/><path d="M539.64 114.86 l0.48 0 l0 -0.48 l-0.48 0 l0 0.48 z "  style="fill:#ffffff;fill-rule:evenodd;"/><path d="M72.02 142.46 l0.48 0 l0 -27.6 l-0.48 0 l0 27.6 z "  style="fill:#ffffff;fill-rule:evenodd;"/><path d="M125.78 142.46 l0.48 0 l0 -27.6 l-0.48 0 l0 27.6 z "  style="fill:#ffffff;fill-rule:evenodd;"/><path d="M233.81 142.46 l0.48 0 l0 -27.6 l-0.48 0 l0 27.6 z "  style="fill:#ffffff;fill-rule:evenodd;"/><path d="M328.39 142.46 l0.48 0 l0 -27.6 l-0.48 0 l0 27.6 z "  style="fill:#ffffff;fill-rule:evenodd;"/><path d="M436.42 142.46 l0.48 0 l0 -27.6 l-0.48 0 l0 27.6 z "  style="fill:#ffffff;fill-rule:evenodd;"/><path d="M539.64 142.46 l0.48 0 l0 -27.6 l-0.48 0 l0 27.6 z "  style="fill:#ffffff;fill-rule:evenodd;"/><path d="M72.5 156.86 l5.16 0 l0 -13.8 l-5.16 0 l0 13.8 z "  style="fill:#a5a5a5;fill-rule:evenodd;"/><path d="M120.62 156.86 l5.16 0 l0 -13.8 l-5.16 0 l0 13.8 z "  style="fill:#a5a5a5;fill-rule:evenodd;"/><path d="M72.5 170.66 l53.28 0 l0 -13.8 l-53.28 0 l0 13.8 z "  style="fill:#a5a5a5;fill-rule:evenodd;"/><path d="M77.66 156.86 l42.96 0 l0 -13.8 l-42.96 0 l0 13.8 z "  style="fill:#a5a5a5;fill-rule:evenodd;"/><text class="fti820" font-size="12.00" style="fill:#000000"><tspan x="77.66" y="154.10" textLength="36.97" dx="0,0.02,-0.05,0,0,0,0">Test 2a</tspan></text><text class="fti820" font-size="12.00" style="fill:#ffffff"><tspan x="114.62" y="154.10" textLength="3.0"> </tspan></text><path d="M126.26 156.86 l5.16 0 l0 -13.8 l-5.16 0 l0 13.8 z "  style="fill:#dbdbdb;fill-rule:evenodd;"/><path d="M228.65 156.86 l5.16 0 l0 -13.8 l-5.16 0 l0 13.8 z "  style="fill:#dbdbdb;fill-rule:evenodd;"/><path d="M126.26 170.66 l107.54 0 l0 -13.8 l-107.54 0 l0 13.8 z "  style="fill:#dbdbdb;fill-rule:evenodd;"/><path d="M131.42 156.86 l97.22 0 l0 -13.8 l-97.22 0 l0 13.8 z "  style="fill:#dbdbdb;fill-rule:evenodd;"/><text class="fti915" font-size="12.00" style="fill:#000000"><tspan x="131.42" y="153.86" textLength="90.82" dx="0,0,0,0,-0.05,0,0,0,0,0.07,-0.13,0.06,-0.05,0,0,0,-0.06,0">Video of Lecture 1</tspan></text><text class="fti915" font-size="12.00" style="fill:#000000"><tspan x="222.41" y="153.86" textLength="3.0"> </tspan></text><path d="M234.29 170.66 l5.16 0 l0 -27.6 l-5.16 0 l0 27.6 z "  style="fill:#dbdbdb;fill-rule:evenodd;"/><path d="M323.11 170.66 l5.16 0 l0 -27.6 l-5.16 0 l0 27.6 z "  style="fill:#dbdbdb;fill-rule:evenodd;"/><path d="M239.45 156.86 l83.66 0 l0 -13.8 l-83.66 0 l0 13.8 z "  style="fill:#dbdbdb;fill-rule:evenodd;"/><text class="fti915" font-size="12.00" style="fill:#000000"><tspan x="239.45" y="153.86" textLength="78.94" dx="0,0.02,0,0,0,0,-0.06,0,-0.05,0,0,0,0,0.02">Comprehension </tspan></text><path d="M239.45 170.66 l83.66 0 l0 -13.8 l-83.66 0 l0 13.8 z "  style="fill:#dbdbdb;fill-rule:evenodd;"/><text class="fti915" font-size="12.00" style="fill:#000000"><tspan x="239.45" y="167.66" textLength="47.98" dx="0,0,0,-0.07,0,0,0.05,0,0">Questions</tspan></text><text class="fti915" font-size="12.00" style="fill:#000000"><tspan x="287.45" y="167.66" textLength="3.0"> </tspan></text><path d="M328.87 156.86 l5.04 0 l0 -13.8 l-5.04 0 l0 13.8 z "  style="fill:#dbdbdb;fill-rule:evenodd;"/><path d="M431.14 156.86 l5.16 0 l0 -13.8 l-5.16 0 l0 13.8 z "  style="fill:#dbdbdb;fill-rule:evenodd;"/><path d="M328.87 170.66 l107.42 0 l0 -13.8 l-107.42 0 l0 13.8 z "  style="fill:#dbdbdb;fill-rule:evenodd;"/><path d="M333.91 156.86 l97.22 0 l0 -13.8 l-97.22 0 l0 13.8 z "  style="fill:#dbdbdb;fill-rule:evenodd;"/><text class="fti915" font-size="12.00" style="fill:#000000"><tspan x="333.91" y="153.86" textLength="90.82" dx="0,0,0,0,-0.05,0,0,0,0,0.07,-0.13,0.06,-0.05,0,0,0,-0.06,0">Video of Lecture 2</tspan></text><text class="fti915" font-size="12.00" style="fill:#000000"><tspan x="424.90" y="153.86" textLength="3.0"> </tspan></text><path d="M436.9 170.66 l5.04 0 l0 -27.6 l-5.04 0 l0 27.6 z "  style="fill:#dbdbdb;fill-rule:evenodd;"/><path d="M534.48 170.66 l5.16 0 l0 -27.6 l-5.16 0 l0 27.6 z "  style="fill:#dbdbdb;fill-rule:evenodd;"/><path d="M441.94 156.86 l92.54 0 l0 -13.8 l-92.54 0 l0 13.8 z "  style="fill:#dbdbdb;fill-rule:evenodd;"/><text class="fti915" font-size="12.00" style="fill:#000000"><tspan x="441.94" y="153.86" textLength="78.94" dx="0,0.02,0,0,0,0,-0.06,0,-0.05,0,0,0,0,0.02">Comprehension </tspan></text><path d="M441.94 170.66 l92.54 0 l0 -13.8 l-92.54 0 l0 13.8 z "  style="fill:#dbdbdb;fill-rule:evenodd;"/><text class="fti915" font-size="12.00" style="fill:#000000"><tspan x="441.94" y="167.66" textLength="47.98" dx="0,0,0,-0.07,0,0,0.05,0,0">Questions</tspan></text><text class="fti915" font-size="12.00" style="fill:#000000"><tspan x="489.94" y="167.66" textLength="3.0"> </tspan></text><path d="M72.02 142.94 l0.48 0 l0 -0.48 l-0.48 0 l0 0.48 z "  style="fill:#ffffff;fill-rule:evenodd;"/><path d="M72.5 142.94 l53.28 0 l0 -0.48 l-53.28 0 l0 0.48 z "  style="fill:#ffffff;fill-rule:evenodd;"/><path d="M125.78 142.94 l0.48 0 l0 -0.48 l-0.48 0 l0 0.48 z "  style="fill:#ffffff;fill-rule:evenodd;"/><path d="M126.26 142.94 l107.54 0 l0 -0.48 l-107.54 0 l0 0.48 z "  style="fill:#ffffff;fill-rule:evenodd;"/><path d="M233.81 142.94 l0.48 0 l0 -0.48 l-0.48 0 l0 0.48 z "  style="fill:#ffffff;fill-rule:evenodd;"/><path d="M234.29 142.94 l94.1 0 l0 -0.48 l-94.1 0 l0 0.48 z "  style="fill:#ffffff;fill-rule:evenodd;"/><path d="M328.39 142.94 l0.48 0 l0 -0.48 l-0.48 0 l0 0.48 z "  style="fill:#ffffff;fill-rule:evenodd;"/><path d="M328.87 142.94 l107.54 0 l0 -0.48 l-107.54 0 l0 0.48 z "  style="fill:#ffffff;fill-rule:evenodd;"/><path d="M436.42 142.94 l0.48 0 l0 -0.48 l-0.48 0 l0 0.48 z "  style="fill:#ffffff;fill-rule:evenodd;"/><path d="M436.9 142.94 l102.74 0 l0 -0.48 l-102.74 0 l0 0.48 z "  style="fill:#ffffff;fill-rule:evenodd;"/><path d="M539.64 142.94 l0.48 0 l0 -0.48 l-0.48 0 l0 0.48 z "  style="fill:#ffffff;fill-rule:evenodd;"/><path d="M72.02 170.66 l0.48 0 l0 -27.72 l-0.48 0 l0 27.72 z "  style="fill:#ffffff;fill-rule:evenodd;"/><path d="M125.78 170.66 l0.48 0 l0 -27.72 l-0.48 0 l0 27.72 z "  style="fill:#ffffff;fill-rule:evenodd;"/><path d="M233.81 170.66 l0.48 0 l0 -27.72 l-0.48 0 l0 27.72 z "  style="fill:#ffffff;fill-rule:evenodd;"/><path d="M328.39 170.66 l0.48 0 l0 -27.72 l-0.48 0 l0 27.72 z "  style="fill:#ffffff;fill-rule:evenodd;"/><path d="M436.42 170.66 l0.48 0 l0 -27.72 l-0.48 0 l0 27.72 z "  style="fill:#ffffff;fill-rule:evenodd;"/><path d="M539.64 170.66 l0.48 0 l0 -27.72 l-0.48 0 l0 27.72 z "  style="fill:#ffffff;fill-rule:evenodd;"/><path d="M72.5 184.94 l5.16 0 l0 -13.8 l-5.16 0 l0 13.8 z "  style="fill:#a5a5a5;fill-rule:evenodd;"/><path d="M120.62 184.94 l5.16 0 l0 -13.8 l-5.16 0 l0 13.8 z "  style="fill:#a5a5a5;fill-rule:evenodd;"/><path d="M72.5 198.74 l53.28 0 l0 -13.8 l-53.28 0 l0 13.8 z "  style="fill:#a5a5a5;fill-rule:evenodd;"/><path d="M77.66 184.94 l42.96 0 l0 -13.8 l-42.96 0 l0 13.8 z "  style="fill:#a5a5a5;fill-rule:evenodd;"/><text class="fti820" font-size="12.00" style="fill:#000000"><tspan x="77.66" y="182.18" textLength="37.64" dx="0,0.02,-0.05,0,0,0,0">Test 2b</tspan></text><text class="fti820" font-size="12.00" style="fill:#ffffff"><tspan x="115.34" y="182.18" textLength="3.0"> </tspan></text><path d="M126.26 184.94 l5.16 0 l0 -13.8 l-5.16 0 l0 13.8 z "  style="fill:#ededed;fill-rule:evenodd;"/><path d="M228.65 184.94 l5.16 0 l0 -13.8 l-5.16 0 l0 13.8 z "  style="fill:#ededed;fill-rule:evenodd;"/><path d="M126.26 198.74 l107.54 0 l0 -13.8 l-107.54 0 l0 13.8 z "  style="fill:#ededed;fill-rule:evenodd;"/><path d="M131.42 184.94 l97.22 0 l0 -13.8 l-97.22 0 l0 13.8 z "  style="fill:#ededed;fill-rule:evenodd;"/><text class="fti915" font-size="12.00" style="fill:#000000"><tspan x="131.42" y="181.94" textLength="90.82" dx="0,0,0,0,-0.05,0,0,0,0,0.07,-0.13,0.06,-0.05,0,0,0,-0.06,0">Video of Lecture 2</tspan></text><text class="fti915" font-size="12.00" style="fill:#000000"><tspan x="222.41" y="181.94" textLength="3.0"> </tspan></text><path d="M234.29 198.74 l5.16 0 l0 -27.6 l-5.16 0 l0 27.6 z "  style="fill:#ededed;fill-rule:evenodd;"/><path d="M323.11 198.74 l5.16 0 l0 -27.6 l-5.16 0 l0 27.6 z "  style="fill:#ededed;fill-rule:evenodd;"/><path d="M239.45 184.94 l83.66 0 l0 -13.8 l-83.66 0 l0 13.8 z "  style="fill:#ededed;fill-rule:evenodd;"/><text class="fti915" font-size="12.00" style="fill:#000000"><tspan x="239.45" y="181.94" textLength="78.94" dx="0,0.02,0,0,0,0,-0.06,0,-0.05,0,0,0,0,0.02">Comprehension </tspan></text><path d="M239.45 198.74 l83.66 0 l0 -13.8 l-83.66 0 l0 13.8 z "  style="fill:#ededed;fill-rule:evenodd;"/><text class="fti915" font-size="12.00" style="fill:#000000"><tspan x="239.45" y="195.74" textLength="47.98" dx="0,0,0,-0.07,0,0,0.05,0,0">Questions</tspan></text><text class="fti915" font-size="12.00" style="fill:#000000"><tspan x="287.45" y="195.74" textLength="3.0"> </tspan></text><path d="M328.87 184.94 l5.04 0 l0 -13.8 l-5.04 0 l0 13.8 z "  style="fill:#ededed;fill-rule:evenodd;"/><path d="M431.14 184.94 l5.16 0 l0 -13.8 l-5.16 0 l0 13.8 z "  style="fill:#ededed;fill-rule:evenodd;"/><path d="M328.87 198.74 l107.42 0 l0 -13.8 l-107.42 0 l0 13.8 z "  style="fill:#ededed;fill-rule:evenodd;"/><path d="M333.91 184.94 l97.22 0 l0 -13.8 l-97.22 0 l0 13.8 z "  style="fill:#ededed;fill-rule:evenodd;"/><text class="fti915" font-size="12.00" style="fill:#000000"><tspan x="333.91" y="181.94" textLength="83.48" dx="0,0,-0.06,0.11,0,0,0,0,0.1,-0.25,-0.05,-0.05,0,0.13,0,-0.08,0">Text of Lecture 1</tspan></text><text class="fti915" font-size="12.00" style="fill:#000000"><tspan x="417.58" y="181.94" textLength="3.0"> </tspan></text><path d="M436.9 198.74 l5.04 0 l0 -27.6 l-5.04 0 l0 27.6 z "  style="fill:#ededed;fill-rule:evenodd;"/><path d="M534.48 198.74 l5.16 0 l0 -27.6 l-5.16 0 l0 27.6 z "  style="fill:#ededed;fill-rule:evenodd;"/><path d="M441.94 184.94 l92.54 0 l0 -13.8 l-92.54 0 l0 13.8 z "  style="fill:#ededed;fill-rule:evenodd;"/><text class="fti915" font-size="12.00" style="fill:#000000"><tspan x="441.94" y="181.94" textLength="78.94" dx="0,0.02,0,0,0,0,-0.06,0,-0.05,0,0,0,0,0.02">Comprehension </tspan></text><path d="M441.94 198.74 l92.54 0 l0 -13.8 l-92.54 0 l0 13.8 z "  style="fill:#ededed;fill-rule:evenodd;"/><text class="fti915" font-size="12.00" style="fill:#000000"><tspan x="441.94" y="195.74" textLength="47.98" dx="0,0,0,-0.07,0,0,0.05,0,0">Questions</tspan></text><text class="fti915" font-size="12.00" style="fill:#000000"><tspan x="489.94" y="195.74" textLength="3.0"> </tspan></text><path d="M72.02 171.14 l0.48 0 l0 -0.48 l-0.48 0 l0 0.48 z "  style="fill:#ffffff;fill-rule:evenodd;"/><path d="M72.5 171.14 l53.28 0 l0 -0.48 l-53.28 0 l0 0.48 z "  style="fill:#ffffff;fill-rule:evenodd;"/><path d="M125.78 171.14 l0.48 0 l0 -0.48 l-0.48 0 l0 0.48 z "  style="fill:#ffffff;fill-rule:evenodd;"/><path d="M126.26 171.14 l107.54 0 l0 -0.48 l-107.54 0 l0 0.48 z "  style="fill:#ffffff;fill-rule:evenodd;"/><path d="M233.81 171.14 l0.48 0 l0 -0.48 l-0.48 0 l0 0.48 z "  style="fill:#ffffff;fill-rule:evenodd;"/><path d="M234.29 171.14 l94.1 0 l0 -0.48 l-94.1 0 l0 0.48 z "  style="fill:#ffffff;fill-rule:evenodd;"/><path d="M328.39 171.14 l0.48 0 l0 -0.48 l-0.48 0 l0 0.48 z "  style="fill:#ffffff;fill-rule:evenodd;"/><path d="M328.87 171.14 l107.54 0 l0 -0.48 l-107.54 0 l0 0.48 z "  style="fill:#ffffff;fill-rule:evenodd;"/><path d="M436.42 171.14 l0.48 0 l0 -0.48 l-0.48 0 l0 0.48 z "  style="fill:#ffffff;fill-rule:evenodd;"/><path d="M436.9 171.14 l102.74 0 l0 -0.48 l-102.74 0 l0 0.48 z "  style="fill:#ffffff;fill-rule:evenodd;"/><path d="M539.64 171.14 l0.48 0 l0 -0.48 l-0.48 0 l0 0.48 z "  style="fill:#ffffff;fill-rule:evenodd;"/><path d="M72.02 198.74 l0.48 0 l0 -27.6 l-0.48 0 l0 27.6 z "  style="fill:#ffffff;fill-rule:evenodd;"/><path d="M72.02 199.22 l0.48 0 l0 -0.48 l-0.48 0 l0 0.48 z "  style="fill:#ffffff;fill-rule:evenodd;"/><path d="M72.02 199.22 l0.48 0 l0 -0.48 l-0.48 0 l0 0.48 z "  style="fill:#ffffff;fill-rule:evenodd;"/><path d="M72.5 199.22 l53.28 0 l0 -0.48 l-53.28 0 l0 0.48 z "  style="fill:#ffffff;fill-rule:evenodd;"/><path d="M125.78 198.74 l0.48 0 l0 -27.6 l-0.48 0 l0 27.6 z "  style="fill:#ffffff;fill-rule:evenodd;"/><path d="M125.78 199.22 l0.48 0 l0 -0.48 l-0.48 0 l0 0.48 z "  style="fill:#ffffff;fill-rule:evenodd;"/><path d="M126.26 199.22 l107.54 0 l0 -0.48 l-107.54 0 l0 0.48 z "  style="fill:#ffffff;fill-rule:evenodd;"/><path d="M233.81 198.74 l0.48 0 l0 -27.6 l-0.48 0 l0 27.6 z "  style="fill:#ffffff;fill-rule:evenodd;"/><path d="M233.81 199.22 l0.48 0 l0 -0.48 l-0.48 0 l0 0.48 z "  style="fill:#ffffff;fill-rule:evenodd;"/><path d="M234.29 199.22 l94.1 0 l0 -0.48 l-94.1 0 l0 0.48 z "  style="fill:#ffffff;fill-rule:evenodd;"/><path d="M328.39 198.74 l0.48 0 l0 -27.6 l-0.48 0 l0 27.6 z "  style="fill:#ffffff;fill-rule:evenodd;"/><path d="M328.39 199.22 l0.48 0 l0 -0.48 l-0.48 0 l0 0.48 z "  style="fill:#ffffff;fill-rule:evenodd;"/><path d="M328.87 199.22 l107.54 0 l0 -0.48 l-107.54 0 l0 0.48 z "  style="fill:#ffffff;fill-rule:evenodd;"/><path d="M436.42 198.74 l0.48 0 l0 -27.6 l-0.48 0 l0 27.6 z "  style="fill:#ffffff;fill-rule:evenodd;"/><path d="M436.42 199.22 l0.48 0 l0 -0.48 l-0.48 0 l0 0.48 z "  style="fill:#ffffff;fill-rule:evenodd;"/><path d="M436.9 199.22 l102.74 0 l0 -0.48 l-102.74 0 l0 0.48 z "  style="fill:#ffffff;fill-rule:evenodd;"/><path d="M539.64 198.74 l0.48 0 l0 -27.6 l-0.48 0 l0 27.6 z "  style="fill:#ffffff;fill-rule:evenodd;"/><path d="M539.64 199.22 l0.48 0 l0 -0.48 l-0.48 0 l0 0.48 z "  style="fill:#ffffff;fill-rule:evenodd;"/><path d="M539.64 199.22 l0.48 0 l0 -0.48 l-0.48 0 l0 0.48 z "  style="fill:#ffffff;fill-rule:evenodd;"/><text class="fti820" font-size="12.00" style="fill:#000000"><tspan x="72.02" y="209.90" textLength="56.04" font-size="11.52" dx="0,0,0,0,-0.05,0.02,0.03,0,0,0,0,0.03">(Table 1.1) </tspan>&#8203;<tspan x="108.02" y="236.42" textLength="379.76" class="fti915" dx="0,-0.02,0,-0.05,0,0,0,0,0.04,0,-0.05,0,0,-0.08,0,0,0,0,0,0,0,0,0.13,-0.12,0.11,0,0,0,0,0,0,-0.05,0,0,0.04,-0.05,-0.05,0,0,0,0,0,0.02,0,-0.05,0,0,0,-0.04,0,0.13,-0.05,0,0,0,0,0.05,0,0,0,0,-0.05,-0.05,-0.05,0,0,0,0,0,0,0.1,-0.05,0,0,0,0,0.08,0,0,0.04,0.2">Due to the random assignment, at least 25 participants took each of the 4 tests. </tspan>&#8203;<tspan x="72.02" y="264.29" textLength="60.84" dx="0,-0.13,-0.05,0.11,-0.05,-0.05,0.04,0.04,-0.05,-0.05,0.04">Procedures </tspan>&#8203;<tspan x="72.02" y="291.89" textLength="88.38" class="fti1426" dx="0,0,-0.06,0,0,0,0,-0.04,0.06,-0.05,0,0,0,0.16,-0.05,0.04">Test Development</tspan>&#8203;<tspan x="160.46" y="291.89" textLength="3.0"> </tspan>&#8203;<tspan x="90.02" y="319.25" textLength="9.0" class="fti915">1.</tspan>&#8203;<tspan x="99.02" y="319.25" textLength="3.34" class="far35"> </tspan>&#8203;<tspan x="108.02" y="319.25" textLength="434.36" class="fti915" dx="0,0,0,-0.06,0,0,-0.08,0,0.07,-0.05,0.07,-0.05,0,-0.05,0,0,0.08,-0.05,0,0,-0.07,0,0,0,0,0.08,0,0,0,0,-0.08,0,0,0,-0.05,0,0,-0.05,0,0,0,0,0,0.02,0.13,-0.12,0,0,0,0,0.07,0.06,0,0,0,0.04,-0.05,-0.05,0,0,0,-0.06,0,0,0,-0.06,0,0,0,0,0.11,0,0,-0.07,0.11,0,0,0.04,0,0,0,0,-0.08,0,-0.04,0,0,0,0.04,0">The researcher selected 2 unrelated and insignificant lectures from TED.com to present to </tspan></text><text class="fti915" font-size="12.00" style="fill:#000000"><tspan x="108.02" y="346.85" textLength="79.59" dx="0,0,0,0,0,0,-0.07,0,0,0,-0.04,0,0,0,0,0,0,0.04">the participants. </tspan></text><text class="fti915" font-size="12.00" style="fill:#000000"><tspan x="90.02" y="374.45" textLength="9.0">2.</tspan>&#8203;<tspan x="99.02" y="374.45" textLength="3.34" class="far35"> </tspan>&#8203;<tspan x="108.02" y="374.45" textLength="386.24" dx="0,0,0,-0.06,0,0,0,0.08,0,0,0,0,0,-0.06,-0.05,-0.05,0,0,0,0,-0.07,0,0.13,0,-0.08,0.11,0,-0.07,0,0,-0.04,0,0,0,0,0,0,-0.07,0.11,0,0,0,0,0,0,0,0,0,0,0,0.04,0,0,-0.05,0,0,0,0,0,0,0,-0.05,0,0,0,0,0,0,0,0,-0.04,-0.05,0,0.12,0,0,0,0,0,0.13">The text of each lecture was copied and the link to embed the videos was noted. </tspan></text><text class="fti915" font-size="12.00" style="fill:#000000"><tspan x="90.02" y="402.05" textLength="9.0">3.</tspan>&#8203;<tspan x="99.02" y="402.05" textLength="3.34" class="far35"> </tspan>&#8203;<tspan x="108.02" y="402.05" textLength="332.96" dx="0,-0.07,0,0,0,0,-0.07,0,0,0,0.1,-0.05,0,-0.05,0,0,0,0,0.02,0,0,0,-0.05,0.12,0,0.04,0,0,0,0,0,-0.06,0,-0.08,0,0,-0.04,0,0.08,-0.05,0.13,-0.05,0,0,0,0,-0.07,0.11,-0.05,0.06,-0.05,0,0,0,0,0,0,0,-0.06,0,0,0,-0.07,0,0.13,0,-0.08,0,0.2">Five comprehension questions were selected for each of the lectures. </tspan></text><text class="fti915" font-size="12.00" style="fill:#000000"><tspan x="90.02" y="429.65" textLength="9.0">4.</tspan>&#8203;<tspan x="99.02" y="429.65" textLength="3.34" class="far35"> </tspan>&#8203;<tspan x="108.02" y="429.65" textLength="420.67" dx="0,-0.07,0,0,0,0,-0.06,0,0.11,-0.12,0,0,0.08,-0.07,0,0,0,0,0,0.08,-0.05,0,0.02,0,-0.05,0,-0.08,-0.05,0.13,-0.05,0,0,-0.05,0,0,0,0,0,0,0.08,-0.05,0,0,0,0,0,0,0.11,0,-0.07,0,0,-0.04,0,0,-0.05,0,0.11,-0.05,-0.05,-0.05,0.11,0,0,0,0.1,-0.12,0,0,0,0,0.04,0,-0.05,0,0,-0.04,0,0,0,0,0.04,-0.05,0,0">Four Google Forms were created and the content was added according to the setup laid </tspan></text><text class="fti915" font-size="12.00" style="fill:#000000"><tspan x="108.02" y="457.27" textLength="81.99" dx="0,0,0,0,0,0.04,0,0,0,-0.06,0,0,0,0,0,0,0,0.02">out in Table 1.1. </tspan></text><text class="fti915" font-size="12.00" style="fill:#000000"><tspan x="72.02" y="485.11" textLength="150.02" class="fti1426" dx="0,0,-0.04,0,0,0.02,0,0,0,0.04,-0.05,0,0,0.04,0,0.04,0,0,-0.07,-0.05,-0.05,0,0,0,0.16,-0.05,0.04">Web Application Development</tspan>&#8203;<tspan x="222.05" y="485.11" textLength="3.0" class="fti820"> </tspan>&#8203;<tspan x="90.02" y="512.47" textLength="9.0">1.</tspan>&#8203;<tspan x="99.02" y="512.47" textLength="3.34" class="far35"> </tspan>&#8203;<tspan x="108.02" y="512.47" textLength="305.96" dx="0,0,0,-0.05,-0.05,0,0,0,0.02,0,0,0,-0.05,-0.05,0,0.12,-0.05,0,0.02,-0.05,0,0,0,0,0.11,0,0,0,0,0,-0.05,0,0,0,-0.05,0,0,0,-0.04,0,0,0,0,0,0,0,-0.04,0,0,0.13,0,0,0,-0.05,0,0,0,0,-0.06,-0.05,0,0,0,0.24">A web site was created to which participants could be directed. </tspan></text><text class="fti915" font-size="12.00" style="fill:#000000"><tspan x="90.02" y="540.07" textLength="9.0">2.</tspan>&#8203;<tspan x="99.02" y="540.07" textLength="3.34" class="far35"> </tspan>&#8203;<tspan x="108.02" y="540.07" textLength="425.62" dx="0,0.06,-0.05,0,0,0,0,-0.05,0,0,0,0.08,0,0,0,-0.05,0,0,-0.04,0,0,-0.05,0,0,-0.05,0,0,0,0,0,0,0,0.1,-0.12,-0.05,0,0.11,0,0,0,-0.06,0,0,0,0,0.26,-0.24,0,0.06,-0.12,0.07,-0.05,-0.05,0,0,0,0,0,0.08,-0.05,0,0,-0.04,0,0,-0.05,0,0,0,0,0,0.04,0.11,-0.05,0,0,-0.07,0,0,0,0.06,0,-0.05,0.29">Welcome text was added and the age of majority agreement was added to the web page. </tspan></text><text class="fti915" font-size="12.00" style="fill:#000000"><tspan x="90.02" y="567.67" textLength="9.0">3.</tspan>&#8203;<tspan x="99.02" y="567.67" textLength="3.34" class="far35"> </tspan>&#8203;<tspan x="108.02" y="567.67" textLength="217.25" dx="0,0,0,0,0,0,0,0,0,0,-0.05,0,0,0,0,0,0,-0.07,0,0,0,-0.04,0,0,0,0,0,0.11,0,0,0,0,0,0,0,0,0,-0.05,-0.05,0,0,-0.04,0,0,-0.05,0,0.18">A link for the participant to click was added. </tspan></text><text class="fti915" font-size="12.00" style="fill:#000000"><tspan x="90.02" y="595.27" textLength="9.0">4.</tspan>&#8203;<tspan x="99.02" y="595.27" textLength="3.34" class="far35"> </tspan>&#8203;<tspan x="108.02" y="595.27" textLength="431.4" dx="0,0,0,0.1,-0.05,0,-0.05,0.04,-0.05,0,0,0,0,0,0,0,-0.06,0,0,0.04,-0.05,0,0,0.04,0,0,0,-0.05,0,0.04,0,0,0,0,-0.05,0,0,0,0,0,-0.06,-0.05,0,0,0,0,0.04,0.06,-0.05,0,0,0,0,0,0,-0.05,0.14,-0.13,0,0,-0.05,0,0,0,0,0,0.04,0,-0.05,0,0,0.16,0,0,0,0,0,0,0,0,0,0,-0.05,-0.05,0">A JavaScript formula was written which randomized the URL behind the link on the web </tspan></text><text class="fti915" font-size="12.00" style="fill:#000000"><tspan x="108.02" y="622.90" textLength="241.01" dx="0,0,-0.05,0,-0.05,0,0,0,0,0,0.04,0,-0.08,-0.05,0,0,0.13,-0.05,0,0,0,-0.04,0,0,0,0,0.11,0,0,0,0,0,0.02,0,-0.05,0,0,0,0,0,0,-0.06,0,0,0,0,-0.07,0,0,0,0,0,0,0.24">page to direct participants to one of the four tests. </tspan></text><text class="fti915" font-size="12.00" style="fill:#000000"><tspan x="126.02" y="650.50" textLength="9.0">1.</tspan>&#8203;<tspan x="135.02" y="650.50" textLength="3.34" class="far35"> </tspan>&#8203;<tspan x="144.02" y="650.50" textLength="192.77" dx="0,0,0,-0.06,0,0.12,-0.05,0,-0.05,0.04,-0.05,0,0,0,0,0,0,0,-0.01,0,0,0.04,-0.05,0.11,0,-0.07,0,0,-0.04,0,0,0,0,0,0,0,0,0,0.2">The JavaScript formula was as follows: </tspan></text><text class="fti915" font-size="12.00" style="fill:#000000"><tspan x="144.02" y="678.10" textLength="390.73" dx="0,0.07,-0.28,0.13,-0.05,0,0.04,-0.05,0,0.08,-0.05,0,0,0,0,0.08,0,0,0,0,-0.06,-0.05,-0.05,0,-0.05,0,0.11,0.11,-0.24,0,0,0.04,0,0,0,0,0,0,0,0.02,-0.05,0,0,0,0.17,-0.24,0,0,0.07,0,-0.08,0.07,-0.05,0,0,0.11,-0.24,0,0,0.13,-0.05,0,0,-0.08,0.12,-0.05,-0.05,0.07,-0.05,0,-0.05,0,0,0,0,0.1,0.06,0.11,0,0,0,0,0">(Italicized text preceded by // is commentary offered by the researcher to explain </tspan>&#8203;<tspan x="144.02" y="705.70" textLength="219.65" dx="0,0,0,0,0,-0.06,0,0,0,0,0,0,0,0.07,-0.16,0,0,0,0,0,0,0,0,0.1,-0.05,0,0.04,-0.05,-0.05,0,0,0,0,0,0.04,0,-0.05,0,0,0,0.07,-0.12,0.07,-0.05,0,0,0.23">the formula. It has no effect on the program.) </tspan></text>
</svg>
