<svg class="crocodoc-JbPEDk crocodoc-page-svg" version="1.1"
    xmlns="http://www.w3.org/2000/svg"
    xmlns:xlink="http://www.w3.org/1999/xlink"
    xmlns:xhtml="http://www.w3.org/1999/xhtml"
    xml:space="preserve" width="792.0pt" height="612.0pt" viewBox="0 0 792.0 612.0">
<xhtml:link href="stylesheet.css" type="text/css" rel="stylesheet" />
<style>
.crocodoc-JbPEDk tspan { white-space:pre; direction:ltr; unicode-bidi:bidi-override; }
.crocodoc-JbPEDk path { fill:transparent; }
.crocodoc-JbPEDk [mbm="1"] { opacity:0; }
.crocodoc-JbPEDk [mbm="2"] { opacity:0.3; }
.crocodoc-JbPEDk [mbm="3"] { opacity:0.5; }
@supports (mix-blend-mode: multiply) {
.crocodoc-JbPEDk [mbm] { opacity:1; }
}

</style>
<defs>
<clipPath id="Clip_1_2_JbPEDk_2"><path d="M0 612 l792 0 l0 -612 l-792 0 l0 612 " /></clipPath>
</defs>
<g clip-path="url(#Clip_1_2_JbPEDk_2)" ><path d="M0 0 l792 0 l0 612 l-792 0 l0 -612 z "  style="fill:#ffffff;"/><path d="M0 -612 l792 0 l0 1224 l-792 0 l0 -1224 z "  style="fill:#ebebeb;"/><path d="M0 -612 l792 0 l0 1224 l-792 0 l0 -1224 z "  style="fill:#ebebeb;"/><path d="M0 -612 l792 0 l0 1224 l-792 0 l0 -1224 z "  style="fill:#ffffff;"/><path d="M0 0 l792 0 l0 612 l-792 0 l0 -612 z "  style="fill:#ffffff;"/><text class="f17" font-size="11.25" style="fill:#000000"><tspan x="36.00" y="600.75" textLength="341.51">http://www.docstoc.com/docs/40442422/Peer-Evaluation-of-Group-Work</tspan></text></g>
</svg>
