<svg class="crocodoc-sXJ39V crocodoc-page-svg" version="1.1"
    xmlns="http://www.w3.org/2000/svg"
    xmlns:xlink="http://www.w3.org/1999/xlink"
    xmlns:xhtml="http://www.w3.org/1999/xhtml"
    xml:space="preserve" width="612.0pt" height="792.0pt" viewBox="0 0 612.0 792.0">
<xhtml:link href="stylesheet.css" type="text/css" rel="stylesheet" />
<style>
.crocodoc-sXJ39V tspan { white-space:pre; direction:ltr; unicode-bidi:bidi-override; }
.crocodoc-sXJ39V path { fill:transparent; }
.crocodoc-sXJ39V [mbm="1"] { opacity:0; }
.crocodoc-sXJ39V [mbm="2"] { opacity:0.3; }
.crocodoc-sXJ39V [mbm="3"] { opacity:0.5; }
@supports (mix-blend-mode: multiply) {
.crocodoc-sXJ39V [mbm] { opacity:1; }
}

</style>
<defs>
<clipPath id="Clip_1_15_sXJ39V_2"><path d="M0 792 l612 0 l0 -792 l-612 0 l0 792 " /></clipPath>
</defs>
<g clip-path="url(#Clip_1_15_sXJ39V_2)" ><path d="M0 0 l612 0 l0 792 l-612 0 l0 -792 z "  style="fill:#ffffff;"/><path d="M0 -11088 l612 0 l0 11880 l-612 0 l0 -11880 z "  style="fill:#ebebeb;"/><path d="M0 -11088 l612 0 l0 11880 l-612 0 l0 -11880 z "  style="fill:#ebebeb;"/><path d="M0 -11088 l612 0 l0 11880 l-612 0 l0 -11880 z "  style="fill:#ffffff;"/><path d="M0 0 l612 0 l0 792 l-612 0 l0 -792 z "  style="fill:#ffffff;"/><text class="f153" font-size="11.25" style="fill:#000000"><tspan x="198.00" y="82.50" textLength="58.77" dx="0,0,9.37,0,0,0,0,0,0">2.Science</tspan>&#8203;<tspan x="198.00" y="97.50" textLength="53.75" dx="0,0,9.37,0,0,0,0,0,0">3.History</tspan>&#8203;<tspan x="198.00" y="112.50" textLength="55.65" dx="0,0,9.37,0,0,0,0,0,0">4.English</tspan>&#8203;<tspan x="198.00" y="127.50" textLength="38.13" dx="0,0,9.37,0,0,0">5.Etc.</tspan>&#8203;<tspan x="126.00" y="142.50" textLength="225.7" dx="0,0,9.37,0,0,0,0,0,0,0,0,0,0,0,0,0,0,0,0,0,0,0,0,0,0,0,0,0,0,0,0,0,0,0,0,0,0,0,0,0,0,0,0">b.Discuss&#57354;actual&#57354;real&#57355;world&#57354;uses&#57354;for&#57354;a&#57354;LMS.</tspan>&#8203;<tspan x="126.00" y="157.50" textLength="420.71" dx="0,0,9.25,0,0,0,0,0,0,0,0,0,0,0,0,0,0,0,0,0,0,0,0,0,0,0,0,0,0,0,0,0,0,0,0,0,0,0,0,0,0,0,0,0,0,0,0,0,0,0,0,0,0,0,0,0,0,0,0,0,0,0,0,0,0,0,0,0,0,0,0,0,0,0,0,0,0,0,0,0">c.Have&#57354;students&#57354;suggest&#57354;specific&#57354;cases&#57354;when&#57354;it&#57354;might&#57354;NOT&#57354;be&#57354;appropriate&#57354;to&#57354;use&#57354;a</tspan>&#8203;<tspan x="144.00" y="172.50" textLength="26.26">LMS.</tspan>&#8203;<tspan x="126.00" y="187.50" textLength="422.09" dx="0,0,9.37,0,0,0,0,0,0,0,0,0,0,0,0,0,0,0,0,0,0,0,0,0,0,0,0,0,0,0,0,0,0,0,0,0,0,0,0,0,0,0,0,0,0,0,0,0,0,0,0,0,0,0,0,0,0,0,0,0,0,0,0,0,0,0,0,0,0,0,0,0,0,0,0,0,0,0,0,0,0,0">d.Using&#57354;the&#57354;concepts&#57354;of&#57354;a&#57354;generic&#57354;LMS,&#57354;ask&#57354;students&#57354;to&#57354;come&#57354;up&#57354;with&#57354;a&#57354;project&#57354;that</tspan>&#8203;<tspan x="144.00" y="202.50" textLength="358.95">can&#57354;be&#57354;done&#57354;completely&#57354;on&#57354;a&#57354;LMS&#57354;regardless&#57354;of&#57354;which&#57354;LMS&#57354;they&#57354;are&#57354;on.</tspan></text></g>
</svg>
