<svg class="crocodoc-4m0ZiS crocodoc-page-svg" version="1.1"
    xmlns="http://www.w3.org/2000/svg"
    xmlns:xlink="http://www.w3.org/1999/xlink"
    xmlns:xhtml="http://www.w3.org/1999/xhtml"
    xml:space="preserve" width="612.0pt" height="792.0pt" viewBox="0 0 612.0 792.0">
<xhtml:link href="stylesheet.css" type="text/css" rel="stylesheet" />
<style>
.crocodoc-4m0ZiS tspan { white-space:pre; direction:ltr; unicode-bidi:bidi-override; }
.crocodoc-4m0ZiS path { fill:transparent; }
.crocodoc-4m0ZiS [mbm="1"] { opacity:0; }
.crocodoc-4m0ZiS [mbm="2"] { opacity:0.3; }
.crocodoc-4m0ZiS [mbm="3"] { opacity:0.5; }
@supports (mix-blend-mode: multiply) {
.crocodoc-4m0ZiS [mbm] { opacity:1; }
}

</style>
<defs>
<clipPath id="Clip_1_4_4m0ZiS_2"><path d="M0 792 l612 0 l0 -792 l-612 0 l0 792 " /></clipPath>
</defs>
<g clip-path="url(#Clip_1_4_4m0ZiS_2)" ><path d="M0 0 l612 0 l0 792 l-612 0 l0 -792 z "  style="fill:#ffffff;"/><path d="M0 -2376 l612 0 l0 7128 l-612 0 l0 -7128 z "  style="fill:#ebebeb;"/><path d="M0 -2376 l612 0 l0 7128 l-612 0 l0 -7128 z "  style="fill:#ebebeb;"/><path d="M0 -2376 l612 0 l0 7128 l-612 0 l0 -7128 z "  style="fill:#ffffff;"/><path d="M0 0 l612 0 l0 792 l-612 0 l0 -792 z "  style="fill:#ffffff;"/><path d="M105 303 l391.5 0 l0 13.5 l-391.5 0 l0 -13.5 z "  style="fill:#ffffff;"/><path d="M90 330 l197.25 0 l0 13.5 l-197.25 0 l0 -13.5 z "  style="fill:#ffffff;"/><text class="f33" font-size="11.25" style="fill:#000000"><tspan x="90.00" y="108.00" textLength="439.35" dx="0,0,25.37,0,0,0,0,0,0,0,0,0,0,0,0,0,0,0,0,0,0,0,0,0,0,0,0,0,0,0,0,0,0,0,0,0,0,0,0,0,0,0,0,0,0,0,0,0,0,0,0,0,0,0,0,0,0,0,0,0,0,0,0,0,0,0,0,0,0,0,0,0,0,0,0,0,0,0,0,0,0">A:To&#57435;assess&#57435;expressive&#57435;language,&#57435;I&#57435;use&#57435;subtests&#57435;of&#57435;various&#57435;language&#57435;tests&#57435;such&#57435;as</tspan>&#8203;<tspan x="90.00" y="133.50" textLength="370.85">the&#57435;&#8220;Formulated&#57435;Sentences&#8221;&#57435;subtest&#57435;of&#57435;the&#57435;Clinical&#57435;Evaluation&#57435;of&#57435;Language</tspan></text><path d="M303.24 134.25 l157.61 0 l0 0.75 l-157.61 0 l0 -0.75 z "  style="fill:#000000;"/><text class="f33" font-size="11.25" style="fill:#000000"><tspan x="90.00" y="159.75" textLength="90.05">Fundamentals&#57435;&#8211;&#57435;4</tspan></text><path d="M90 160.5 l90.05 0 l0 0.75 l-90.05 0 l0 -0.75 z "  style="fill:#000000;"/><text class="f33" font-size="6.75" style="fill:#000000"><tspan x="180.05" y="155.25" textLength="5.63">th</tspan></text><path d="M180.05 156 l5.63 0 l0 0.75 l-5.63 0 l0 -0.75 z "  style="fill:#000000;"/><text class="f33" font-size="11.25" style="fill:#000000"><tspan x="185.68" y="159.75" textLength="36.28">&#57435;edition</tspan></text><path d="M185.68 160.5 l36.28 0 l0 0.75 l-36.28 0 l0 -0.75 z "  style="fill:#000000;"/><text class="f33" font-size="11.25" style="fill:#000000"><tspan x="221.96" y="159.75" textLength="45.63">&#57435;(CELF&#57436;4</tspan></text><path d="M228.83 160.5 l38.76 0 l0 0.75 l-38.76 0 l0 -0.75 z "  style="fill:#000000;"/><text class="f33" font-size="11.25" style="fill:#000000"><tspan x="267.59" y="159.75" textLength="247.02">).&#57435;&#57435;In&#57435;addition,&#57435;I&#57435;will&#57435;take&#57435;a&#57435;language&#57435;sample&#57435;of&#57435;the</tspan>&#8203;<tspan x="90.00" y="186.00" textLength="415.89">child&#8217;s&#57435;spontaneous&#57435;expressive&#57435;language&#57435;and&#57435;look&#57435;at&#57435;how&#57435;they&#57435;formulate&#57435;sentences</tspan>&#8203;<tspan x="90.00" y="211.50" textLength="411.39">there.&#57435;&#57435;I&#57435;am&#57435;looking&#57435;for&#57435;grammatical&#57435;errors&#57435;(e.g.&#57435;verb&#57435;tense&#57435;errors,&#57435;plural&#57435;errors).&#57435;&#57435;In</tspan>&#8203;<tspan x="90.00" y="237.00" textLength="447.15">addition,&#57435;I&#57435;am&#57435;looking&#57435;for&#57435;how&#57435;they&#57435;put&#57435;their&#57435;sentences&#57435;together&#57435;(e.g.&#57435;length&#57435;of&#57435;sentence&#57435;or</tspan>&#8203;<tspan x="90.00" y="262.50" textLength="113.8">utterance,&#57435;word&#57435;order).</tspan>&#8203;<tspan x="90.00" y="313.50" textLength="15.0">Q:&#57435;</tspan>&#8203;<tspan x="105.00" y="313.50" textLength="397.6" class="f35" style="fill:#444444">How&#57374;do&#57374;you&#57374;assess&#57374;receptive&#57374;language&#57374;in&#57374;terms&#57374;of&#57374;linguistic&#57374;structure&#57374;and</tspan>&#8203;<tspan x="90.00" y="340.50" textLength="201.29" class="f35" style="fill:#444444">auditory&#57374;processing/comprehension?</tspan>&#8203;<tspan x="90.00" y="393.00" textLength="373.68" dx="0,0,25.37,0,0,0,0,0,0,0,0,0,0,0,0,0,0,0,0,0,0,0,0,0,0,0,0,0,0,0,0,0,0,0,0,0,0,0,0,0,0,0,0,0,0,0,0,0,0,0,0,0,0,0,0,0,0,0,0,0,0,0,0,0,0,0,0,0">A:To&#57435;assess&#57435;receptive&#57435;language,&#57435;I&#57435;use&#57435;various&#57435;subtests&#57435;of&#57435;the&#57435;CELF&#57436;4</tspan></text><path d="M424.92 393.75 l38.76 0 l0 0.75 l-38.76 0 l0 -0.75 z "  style="fill:#000000;"/><text class="f33" font-size="11.25" style="fill:#000000"><tspan x="463.68" y="393.00" textLength="26.25">.&#57435;&#57435;For</tspan>&#8203;<tspan x="90.00" y="418.50" textLength="106.3">example,&#57435;the&#57435;CELF&#57436;4</tspan></text><path d="M157.54 419.25 l38.76 0 l0 0.75 l-38.76 0 l0 -0.75 z "  style="fill:#000000;"/><text class="f33" font-size="11.25" style="fill:#000000"><tspan x="196.30" y="418.50" textLength="318.28">&#57435;has&#57435;a&#57435;subtest&#57435;entitled&#57435;&#8220;Concepts&#57435;and&#57435;Following&#57435;Directions&#8221;.&#57435;&#57435;If&#57435;a</tspan>&#8203;<tspan x="90.00" y="444.00" textLength="427.1">child&#57435;has&#57435;difficulty&#57435;with&#57435;receptive&#57435;language&#57435;and,&#57435;perhaps,&#57435;auditory&#57435;memory,&#57435;he/she&#57435;will</tspan>&#8203;<tspan x="90.00" y="469.50" textLength="425.86">have&#57435;difficulty&#57435;recalling&#57435;the&#57435;oral&#57435;directions&#57435;I&#57435;have&#57435;presented&#57435;on&#57435;this&#57435;subtest&#57435;where&#57435;they</tspan>&#8203;<tspan x="90.00" y="495.00" textLength="416.53">have&#57435;to&#57435;listen&#57435;to&#57435;one&#57435;presentation&#57435;of&#57435;an&#57435;oral&#57435;direction&#57435;and&#57435;point&#57435;to&#57435;the&#57435;corresponding</tspan>&#8203;<tspan x="90.00" y="520.50" textLength="130.06">pictures.&#57435;&#57435;Another&#57435;CELF&#57436;4</tspan></text><path d="M181.3 521.25 l38.76 0 l0 0.75 l-38.76 0 l0 -0.75 z "  style="fill:#000000;"/><text class="f33" font-size="11.25" style="fill:#000000"><tspan x="220.06" y="520.50" textLength="293.9">&#57435;subtest&#57435;is&#57435;entitled&#57435;&#8220;Sentence&#57435;Structure&#8221;.&#57435;&#57435;On&#57435;this&#57435;subtest,&#57435;a</tspan>&#8203;<tspan x="90.00" y="546.00" textLength="412.71">child&#57435;looks&#57435;at&#57435;four&#57435;pictures,&#57435;listens&#57435;to&#57435;my&#57435;orally&#57435;presented&#57435;sentence,&#57435;and&#57435;selects&#57435;the</tspan>&#8203;<tspan x="90.00" y="571.50" textLength="432.09">picture&#57435;that&#57435;best&#57435;fits&#57435;my&#57435;sentence.&#57435;If&#57435;a&#57435;child&#57435;experiences&#57435;difficulty&#57435;here,&#57435;I&#57435;may&#57435;add&#57435;a&#57435;test</tspan>&#8203;<tspan x="90.00" y="597.00" textLength="226.36">called&#57435;the&#57435;Test&#57435;of&#57435;Auditory&#57435;Perceptual&#57435;Skills&#57436;3</tspan></text><path d="M141.28 597.75 l175.07 0 l0 0.75 l-175.07 0 l0 -0.75 z "  style="fill:#000000;"/><text class="f33" font-size="11.25" style="fill:#000000"><tspan x="316.36" y="597.00" textLength="46.26">&#57435;(TAPS&#57436;3</tspan></text><path d="M323.23 597.75 l39.39 0 l0 0.75 l-39.39 0 l0 -0.75 z "  style="fill:#000000;"/><text class="f33" font-size="11.25" style="fill:#000000"><tspan x="362.61" y="597.00" textLength="158.18">).&#57435;&#57435;This&#57435;will&#57435;help&#57435;me&#57435;determine&#57435;if</tspan>&#8203;<tspan x="90.00" y="622.50" textLength="438.38">the&#57435;student&#57435;is&#57435;having&#57435;difficulty&#57435;with&#57435;understanding&#57435;the&#57435;linguistic&#57435;concepts&#57435;or&#57435;if&#57435;the&#57435;student</tspan>&#8203;<tspan x="90.00" y="648.00" textLength="422.72">is&#57435;having&#57435;difficulty&#57435;remembering&#57435;what&#57435;he/she&#57435;has&#57435;heard.&#57435;&#57435;In&#57435;addition,&#57435;I&#57435;will&#57435;do&#57435;informal</tspan>&#8203;<tspan x="90.00" y="673.50" textLength="397.07">assessments&#57435;around&#57435;following&#57435;oral&#57435;directions,&#57435;comprehend&#57435;a&#57435;variety&#57435;of&#57435;linguistic</tspan>&#8203;<tspan x="90.00" y="699.00" textLength="404.59">concepts&#57435;(e.g.&#57435;spatial&#57435;concepts,&#57435;such&#57435;as&#57435;&#8220;in,&#57435;on,&#57435;under&#8221;),&#57435;and&#57435;talk&#57435;with&#57435;the&#57435;teacher</tspan></text></g>
</svg>
