<svg class="crocodoc-4m0ZiS crocodoc-page-svg" version="1.1"
    xmlns="http://www.w3.org/2000/svg"
    xmlns:xlink="http://www.w3.org/1999/xlink"
    xmlns:xhtml="http://www.w3.org/1999/xhtml"
    xml:space="preserve" width="612.0pt" height="792.0pt" viewBox="0 0 612.0 792.0">
<xhtml:link href="stylesheet.css" type="text/css" rel="stylesheet" />
<style>
.crocodoc-4m0ZiS tspan { white-space:pre; direction:ltr; unicode-bidi:bidi-override; }
.crocodoc-4m0ZiS path { fill:transparent; }
.crocodoc-4m0ZiS [mbm="1"] { opacity:0; }
.crocodoc-4m0ZiS [mbm="2"] { opacity:0.3; }
.crocodoc-4m0ZiS [mbm="3"] { opacity:0.5; }
@supports (mix-blend-mode: multiply) {
.crocodoc-4m0ZiS [mbm] { opacity:1; }
}

</style>
<defs>
<clipPath id="Clip_1_3_4m0ZiS_2"><path d="M0 792 l612 0 l0 -792 l-612 0 l0 792 " /></clipPath>
</defs>
<g clip-path="url(#Clip_1_3_4m0ZiS_2)" ><path d="M0 0 l612 0 l0 792 l-612 0 l0 -792 z "  style="fill:#ffffff;"/><path d="M0 -1584 l612 0 l0 7128 l-612 0 l0 -7128 z "  style="fill:#ebebeb;"/><path d="M0 -1584 l612 0 l0 7128 l-612 0 l0 -7128 z "  style="fill:#ebebeb;"/><path d="M0 -1584 l612 0 l0 7128 l-612 0 l0 -7128 z "  style="fill:#ffffff;"/><path d="M0 0 l612 0 l0 792 l-612 0 l0 -792 z "  style="fill:#ffffff;"/><path d="M105 123 l402.75 0 l0 13.5 l-402.75 0 l0 -13.5 z "  style="fill:#ffffff;"/><path d="M90 661.5 l392.25 0 l0 13.5 l-392.25 0 l0 -13.5 z "  style="fill:#ffffff;"/><path d="M90 688.5 l168 0 l0 13.5 l-168 0 l0 -13.5 z "  style="fill:#ffffff;"/><text class="f33" font-size="11.25" style="fill:#000000"><tspan x="90.00" y="82.50" textLength="21.26">see!</tspan>&#8203;<tspan x="90.00" y="133.50" textLength="15.0">Q:&#57435;</tspan>&#8203;<tspan x="105.00" y="133.50" textLength="413.25" class="f35" style="fill:#444444">How&#57374;do&#57374;you&#57374;assess&#57374;articulation&#57374;skills?&#57374;Please&#57374;show&#57374;me&#57374;a&#57374;test&#57374;you&#57374;would&#57374;use.</tspan>&#8203;<tspan x="90.00" y="187.50" textLength="405.52" dx="0,0,25.37,0,0,0,0,0,0,0,0,0,0,0,0,0,0,0,0,0,0,0,0,0,0,0,0,0,0,0,0,0,0,0,0,0,0,0,0,0,0,0,0,0,0,0,0,0,0,0,0,0,0,0,0,0,0,0,0,0,0,0,0,0,0,0,0,0,0,0,0,0,0,0,0,0,0,0,0,0">A:To&#57435;assess&#57435;articulation&#57435;skills,&#57435;I&#57435;generally&#57435;utilize&#57435;the&#57435;Goldman&#57436;Fristoe&#57435;Test&#57435;of</tspan></text><path d="M374.23 188.25 l121.29 0 l0 0.75 l-121.29 0 l0 -0.75 z "  style="fill:#000000;"/><text class="f33" font-size="11.25" style="fill:#000000"><tspan x="90.00" y="213.00" textLength="112.53">Articulation&#57436;2&#57435;(GFTA&#57436;2</tspan></text><path d="M90 213.75 l112.53 0 l0 0.75 l-112.53 0 l0 -0.75 z "  style="fill:#000000;"/><text class="f33" font-size="11.25" style="fill:#000000"><tspan x="202.53" y="213.00" textLength="324.55">).&#57435;&#57435;In&#57435;addition&#57435;to&#57435;this&#57435;test,&#57435;I&#57435;will&#57435;also&#57435;listen&#57435;to&#57435;a&#57435;child&#8217;s&#57435;spontaneous</tspan>&#8203;<tspan x="90.00" y="238.50" textLength="391.45">speech&#57435;(e.g.&#57435;conversational&#57435;speech)&#57435;to&#57435;see&#57435;if&#57435;the&#57435;errors&#57435;evident&#57435;on&#57435;the&#57435;GFTA&#57436;2</tspan></text><path d="M441.45 239.25 l40 0 l0 0.75 l-40 0 l0 -0.75 z "  style="fill:#000000;"/><text class="f33" font-size="11.25" style="fill:#000000"><tspan x="481.45" y="238.50" textLength="43.15">&#57435;are&#57435;also</tspan>&#8203;<tspan x="90.00" y="264.00" textLength="428.37">present&#57435;in&#57435;a&#57435;child&#8217;s&#57435;spontaneous&#57435;speech.&#57435;&#57435;&#57435;I&#57435;will&#57435;then&#57435;make&#57435;a&#57435;judgment&#57435;on&#57435;their&#57435;level&#57435;of</tspan>&#8203;<tspan x="90.00" y="289.50" textLength="416.44">intelligibility&#57435;in&#57435;spontaneous&#57435;speech&#57435;(e.g.&#57435;&#8220;mild,&#57435;moderate,&#57435;or&#57435;severely&#57435;impaired&#8221;).&#57435;&#57435;In</tspan>&#8203;<tspan x="90.00" y="315.00" textLength="408.36">addition,&#57435;I&#57435;will&#57435;also&#57435;talk&#57435;with&#57435;the&#57435;teacher&#57435;to&#57435;see&#57435;how&#57435;well&#57435;the&#57435;teacher&#57435;and&#57435;peers&#57435;can</tspan>&#8203;<tspan x="90.00" y="340.50" textLength="239.52">understand&#57435;the&#57435;student&#57435;in&#57435;the&#57435;classroom&#57435;setting.</tspan>&#8203;<tspan x="126.00" y="366.00" textLength="383.95">Over&#57435;the&#57435;last&#57435;decade,&#57435;SLP&#8217;s&#57435;have&#57435;become&#57435;more&#57435;involved&#57435;with&#57435;assisting&#57435;in&#57435;the</tspan>&#8203;<tspan x="90.00" y="391.50" textLength="420.25">evaluation&#57435;of&#57435;reading&#57435;disabilities.&#57435;&#57435;We&#57435;are&#57435;not&#57435;responsible&#57435;for&#57435;the&#57435;actual&#57435;evaluation&#57435;or</tspan>&#8203;<tspan x="90.00" y="417.00" textLength="435.25">treatment&#57435;of&#57435;a&#57435;reading&#57435;disability&#894;&#57435;however,&#57435;we&#57435;can&#57435;provide&#57435;information/data&#57435;about&#57435;how&#57435;a</tspan>&#8203;<tspan x="90.00" y="442.50" textLength="398.34">child&#57435;&#8220;processes&#8221;&#57435;the&#57435;sound&#57435;system&#57435;of&#57435;our&#57435;language.&#57435;&#57435;This&#57435;is&#57435;called&#57435;phonological</tspan>&#8203;<tspan x="90.00" y="468.00" textLength="398.94">processing.&#57435;&#57435;We&#57435;are&#57435;able&#57435;to&#57435;administer&#57435;tests&#57435;such&#57435;as&#57435;the&#57435;Comprehensive&#57435;Test&#57435;of</tspan></text><path d="M372.63 468.75 l116.3 0 l0 0.75 l-116.3 0 l0 -0.75 z "  style="fill:#000000;"/><text class="f33" font-size="11.25" style="fill:#000000"><tspan x="90.00" y="493.50" textLength="123.2">Phonological&#57435;Processing</tspan></text><path d="M90 494.25 l123.2 0 l0 0.75 l-123.2 0 l0 -0.75 z "  style="fill:#000000;"/><text class="f33" font-size="11.25" style="fill:#000000"><tspan x="213.20" y="493.50" textLength="45.63">&#57435;(CTOPP</tspan></text><path d="M220.07 494.25 l38.75 0 l0 0.75 l-38.75 0 l0 -0.75 z "  style="fill:#000000;"/><text class="f33" font-size="11.25" style="fill:#000000"><tspan x="258.83" y="493.50" textLength="248.24">)&#57435;or&#57435;the&#57435;Phonological&#57435;Awareness&#57435;Test&#57435;&#8211;&#57435;2&#57435;(PAT&#57436;2)</tspan></text><path d="M297.59 494.25 l209.47 0 l0 0.75 l-209.47 0 l0 -0.75 z "  style="fill:#000000;"/><text class="f33" font-size="11.25" style="fill:#000000"><tspan x="507.06" y="493.50" textLength="12.51">&#57435;to</tspan>&#8203;<tspan x="90.00" y="519.00" textLength="429.63">look&#57435;at&#57435;a&#57435;child&#8217;s&#57435;ability&#57435;to&#57435;understand&#57435;words&#57435;at&#57435;the&#57435;phoneme,&#57435;or&#57435;sound&#57435;level,&#57435;and&#57435;if&#57435;they</tspan>&#8203;<tspan x="90.00" y="544.50" textLength="402.7">can&#57435;&#8220;hear&#8221;&#57435;the&#57435;different&#57435;sounds&#57435;or&#57435;syllables&#57435;within&#57435;words.&#57435;&#57435;In&#57435;addition,&#57435;the&#57435;CTOPP</tspan></text><path d="M450.82 545.25 l41.88 0 l0 0.75 l-41.88 0 l0 -0.75 z "  style="fill:#000000;"/><text class="f33" font-size="11.25" style="fill:#000000"><tspan x="492.70" y="544.50" textLength="41.9">&#57435;looks&#57435;at</tspan>&#8203;<tspan x="90.00" y="570.00" textLength="417.08">a&#57435;child&#8217;s&#57435;&#8220;working&#8221;&#57435;memory&#57435;for&#57435;sound&#57435;and&#57435;number&#57435;sequences&#57435;and&#57435;if&#57435;they&#57435;can&#57435;rapidly</tspan>&#8203;<tspan x="90.00" y="595.50" textLength="420.21">name&#57435;(retrieve)&#57435;letter&#57435;and&#57435;number&#57435;names.&#57435;&#57435;All&#57435;are&#57435;considered&#57435;the&#57435;&#8220;underpinnings&#8221;&#57435;for</tspan>&#8203;<tspan x="90.00" y="621.00" textLength="176.35">successful&#57435;development&#57435;of&#57435;reading.</tspan>&#8203;<tspan x="90.00" y="672.00" textLength="398.86" class="f35" style="fill:#444444">Q:&#57374;How&#57374;do&#57374;you&#57374;assess&#57374;expressive&#57374;language&#57374;in&#57374;terms&#57374;of&#57374;linguistic&#57374;structure</tspan>&#8203;<tspan x="90.00" y="699.00" textLength="175.65" class="f35" style="fill:#444444">(grammar,&#57374;morphology,&#57374;syntax)?</tspan></text></g>
</svg>
